<svg xmlns="http://www.w3.org/2000/svg" xmlns:xlink="http://www.w3.org/1999/xlink" width="20" height="29" viewBox="0 0 20 29"><defs><path id="jydsa" d="M753.74 48.06c0 2.05-1.64 3.7-3.65 3.7a3.68 3.68 0 0 1-3.65-3.7c0-2.04 1.64-3.7 3.65-3.7a3.68 3.68 0 0 1 3.65 3.7zm-1.04 0a2.63 2.63 0 0 0-2.6-2.64 2.63 2.63 0 0 0-2.62 2.64 2.63 2.63 0 0 0 2.61 2.65c1.44 0 2.6-1.19 2.6-2.65zm5.3 7.2L750 67l-8.01-11.75c-3-4.05-2.56-10.73.94-14.27a9.86 9.86 0 0 1 14.14 0c3.5 3.54 3.93 10.22.93 14.28zm-1.67-13.54a8.83 8.83 0 0 0-12.66 0c-3.16 3.2-3.55 9.24-.84 12.9L750 65.15l7.15-10.5c2.73-3.68 2.34-9.71-.82-12.92z"/></defs><g><g transform="translate(-740 -38)"><use fill="#e5b58f" xlink:href="#jydsa"/></g></g></svg>