<svg xmlns="http://www.w3.org/2000/svg" xmlns:xlink="http://www.w3.org/1999/xlink" width="29" height="24" viewBox="0 0 29 24"><defs><path id="opkna" d="M1089 43.4v19.2c0 1.32-1.08 2.4-2.42 2.4h-24.16a2.41 2.41 0 0 1-2.42-2.4V43.4c0-1.33 1.08-2.4 2.42-2.4h24.16a2.41 2.41 0 0 1 2.42 2.4zm-.97 19.2V43.4c0-.8-.65-1.44-1.45-1.44h-24.16c-.8 0-1.45.64-1.45 1.44v19.2c0 .8.65 1.44 1.45 1.44h24.16c.8 0 1.45-.65 1.45-1.44zm-1.46-18.85c.04.17 0 .35-.13.47l-1.93 1.92a.49.49 0 0 1-.81-.21.48.48 0 0 1 .12-.47l1.94-1.92a.49.49 0 0 1 .81.21zm-.13 18.03c.19.19.19.49 0 .68a.49.49 0 0 1-.68 0l-8.84-8.78-.71.7c-.95.94-2.47.94-3.42 0l-.7-.7-8.85 8.78a.49.49 0 0 1-.81-.21.48.48 0 0 1 .13-.47l8.84-8.78-8.84-8.78a.48.48 0 0 1 0-.68c.19-.18.5-.18.68 0l9.18 9.12 1.05 1.04c.57.56 1.49.56 2.06 0l1.04-1.04 5.32-5.28a.48.48 0 0 1 .81.21c.05.17 0 .35-.13.47L1077.6 53z"/></defs><g><g transform="translate(-1060 -41)"><use fill="#e5b58f" xlink:href="#opkna"/></g></g></svg>