<?xml version="1.0" standalone="no"?>
<!DOCTYPE svg PUBLIC "-//W3C//DTD SVG 1.1//EN" "http://www.w3.org/Graphics/SVG/1.1/DTD/svg11.dtd" >
<svg xmlns="http://www.w3.org/2000/svg" xmlns:xlink="http://www.w3.org/1999/xlink" version="1.1">
<metadata></metadata>
<defs>
<font id="glober_regularregular" horiz-adv-x="1136" >
<font-face units-per-em="2048" ascent="1536" descent="-512" />
<missing-glyph horiz-adv-x="485" />
<glyph unicode="fi" horiz-adv-x="1161" d="M74 1020q0 16 2 30.5t4 20.5l2 6h131v123q0 165 89 250.5t288 85.5q98 0 195.5 -15t145.5 -31l48 -15q0 -67 -39 -109q-16 5 -45.5 13.5t-118 22t-174.5 13.5q-133 0 -187.5 -49t-54.5 -156v-133h551q40 0 80 -8v-1059q-24 -10 -73 -10q-24 0 -42.5 2.5t-25.5 5.5l-6 2 v951h-484v-951q-24 -10 -73 -10q-23 0 -41.5 2.5t-25.5 5.5l-7 2v951h-131q-8 22 -8 59z" />
<glyph unicode="fl" horiz-adv-x="1165" d="M74 1020q0 33 8 57h131v123q0 336 365 336q98 0 201.5 -17.5t157.5 -34.5l54 -18v-1456q-24 -10 -73 -10q-24 0 -42.5 2.5t-25.5 5.5l-6 2v1372q-134 33 -254 33q-125 0 -177.5 -50.5t-52.5 -154.5v-133h230q8 -24 8 -57q0 -31 -8 -59h-230v-951q-24 -10 -73 -10 q-23 0 -41.5 2.5t-25.5 5.5l-7 2v951h-131q-8 56 -8 59z" />
<glyph unicode=" "  horiz-adv-x="485" />
<glyph unicode="&#x09;" horiz-adv-x="485" />
<glyph unicode="&#xa0;" horiz-adv-x="485" />
<glyph unicode="!" horiz-adv-x="528" d="M184 10v150q23 10 80 10q24 0 44 -2.5t28 -5.5l8 -2v-150q-25 -10 -80 -10q-25 0 -45 2.5t-27 5.5zM184 1464q17 11 80 11q27 0 47 -2.5t27 -5.5l6 -3l-25 -1104q-18 -12 -55 -12q-16 0 -30 3t-20 6l-5 3z" />
<glyph unicode="&#x22;" horiz-adv-x="679" d="M133 1464q23 11 74 11q23 0 41.5 -2.5t25.5 -5.5l7 -3l-27 -403q-14 -8 -47 -8q-14 0 -25.5 2t-16.5 4l-5 2zM399 1464q21 11 74 11q22 0 40.5 -2.5t26.5 -5.5l7 -3l-27 -403q-16 -8 -47 -8q-15 0 -26.5 2t-16.5 4l-4 2z" />
<glyph unicode="#" horiz-adv-x="1345" d="M82 332q0 41 10 61h225l134 471h-187q-10 22 -10 62q0 39 10 59h219l80 279q30 12 66 12q38 0 65 -12l-78 -279h316l80 279q30 12 65 12q39 0 66 -12l-80 -279h184q10 -27 10 -57q0 -34 -10 -64h-217l-133 -471h178q10 -20 10 -59q0 -32 -10 -62h-213l-71 -260 q-42 -12 -68 -12q-18 0 -66 12l74 260h-315l-74 -260q-42 -12 -68 -12q-21 0 -63 12l72 260h-191q-10 20 -10 60zM451 393h315l131 471h-315z" />
<glyph unicode="$" horiz-adv-x="1150" d="M117 1001q0 158 103.5 253t297.5 110l-14 242q24 10 67 10q20 0 37.5 -2.5t25.5 -5.5l7 -2l-16 -238q93 -3 178 -15t123 -23l39 -11q0 -34 -9 -62q-12 -36 -34 -51q-132 41 -308 41q-346 0 -346 -231q0 -56 26.5 -98t71.5 -67.5t103 -45t122 -36.5t128 -35.5t122 -47 t103 -67.5t71.5 -100.5t26.5 -141.5q0 -164 -107 -260t-310 -111l16 -260q-21 -10 -68 -10q-20 0 -37.5 2.5t-24.5 5.5l-7 2l14 258q-107 2 -206 20.5t-145 35.5l-46 18q0 42 4 59q5 15 12 27.5t11.5 18.5t7.5 7q21 -6 57 -15t136 -24.5t186 -15.5q352 0 352 234 q0 60 -26.5 105t-71 72t-102 47.5t-121.5 36.5t-128 33t-121.5 44t-102 63t-71 95t-26.5 136z" />
<glyph unicode="%" horiz-adv-x="1542" d="M96 1061q0 354 273 354q272 0 272 -354t-272 -354q-134 0 -203.5 84t-69.5 270zM215 1061q0 -99 19.5 -156.5t51.5 -78.5t83 -21q75 0 113 56t38 200q0 143 -38.5 200.5t-112.5 57.5q-77 0 -115.5 -57.5t-38.5 -200.5zM315 -10l795 1437q19 11 64 11q19 0 35 -3t22 -5 l6 -3l-793 -1437q-22 -10 -65 -10q-18 0 -34 2.5t-23 5.5zM903 334q0 354 273 354q272 0 272 -354t-272 -354q-133 0 -203 84t-70 270zM1022 334q0 -144 39 -200t115 -56t113.5 56t37.5 200q0 143 -38.5 200.5t-112.5 57.5q-76 0 -115 -57.5t-39 -200.5z" />
<glyph unicode="&#x26;" horiz-adv-x="1306" d="M96 330q0 65 22.5 126t55 104.5t77 83t79.5 62.5t71 42q-73 165 -73 319q0 160 83 253t246 93q136 0 215.5 -70.5t79.5 -179.5q0 -62 -20 -116.5t-52 -97t-85 -86t-103.5 -75.5t-124.5 -73q120 -219 346 -393q80 102 129 262q35 3 68.5 -10.5t50.5 -38.5 q-47 -148 -157 -281q116 -78 247 -133q3 -36 -15 -70.5t-48 -52.5q-153 63 -283 152q-21 -22 -51.5 -45.5t-83.5 -54.5t-128 -50.5t-157 -19.5q-77 0 -145 20.5t-123.5 61.5t-88 110t-32.5 158zM242 348q0 -114 72 -180t194 -66q161 0 309 115q-232 184 -368 434 q-34 -20 -65 -45t-66 -63t-55.5 -88.5t-20.5 -106.5zM461 1075q0 -128 59 -264q145 80 218 156.5t73 181.5q0 73 -43 115.5t-121 42.5q-87 0 -136.5 -59.5t-49.5 -172.5z" />
<glyph unicode="'" horiz-adv-x="413" d="M133 1464q21 11 74 11q22 0 40.5 -2.5t26.5 -5.5l7 -3l-27 -403q-14 -8 -47 -8q-14 0 -25.5 2t-16.5 4l-5 2z" />
<glyph unicode="(" horiz-adv-x="593" d="M119 655q0 162 30.5 325.5t73.5 280.5t86.5 211t74.5 142l30 47q26 2 61 -16q16 -9 28.5 -20.5t16.5 -18.5l4 -7q-10 -15 -27.5 -43.5t-62 -123.5t-78.5 -197.5t-62 -261t-28 -318.5t26.5 -316.5t64.5 -265t76 -194t65 -127.5l26 -41q-12 -27 -47 -45q-16 -8 -31.5 -12 t-23.5 -4h-8q-12 17 -32 49.5t-70.5 137.5t-89.5 215.5t-71 275.5t-32 327z" />
<glyph unicode=")" horiz-adv-x="593" d="M72 -289q10 15 27.5 43.5t62 123.5t78.5 197.5t62 261t28 318.5t-26.5 316.5t-64.5 265t-76 194t-65 127.5l-26 41q12 26 47 46q16 8 31.5 12t23.5 4h8q12 -17 31.5 -49.5t70 -137t89.5 -215.5t70.5 -276.5t31.5 -327.5q0 -118 -16 -237t-42 -215.5t-57 -185.5 t-62.5 -154t-57.5 -114t-42 -74l-16 -25q-28 -2 -63 16q-16 8 -27.5 19t-15.5 19z" />
<glyph unicode="*" horiz-adv-x="704" d="M117 1245q0 53 26 82l166 -55v172q41 15 86 0v-172l166 55q25 -28 25 -82l-166 -53l106 -145q-39 -39 -71 -50l-105 142l-100 -142q-40 11 -72 47l103 146z" />
<glyph unicode="+" horiz-adv-x="958" d="M115 594q0 16 2.5 30.5t4.5 20.5l3 6h297v299q20 8 57 8q16 0 30.5 -2t20.5 -4l7 -2v-299h299q8 -20 8 -57q0 -16 -2 -30.5t-4 -20.5l-2 -6h-299v-297q-21 -11 -58 -11q-16 0 -30.5 2.5t-20.5 5.5l-6 3v297h-297q-10 20 -10 57z" />
<glyph unicode="," horiz-adv-x="460" d="M129 -190q7 8 18 22.5t30.5 63.5t23.5 104q-16 1 -29.5 3.5t-19.5 4.5l-5 2v150q29 10 82 10q24 0 45 -2.5t30 -5.5l9 -2v-103q0 -53 -13 -102t-31.5 -81t-37.5 -56.5t-32 -35.5l-13 -11z" />
<glyph unicode="-" horiz-adv-x="729" d="M154 594q0 16 2.5 30.5t5.5 20.5l2 6h401q10 -20 10 -57q0 -16 -2.5 -30.5t-4.5 -20.5l-3 -6h-401q-10 20 -10 57z" />
<glyph unicode="." horiz-adv-x="462" d="M147 10v150q27 10 84 10q24 0 45 -2.5t30 -5.5l9 -2v-150q-29 -10 -84 -10q-25 0 -46 2.5t-29 5.5z" />
<glyph unicode="/" horiz-adv-x="931" d="M47 -84l688 1608q27 12 74 12q23 0 42 -3t27 -6l7 -3l-688 -1608q-27 -12 -76 -12q-22 0 -40.5 3t-26.5 6z" />
<glyph unicode="0" horiz-adv-x="1267" d="M135 696q0 370 125.5 543.5t370.5 173.5q247 0 374.5 -172t127.5 -545q0 -372 -127.5 -544t-374.5 -172q-246 0 -371 171.5t-125 544.5zM293 696q0 -214 39 -345.5t111.5 -188t187.5 -56.5q176 0 258 135.5t82 454.5q0 217 -38 348t-111 186.5t-191 55.5 q-115 0 -187.5 -55.5t-111.5 -187t-39 -347.5z" />
<glyph unicode="1" horiz-adv-x="825" d="M72 1085q257 68 403 295q23 13 72 13q22 0 40.5 -3.5t26.5 -6.5l7 -3v-1368q-23 -12 -76 -12q-22 0 -41 3t-27 6l-8 3v897q0 165 10 275q-136 -162 -373 -223q-22 22 -31.5 55.5t-2.5 68.5z" />
<glyph unicode="2" horiz-adv-x="1085" d="M109 137q0 47 6.5 90t15.5 77t28.5 68t34 57.5t43 51.5t46.5 44.5t53.5 41.5t53.5 36.5t58 37t56 35.5q7 4 19 13q142 92 190 138q89 85 95 199q1 11 1 21q0 50 -15 91t-47.5 76t-92 54.5t-140.5 19.5q-73 0 -150 -14t-118 -28l-41 -15q-52 39 -43 108q17 8 49 20.5 t130.5 33t197.5 20.5q91 0 165.5 -20t134 -61.5t93 -113t33.5 -167.5q0 -41 -6 -77t-14.5 -66t-27.5 -59.5t-34.5 -51.5t-46.5 -49t-52.5 -44.5t-63.5 -45t-68.5 -44t-78.5 -47.5q-16 -10 -58.5 -34.5t-64.5 -39t-58 -40t-56.5 -49.5t-42 -56t-31.5 -70t-10 -81q0 -15 1 -29 t2 -22.5t1 -10.5h676q12 -24 12 -67q0 -40 -12 -68h-811q-12 65 -12 137z" />
<glyph unicode="3" horiz-adv-x="1062" d="M102 49q-2 29 9 60.5t30 50.5q143 -49 297 -49q179 0 261.5 69.5t82.5 202.5q0 285 -331 285h-127q-25 62 0 123h127q290 0 290 251q0 120 -74 183t-221 63q-71 0 -140 -12t-102 -24l-34 -13q-56 37 -49 107q6 3 16 7.5t44.5 16t71.5 20.5t94 16t114 7q208 0 319 -93 t111 -257q0 -256 -203 -332q246 -77 246 -369q0 -83 -26 -150t-81.5 -120.5t-151.5 -82.5t-226 -29q-60 0 -118 7t-97.5 17t-70.5 20.5t-46 17.5z" />
<glyph unicode="4" horiz-adv-x="1179" d="M70 422q0 18 3 33.5t6 21.5l3 6l661 897q25 13 78 13q22 0 40 -3.5t25 -6.5l7 -3v-897h197q12 -20 12 -61q0 -18 -3 -33t-6 -21l-3 -6h-197v-350q-27 -12 -72 -12q-21 0 -38.5 3t-24.5 6l-8 3v350h-668q-12 19 -12 60zM238 483h512v697z" />
<glyph unicode="5" horiz-adv-x="1064" d="M104 41q-3 29 8 60.5t31 50.5q13 -5 36.5 -12t95 -19t141.5 -12q189 0 282 67.5t93 214.5q0 145 -83 217t-286 72q-45 0 -95 -3.5t-91.5 -8t-49.5 -4.5v729h701q22 -70 0 -133h-555v-463q50 10 141 10q473 0 473 -416q0 -411 -514 -411q-64 0 -121 6.5t-93 15t-63 17.5 t-39 15z" />
<glyph unicode="6" horiz-adv-x="1128" d="M131 526q0 416 197 630t553 237q26 -57 0 -121q-240 -26 -384 -142.5t-190 -351.5q158 74 299 74q90 0 164.5 -24.5t132.5 -75.5t90.5 -136.5t32.5 -199.5q0 -213 -120.5 -324.5t-327.5 -111.5q-101 0 -181.5 32t-140.5 97t-92.5 170.5t-32.5 246.5zM283 518 q0 -214 79.5 -317t215.5 -103q134 0 213 81t79 237q0 160 -76.5 237.5t-207.5 77.5q-137 0 -297 -88q-6 -58 -6 -125z" />
<glyph unicode="7" horiz-adv-x="1011" d="M72 1325q0 20 3 37t6 24l3 7h840q10 -36 10 -84q-2 -101 -31.5 -192.5t-75 -165.5t-100.5 -147.5t-109 -154.5t-99 -170.5t-73 -210.5t-28 -260q-56 -8 -70 -8q-12 0 -76 8q0 144 25.5 268.5t67 216t92 172t103.5 150.5t98.5 136.5t79.5 145t44 160.5h-698q-12 25 -12 68 z" />
<glyph unicode="8" horiz-adv-x="1191" d="M127 336q0 77 28 146t74.5 118.5t87.5 81.5t86 57q-109 59 -170 137.5t-61 198.5q0 156 113 247t307 91q192 0 304 -88.5t112 -241.5q0 -224 -222 -360q63 -31 109 -62.5t87.5 -76t63 -104t21.5 -132.5q0 -172 -125 -270t-354 -98q-217 0 -339 96.5t-122 259.5zM272 344 q0 -110 83 -177t241 -67q149 0 234 67t85 175q0 37 -10.5 69.5t-24.5 57t-43.5 49.5t-51 40.5t-64.5 36.5t-67 31.5t-75 31.5t-73 30q-24 -14 -46.5 -29.5t-59 -49.5t-62.5 -69.5t-46 -88t-20 -107.5zM317 1085q0 -59 22.5 -104t81.5 -83.5t94.5 -56t126.5 -54.5l13.5 -6 t12.5 -5t14 -6q186 125 186 301q0 106 -74 165.5t-202 59.5q-127 0 -201 -57.5t-74 -153.5z" />
<glyph unicode="9" horiz-adv-x="1128" d="M102 977q0 213 120.5 324.5t326.5 111.5q209 0 328.5 -135t119.5 -412q0 -211 -52.5 -372t-151.5 -265.5t-235.5 -161t-311.5 -67.5q-25 64 0 121q239 24 382 141t189 352q-148 -73 -297 -73q-90 0 -164 24.5t-132 75.5t-90 136.5t-32 199.5zM256 977q0 -160 77 -237.5 t208 -77.5q148 0 297 88q6 58 6 124q0 214 -79.5 317t-215.5 103q-134 0 -213.5 -80.5t-79.5 -236.5z" />
<glyph unicode=":" horiz-adv-x="475" d="M154 10v150q27 10 84 10q24 0 45 -2.5t30 -5.5l9 -2v-150q-29 -10 -84 -10q-25 0 -46 2.5t-30 5.5zM154 819v150q27 10 84 10q24 0 45 -2.5t30 -4.5l9 -3v-150q-29 -10 -84 -10q-25 0 -46 2.5t-30 4.5z" />
<glyph unicode=";" horiz-adv-x="497" d="M152 -190q3 3 7 8t15.5 23.5t20.5 38.5t17.5 53t10.5 67q-16 1 -30 3.5t-19 4.5l-6 2v150q27 10 84 10q24 0 45 -2.5t30 -5.5l9 -2v-103q0 -53 -13 -102t-32 -81t-37.5 -56.5t-31.5 -35.5l-13 -11zM168 819v150q27 10 84 10q24 0 45 -2.5t30 -4.5l9 -3v-150 q-29 -10 -84 -10q-25 0 -46 2.5t-30 4.5z" />
<glyph unicode="&#x3c;" horiz-adv-x="940" d="M109 594q0 18 2.5 34.5t4.5 23.5l3 7l655 297q10 -16 10 -57q0 -18 -2.5 -33.5t-5.5 -21.5l-2 -6l-534 -246l534 -242q10 -20 10 -61q0 -17 -2.5 -32t-5.5 -21l-2 -7l-655 297q-10 29 -10 68z" />
<glyph unicode="=" horiz-adv-x="1048" d="M170 356q-15 63 0 117h709q16 -59 0 -117h-709zM170 715q-15 60 0 114h709q16 -55 0 -114h-709z" />
<glyph unicode="&#x3e;" horiz-adv-x="937" d="M156 289q0 18 2.5 33.5t5.5 21.5l2 6l534 242l-534 246q-10 20 -10 61q0 18 2.5 32.5t5.5 19.5l2 5l655 -297q10 -24 10 -65q0 -17 -2.5 -34t-4.5 -26l-3 -8l-655 -297q-10 21 -10 60z" />
<glyph unicode="?" horiz-adv-x="886" d="M78 1346q5 3 14.5 7.5t41 16t66.5 20.5t89 16t110 7q185 0 289.5 -90.5t104.5 -249.5q0 -82 -21 -147t-54 -107t-73.5 -78t-80.5 -70.5t-73 -73.5t-54 -98t-21 -134q-17 -17 -58 -17q-16 0 -31 4t-21 8l-7 5q0 92 19 163.5t48.5 116t66 81t73 68t66 66t48.5 86.5t19 119 q0 106 -65 163.5t-195 57.5q-70 0 -133.5 -12t-91.5 -24l-29 -13q-54 38 -47 109zM274 10v150q27 10 84 10q24 0 45 -2.5t30 -5.5l9 -2v-150q-29 -10 -84 -10q-25 0 -46 2.5t-30 5.5z" />
<glyph unicode="@" horiz-adv-x="1871" d="M125 571q0 249 107.5 437t293.5 286.5t424 98.5q247 0 427 -97.5t272 -271t92 -403.5q0 -211 -93.5 -329t-261.5 -118q-183 0 -231 137q-75 -137 -264 -137q-71 0 -128 21t-102 65.5t-69.5 123t-24.5 185.5q0 109 24.5 188t69.5 124t102 65.5t128 20.5q164 0 244 -107v98 q20 13 63 13q19 0 35 -3.5t23 -6.5l6 -3v-507q0 -175 129 -175q99 0 163 86.5t64 258.5q0 306 -177.5 488.5t-490.5 182.5q-205 0 -361.5 -86.5t-243.5 -250.5t-87 -384q0 -144 36.5 -262t99.5 -199t150 -136t185.5 -80t208.5 -25q293 0 555 164q48 -20 51 -78 q-273 -193 -626 -193q-127 0 -243 31t-216.5 96.5t-174.5 159.5t-116.5 228t-42.5 294zM707 569q0 -165 60 -231t165 -66q89 0 143.5 58t59.5 139v199q-2 82 -57 141t-146 59q-51 0 -88.5 -12.5t-70 -43.5t-49.5 -92t-17 -151z" />
<glyph unicode="A" horiz-adv-x="1327" d="M37 12l543 1450q33 13 84 13q24 0 45 -3.5t30 -6.5l9 -3l542 -1450q-27 -12 -84 -12q-22 0 -40 3t-26 6l-7 3l-148 391h-653l-150 -391q-24 -12 -73 -12q-22 0 -40 3t-25 6zM377 530h563l-238 627q-13 36 -23 71.5t-13 52.5l-4 17h-7q-12 -61 -41 -141z" />
<glyph unicode="B" horiz-adv-x="1284" d="M197 0v1475h520q102 0 180 -31t124.5 -86t69.5 -125t23 -154q0 -218 -176 -325q24 -12 30.5 -15.5t36.5 -22t45 -33t40 -44.5t37.5 -60.5t23 -76t10.5 -96.5q0 -188 -111 -297t-325 -109h-528zM348 123h350q162 0 234 71t72 209q0 146 -74.5 214.5t-231.5 68.5h-350v-563 zM348 805h336q274 0 274 274q0 131 -64.5 202t-211.5 71h-334v-547z" />
<glyph unicode="C" horiz-adv-x="1146" d="M133 737q0 376 144.5 567t429.5 191q99 0 185 -17t122 -34l37 -17v-7q0 -60 -47 -107q-13 6 -37 14.5t-97.5 22.5t-146.5 14q-80 0 -143.5 -18t-118 -62.5t-91 -115.5t-57 -180t-20.5 -253t20.5 -252t56.5 -177.5t91.5 -112.5t118.5 -60.5t143 -17.5t155.5 12.5 t111.5 25.5l36 13q44 -44 47 -117q-5 -3 -15 -7.5t-44.5 -16.5t-74 -21t-102.5 -16.5t-130 -7.5q-574 0 -574 757z" />
<glyph unicode="D" horiz-adv-x="1353" d="M197 0v1475h428q149 0 256.5 -37.5t185.5 -123t116 -228.5t38 -349q0 -205 -38 -348t-116 -228t-185.5 -123t-256.5 -38h-428zM348 129h264q89 0 155 16t123 56.5t93 108.5t56 175t20 252q0 146 -20 253t-56 175t-93 108.5t-123 56.5t-155 16h-264v-1217z" />
<glyph unicode="E" d="M197 0v1475h813q12 -27 12 -62q0 -38 -12 -65h-662v-539h559q13 -29 13 -59q0 -34 -13 -66h-559v-557h682q12 -27 12 -61q0 -36 -12 -66h-833z" />
<glyph unicode="F" horiz-adv-x="1089" d="M197 12v1463h804q13 -46 13 -64q0 -33 -13 -63h-653v-560h572q12 -24 12 -61t-12 -65h-572v-650q-25 -12 -76 -12q-23 0 -41.5 3t-26.5 6z" />
<glyph unicode="G" horiz-adv-x="1277" d="M131 737q0 373 154 565.5t446 192.5q107 0 201.5 -17t135.5 -34l42 -17q-3 -71 -47 -112q-16 5 -44 13.5t-110.5 22t-158.5 13.5q-82 0 -148.5 -18t-125.5 -62.5t-99 -115.5t-63 -180.5t-23 -252.5t23 -252t62.5 -178.5t99 -113t126 -61t148.5 -17.5q123 0 237 26v531 h-336q-12 24 -12 63q0 19 3 35t6 22l3 7h482v-750q-6 -3 -18 -7.5t-51.5 -16t-83 -20.5t-111.5 -16t-138 -7q-292 0 -446 190.5t-154 566.5z" />
<glyph unicode="H" horiz-adv-x="1388" d="M197 12v1450q26 13 75 13q22 0 41 -3.5t27 -6.5l8 -3v-639h692v639q27 13 76 13q22 0 41 -3.5t27 -6.5l8 -3v-1450q-25 -12 -76 -12q-24 0 -43 3t-26 6l-7 3v676h-692v-676q-27 -12 -76 -12q-24 0 -43 3t-25 6z" />
<glyph unicode="I" horiz-adv-x="544" d="M197 12v1450q24 13 75 13q23 0 42 -3.5t26 -6.5l8 -3v-1450q-27 -12 -76 -12q-24 0 -42.5 3t-25.5 6z" />
<glyph unicode="J" horiz-adv-x="884" d="M49 41v9q0 67 41 108q104 -43 221 -43q236 0 236 241v1106q21 13 76 13q23 0 41.5 -3.5t25.5 -6.5l8 -3v-1102q0 -192 -92.5 -286t-267.5 -94q-71 0 -143.5 15t-108.5 31z" />
<glyph unicode="K" horiz-adv-x="1255" d="M197 12v1450q26 13 77 13q22 0 40.5 -3.5t25.5 -6.5l8 -3v-633h209l442 633q35 13 78 13q47 0 82 -13l-475 -680l535 -770q-30 -12 -89 -12q-24 0 -46.5 3t-33.5 6l-10 3l-481 690h-211v-690q-23 -12 -76 -12q-22 0 -40.5 3t-26.5 6z" />
<glyph unicode="L" horiz-adv-x="1048" d="M197 0v1462q26 13 75 13q23 0 42 -3.5t26 -6.5l8 -3v-1329h641q10 -35 10 -65q0 -28 -10 -68h-792z" />
<glyph unicode="M" horiz-adv-x="1714" d="M195 12v1450q35 13 92 13q22 0 45 -3.5t35 -6.5l12 -3l356 -651q87 -168 107 -231h8q10 44 70 151q172 310 401 731q50 13 98 13q27 0 52.5 -3.5t36.5 -6.5l12 -3v-1450q-27 -12 -76 -12q-22 0 -41 3t-27 6l-8 3v869q0 319 10 409h-6q-27 -88 -139 -301l-342 -606 q-20 -8 -51 -8q-13 0 -24.5 2t-17.5 4l-5 2q-40 74 -153.5 281t-174.5 321q-117 215 -141 305h-7q17 -84 17 -399v-879q-23 -12 -70 -12q-20 0 -37 3t-25 6z" />
<glyph unicode="N" horiz-adv-x="1425" d="M197 12v1450q33 13 90 13q27 0 49.5 -3.5t31.5 -6.5l9 -3l600 -1030q31 -53 60.5 -112t42.5 -92l14 -33h6q-13 131 -13 305v962q23 13 74 13q22 0 39 -3.5t23 -6.5l6 -3v-1450q-27 -12 -86 -12q-27 0 -50 3t-33 6l-9 3l-607 1043q-33 55 -60.5 111t-38.5 85l-11 29h-6 q10 -110 10 -311v-957q-23 -12 -72 -12q-21 0 -38 3t-24 6z" />
<glyph unicode="O" horiz-adv-x="1388" d="M131 737q0 385 147 571.5t416 186.5q270 0 416.5 -186t146.5 -572q0 -387 -146 -572t-417 -185t-417 185t-146 572zM291 737q0 -174 28 -297.5t82 -196t125.5 -105t167.5 -32.5t167.5 32.5t126 105t82.5 196t28 297.5t-28 297.5t-82.5 196t-126 105t-167.5 32.5 t-167.5 -32.5t-125.5 -105t-82 -196t-28 -297.5z" />
<glyph unicode="P" horiz-adv-x="1232" d="M197 12v1463h518q195 0 309.5 -120.5t114.5 -318.5q0 -197 -114.5 -317.5t-309.5 -120.5h-367v-586q-25 -12 -74 -12q-24 0 -43.5 3t-26.5 6zM348 729h352q132 0 205.5 81.5t73.5 223.5q0 147 -73 229.5t-206 82.5h-352v-617z" />
<glyph unicode="Q" horiz-adv-x="1388" d="M131 737q0 385 147 571.5t416 186.5q270 0 416.5 -186t146.5 -572q0 -456 -206 -637q115 -106 268 -137q-5 -42 -28 -77t-58 -52q-81 25 -157 79t-128 122q-104 -55 -254 -55q-271 0 -417 185t-146 572zM291 737q0 -174 28 -297.5t82 -196t125.5 -105t167.5 -32.5 t167.5 32.5t126 105t82.5 196t28 297.5t-28 297.5t-82.5 196t-126 105t-167.5 32.5t-167.5 -32.5t-125.5 -105t-82 -196t-28 -297.5z" />
<glyph unicode="R" horiz-adv-x="1271" d="M197 12v1463h508q195 0 309 -115t114 -305q0 -156 -77.5 -263t-216.5 -141l354 -639q-31 -12 -88 -12q-25 0 -47 3t-31 6l-10 3l-344 623h-320v-623q-25 -12 -74 -12q-24 0 -43.5 3t-26.5 6zM348 764h342q131 0 205 76.5t74 214.5q0 136 -74 213.5t-205 77.5h-342v-582z " />
<glyph unicode="S" horiz-adv-x="1155" d="M123 61q0 70 39 121q21 -7 57 -17.5t136 -28t186 -17.5q173 0 263.5 69.5t90.5 202.5q0 52 -17 93t-42 68.5t-68.5 50.5t-81 36.5t-94.5 30.5q-167 52 -197 64q-167 65 -228 170q-44 76 -44 183q0 189 125.5 298.5t359.5 109.5q105 0 201.5 -13.5t140.5 -27.5l45 -14 q0 -72 -41 -119q-147 43 -325 43q-177 0 -266 -70t-89 -198q0 -52 18.5 -92.5t49 -67t77.5 -49t95.5 -38t110.5 -33.5q6 -1 9 -2t8 -2.5t9 -2.5q50 -15 85.5 -27.5t80.5 -33t76 -42t63 -53t51 -68t31.5 -85.5t12.5 -107q0 -197 -129.5 -305t-370.5 -108q-73 0 -144 8.5 t-120 20t-87.5 23.5t-57.5 20z" />
<glyph unicode="T" horiz-adv-x="1103" d="M59 1409q0 17 3.5 33.5t6.5 24.5l3 8h960q12 -25 12 -66q0 -17 -3 -34t-6 -25l-3 -9h-399v-1329q-27 -12 -76 -12q-24 0 -43 3t-26 6l-7 3v1329h-409q-13 27 -13 68z" />
<glyph unicode="U" horiz-adv-x="1368" d="M186 481v981q27 13 76 13q23 0 42 -3.5t26 -6.5l8 -3v-1003q0 -166 92 -258t258 -92q164 0 255 92t91 258v1003q25 13 74 13q22 0 41 -3.5t27 -6.5l8 -3v-981q0 -238 -136 -369.5t-364 -131.5t-363 133t-135 368z" />
<glyph unicode="V" horiz-adv-x="1284" d="M49 1460q25 15 82 15q22 0 40 -3.5t25 -6.5l7 -3l387 -1091q16 -48 29 -96t17 -71l5 -24h6q14 82 53 191l387 1091q21 13 72 13q23 0 42.5 -3.5t27.5 -6.5l8 -3l-512 -1452q-33 -10 -82 -10q-23 0 -44 2.5t-31 5.5l-9 2z" />
<glyph unicode="W" horiz-adv-x="1959" d="M57 1462q25 13 76 13q24 0 43.5 -3.5t27.5 -6.5l7 -3l305 -1046q16 -56 29 -115.5t19 -90.5l5 -32h6q13 111 46 236l292 1048q23 13 76 13q24 0 43.5 -3.5t27.5 -6.5l7 -3l291 -1046q15 -58 25.5 -117.5t14.5 -90.5l3 -30h6q12 103 51 236l297 1048q25 13 70 13 q20 0 38 -3.5t25 -6.5l8 -3l-409 -1450q-31 -12 -82 -12q-22 0 -43.5 3t-31.5 6l-11 3l-285 1037q-18 72 -29.5 134t-13.5 87l-2 26h-6q-6 -85 -45 -247l-287 -1037q-36 -12 -90 -12q-52 0 -84 12z" />
<glyph unicode="X" horiz-adv-x="1251" d="M47 10l475 752l-442 700q31 13 90 13q24 0 45.5 -3.5t30.5 -6.5l10 -3l373 -585l379 585q35 13 82 13q49 0 84 -13l-451 -694l477 -754q-31 -14 -88 -14q-25 0 -47 3t-31 6l-10 3l-406 639l-403 -641q-35 -10 -80 -10q-43 0 -88 10z" />
<glyph unicode="Y" horiz-adv-x="1286" d="M49 1462q31 13 92 13q25 0 46.5 -3.5t30.5 -6.5l9 -3l422 -686l432 686q25 13 80 13q24 0 45.5 -3.5t31.5 -6.5l9 -3l-530 -841v-609q-25 -12 -74 -12q-24 0 -43.5 3t-27.5 6l-7 3v604z" />
<glyph unicode="Z" horiz-adv-x="1198" d="M80 70q0 30 10 65l807 1204h-750q-10 40 -10 72q0 34 10 64h924q12 -24 12 -66t-12 -70l-811 -1204h838q10 -30 10 -65q0 -43 -10 -70h-1008q-10 40 -10 70z" />
<glyph unicode="[" horiz-adv-x="663" d="M199 -348v2007h379q8 -21 8 -62q0 -18 -2 -33t-4 -20l-2 -6h-238v-1765h238q8 -21 8 -60q0 -19 -2 -34.5t-4 -20.5l-2 -6h-379z" />
<glyph unicode="\" horiz-adv-x="935" d="M47 1524q27 12 78 12q23 0 42.5 -3t27.5 -6l8 -3l686 -1608q-25 -12 -78 -12q-22 0 -41 3t-27 6l-8 3z" />
<glyph unicode="]" horiz-adv-x="663" d="M78 -287q0 17 2.5 32t5.5 21l2 7h236v1765h-236q-10 18 -10 59q0 18 2.5 33.5t5.5 21.5l2 7h377v-2007h-377q-10 18 -10 61z" />
<glyph unicode="^" horiz-adv-x="1060" d="M109 936l356 528q20 11 65 11q20 0 36.5 -2.5t23.5 -5.5l6 -3l356 -528q-18 -10 -61 -10q-19 0 -36.5 2.5t-25.5 5.5l-8 2l-293 434l-290 -434q-25 -10 -68 -10q-19 0 -34.5 2.5t-21.5 5.5z" />
<glyph unicode="_" horiz-adv-x="1124" d="M125 -92q0 16 2.5 29t4.5 17l3 5h854q8 -14 8 -51q0 -17 -2 -30.5t-4 -17.5l-2 -5h-854q-10 14 -10 53z" />
<glyph unicode="`" horiz-adv-x="487" d="M78 1595q18 27 56.5 45t74.5 15l213 -295q-26 -43 -88 -49z" />
<glyph unicode="a" horiz-adv-x="1054" d="M94 307q0 320 387 320q125 0 269 -17v111q0 130 -58 190t-184 60q-68 0 -140 -12.5t-110 -25.5l-37 -13q-3 2 -8 6t-13.5 15t-13.5 24q-10 26 -10 63q17 8 48.5 19.5t123 31t178.5 19.5q109 0 181.5 -25.5t114 -80t58.5 -128t17 -180.5v-674q-18 -10 -59 -10 q-16 0 -31 2.5t-22 5.5l-7 2l-22 154q-43 -89 -132 -136.5t-212 -47.5q-146 0 -232 84.5t-86 242.5zM248 307q0 -107 55.5 -158t155.5 -51q132 0 211.5 91.5t79.5 232.5v82q-188 16 -248 16q-130 0 -192 -50.5t-62 -162.5z" />
<glyph unicode="b" d="M164 10v1516q23 10 74 10q23 0 41 -2.5t25 -5.5l7 -2v-588q94 160 316 160q93 0 163 -29t123 -93t80 -173.5t27 -263.5t-27 -263.5t-80 -173.5t-123 -93t-163 -29q-222 0 -316 159v-129q-22 -10 -73 -10q-23 0 -41.5 2.5t-25.5 5.5zM311 410q0 -78 29.5 -146.5t92 -114 t145.5 -45.5q153 0 220.5 98t67.5 337t-67 336.5t-221 97.5q-123 0 -194 -88.5t-73 -210.5v-264z" />
<glyph unicode="c" horiz-adv-x="913" d="M115 539q0 274 112.5 416.5t327.5 142.5q79 0 143.5 -12t89.5 -24l25 -13q0 -72 -45 -111q-71 35 -186 35q-163 0 -238.5 -107t-75.5 -327t78 -324t244 -104q53 0 102.5 9.5t72.5 19.5l23 10q45 -35 48 -109q-11 -7 -31.5 -17t-93.5 -27t-156 -17q-215 0 -327.5 142.5 t-112.5 416.5z" />
<glyph unicode="d" d="M117 539q0 154 27 263.5t80 173.5t123 93t163 29q217 0 315 -160v588q23 10 74 10q23 0 41.5 -2.5t25.5 -5.5l7 -2v-1516q-25 -10 -62 -10q-17 0 -33.5 2.5t-23.5 5.5l-8 2l-15 137q-97 -167 -321 -167q-93 0 -163 29t-123 93t-80 173.5t-27 263.5zM270 539 q0 -161 31.5 -257t93.5 -137t164 -41q83 0 145 45.5t91.5 114t29.5 146.5v262q-2 121 -73 211t-193 90q-153 0 -221 -98t-68 -336z" />
<glyph unicode="e" horiz-adv-x="1048" d="M115 545q0 280 117.5 416.5t322.5 136.5q185 0 285 -104.5t100 -291.5q0 -56 -5.5 -108.5t-10.5 -77.5l-6 -24h-650q10 -206 87 -293.5t231 -87.5q69 0 131.5 16.5t90.5 33.5l28 17q50 -40 53 -108q-5 -4 -13.5 -10t-40 -21.5t-67 -27.5t-93 -21.5t-118.5 -9.5 q-220 0 -331 143t-111 422zM268 602h520q7 49 7 117q0 114 -58 186t-182 72q-128 0 -203 -91t-84 -284z" />
<glyph unicode="f" horiz-adv-x="708" d="M66 1020q0 33 8 57h139v123q0 162 73.5 249t250.5 87q55 0 107 -9t76 -17l25 -9q0 -67 -38 -108q-64 22 -158 22q-109 0 -149 -49.5t-40 -155.5v-133h289q10 -35 10 -59q0 -22 -10 -57h-289v-951q-22 -10 -73 -10q-23 0 -41.5 2.5t-25.5 5.5l-7 2v951h-139q-8 28 -8 59z " />
<glyph unicode="g" horiz-adv-x="1075" d="M74 -221q0 57 20 108.5t52 88.5t57.5 59.5t50.5 38.5q-47 47 -47 119q0 107 96 225q-89 41 -135.5 123t-46.5 196q0 169 101.5 265t285.5 96q128 0 221 -49l279 47q10 -26 10 -61.5t-10 -63.5l-185 -4q72 -87 72 -230q0 -169 -100 -263.5t-287 -94.5q-70 0 -109 10 q-55 -71 -55 -146v-5q3 -42 41 -66t96.5 -34t128.5 -17.5t140 -22.5t127 -42t93 -84.5t36 -141.5q0 -148 -135.5 -245t-376.5 -97q-211 0 -315.5 80t-104.5 211zM221 -193q0 -95 70.5 -151.5t206.5 -56.5q168 0 266 59t98 156q0 59 -34.5 96t-95 52.5t-123.5 23t-140.5 17.5 t-124.5 26q-57 -40 -90 -99.5t-33 -122.5zM266 739q0 -124 65.5 -188t176.5 -64q112 0 177 64t65 188q0 123 -65 186.5t-177 63.5q-111 0 -176.5 -64t-65.5 -186z" />
<glyph unicode="h" horiz-adv-x="1124" d="M164 10v1516q23 10 74 10q22 0 40 -2.5t26 -5.5l7 -2v-588q128 160 340 160q149 0 232.5 -83.5t83.5 -223.5v-781q-27 -10 -74 -10q-23 0 -41.5 2.5t-25.5 5.5l-7 2v752q0 213 -221 213q-86 0 -164 -50t-123 -137v-778q-24 -10 -73 -10q-23 0 -41.5 2.5t-25.5 5.5z" />
<glyph unicode="i" horiz-adv-x="487" d="M160 1311v149q27 10 84 10q24 0 45 -2.5t30 -5.5l9 -2v-149q-29 -11 -84 -11q-25 0 -46 3t-30 5zM170 10v1057q21 10 74 10q22 0 40 -2.5t26 -4.5l7 -3v-1057q-24 -10 -73 -10q-24 0 -42.5 2.5t-25.5 5.5z" />
<glyph unicode="j" horiz-adv-x="487" d="M-102 -459q0 23 4 42t8 27l4 7q33 -8 82 -8q88 0 131 48.5t43 154.5v1255q21 10 74 10q22 0 40 -2.5t26 -4.5l7 -3v-1247q0 -165 -74 -248.5t-212 -83.5q-38 0 -70 4.5t-45 9.5l-12 4q-6 15 -6 35zM160 1315v149q27 11 84 11q24 0 44.5 -2.5t29.5 -5.5l8 -3v-149 q-29 -12 -82 -12q-25 0 -46 3t-30 6z" />
<glyph unicode="k" horiz-adv-x="1019" d="M164 10v1518q29 8 76 8q19 0 37 -2t26 -4l8 -2v-907h174l301 446q29 10 80 10q20 0 38 -2.5t26 -4.5l8 -3l-332 -494l381 -561q-33 -12 -84 -12q-24 0 -45 3t-30 6l-9 3l-336 492h-172v-494q-26 -10 -71 -10q-22 0 -41 2.5t-27 5.5z" />
<glyph unicode="l" horiz-adv-x="495" d="M174 10v1516q21 10 74 10q22 0 40.5 -2.5t25.5 -5.5l8 -2v-1516q-25 -10 -74 -10q-24 0 -42.5 2.5t-25.5 5.5z" />
<glyph unicode="m" horiz-adv-x="1708" d="M164 10v1057q23 10 74 10q22 0 40 -2.5t26 -4.5l7 -3v-127q57 75 139.5 116.5t182.5 41.5q206 0 270 -178q127 178 350 178q140 0 218.5 -83.5t78.5 -223.5v-781q-24 -10 -73 -10q-23 0 -41.5 2.5t-25.5 5.5l-7 2v752q0 213 -203 213q-82 0 -154.5 -49t-115.5 -140v-776 q-25 -10 -74 -10q-23 0 -41.5 2.5t-25.5 5.5l-7 2v752q0 213 -202 213q-79 0 -153 -50.5t-116 -136.5v-778q-24 -10 -73 -10q-23 0 -41.5 2.5t-25.5 5.5z" />
<glyph unicode="n" horiz-adv-x="1124" d="M164 10v1057q23 10 74 10q22 0 40 -2.5t26 -4.5l7 -3v-129q128 160 340 160q149 0 232.5 -83.5t83.5 -223.5v-781q-27 -10 -74 -10q-23 0 -41.5 2.5t-25.5 5.5l-7 2v752q0 213 -221 213q-86 0 -164 -50t-123 -137v-778q-24 -10 -73 -10q-23 0 -41.5 2.5t-25.5 5.5z" />
<glyph unicode="o" horiz-adv-x="1110" d="M117 539q0 294 112 426.5t326 132.5t326 -132.5t112 -426.5t-112 -426.5t-326 -132.5t-326 132.5t-112 426.5zM268 539q0 -126 19.5 -213.5t58.5 -137t89.5 -71t119.5 -21.5t119.5 21.5t89.5 71t58.5 137t19.5 213.5t-19.5 213t-58.5 136.5t-89.5 71t-119.5 21.5 t-119.5 -21.5t-89.5 -71t-58.5 -136.5t-19.5 -213z" />
<glyph unicode="p" horiz-adv-x="1138" d="M164 -479v1546q23 10 74 10q23 0 41 -2.5t25 -4.5l7 -3v-129q94 160 316 160q93 0 163 -29t123 -93t80 -173.5t27 -263.5t-27 -263.5t-80 -173.5t-123 -93t-163 -29q-222 0 -316 159v-618q-22 -10 -73 -10q-23 0 -41.5 2.5t-25.5 4.5zM311 410q0 -78 29.5 -146.5t92 -114 t145.5 -45.5q153 0 220.5 98t67.5 337t-67 336.5t-221 97.5q-123 0 -194 -88.5t-73 -210.5v-264z" />
<glyph unicode="q" horiz-adv-x="1138" d="M119 539q0 154 27 263.5t80 173.5t123 93t163 29q217 0 315 -160v129q21 10 72 10q23 0 42 -2.5t27 -4.5l7 -3v-1546q-23 -10 -74 -10q-23 0 -41.5 2.5t-25.5 4.5l-7 3v618q-97 -159 -315 -159q-93 0 -163 29t-123 93t-80 173.5t-27 263.5zM272 539q0 -161 31.5 -257 t93.5 -137t164 -41q119 0 190 87t76 206v277q-3 122 -74 210.5t-192 88.5q-153 0 -221 -98t-68 -336z" />
<glyph unicode="r" horiz-adv-x="800" d="M164 10v1057q23 10 74 10q23 0 41 -2.5t25 -4.5l7 -3v-168q107 197 277 197q97 0 176 -49q-9 -77 -68 -125q-64 41 -139 41q-69 0 -134 -55.5t-112 -149.5v-748q-22 -10 -73 -10q-23 0 -41.5 2.5t-25.5 5.5z" />
<glyph unicode="s" horiz-adv-x="909" d="M111 49v9q0 66 41 102q15 -6 41 -14.5t99.5 -22.5t137.5 -14q109 0 172.5 45t63.5 137q0 46 -18.5 79t-56 54.5t-72.5 34t-90 28.5q-13 3 -19 5q-51 15 -86.5 28t-78.5 37t-69.5 53t-44.5 74.5t-18 101.5q0 143 94 227.5t276 84.5q81 0 150 -13t98 -25l29 -13 q2 -31 -9 -61t-32 -48q-98 35 -219 35q-120 0 -182 -46t-62 -134q0 -32 15 -59t31.5 -43t57.5 -34t61.5 -25t74.5 -23q11 -3 16 -5q46 -14 73.5 -24t68 -28.5t64.5 -40t48.5 -52t35.5 -72t11 -92.5q0 -150 -95 -232.5t-280 -82.5q-57 0 -112 7t-92 17t-66 20.5t-43 17.5z " />
<glyph unicode="t" horiz-adv-x="753" d="M57 1018q0 18 3 33t6 21l2 5h159v195q49 34 122 34q13 0 26 -1v-228h293q10 -20 10 -57q0 -16 -2.5 -31t-5.5 -21l-2 -7h-293v-588q0 -149 48 -210t169 -61q23 0 48 3t38 5l14 3q13 -25 13 -62q0 -16 -2.5 -29.5t-4.5 -19.5l-2 -6q-53 -16 -143 -16q-176 0 -251 96 t-75 291v594h-159q-11 20 -11 57z" />
<glyph unicode="u" horiz-adv-x="1122" d="M156 287v780q26 10 73 10q23 0 41.5 -2.5t25.5 -4.5l7 -3v-752q0 -213 223 -213q83 0 161 49.5t124 137.5v778q25 10 74 10q23 0 41 -2.5t25 -4.5l7 -3v-1057q-22 -10 -73 -10q-22 0 -40.5 2.5t-26.5 5.5l-7 2v129q-61 -76 -148.5 -117.5t-191.5 -41.5q-149 0 -232 83.5 t-83 223.5z" />
<glyph unicode="v" horiz-adv-x="1044" d="M51 1067q27 10 78 10q24 0 43.5 -2.5t27.5 -4.5l7 -3l256 -700q18 -50 33.5 -103t21.5 -80l6 -28h6q23 94 64 209l256 702q23 10 68 10q21 0 38.5 -2.5t25.5 -4.5l7 -3l-381 -1057q-35 -10 -84 -10q-24 0 -45 2.5t-30 5.5l-9 2z" />
<glyph unicode="w" horiz-adv-x="1626" d="M59 1067q25 10 74 10q23 0 40 -2.5t23 -4.5l5 -3l225 -717q26 -87 41 -186h6q13 90 45 186l225 717q33 10 78 10q22 0 40.5 -2.5t26.5 -4.5l7 -3l221 -713q24 -76 41 -190h6q10 70 47 188l224 715q24 10 67 10q21 0 37.5 -2.5t22.5 -4.5l6 -3l-328 -1057q-57 -10 -80 -10 t-80 10l-198 629q-58 194 -62 272h-6q-10 -96 -68 -272l-198 -629q-45 -10 -78 -10q-32 0 -82 10z" />
<glyph unicode="x" horiz-adv-x="1011" d="M47 10l371 539l-355 518q29 10 82 10q24 0 45 -2.5t30 -4.5l9 -3l285 -410l281 410q22 10 73 10q23 0 43 -2.5t29 -4.5l8 -3l-356 -514l373 -543q-27 -10 -82 -10q-24 0 -45 2.5t-30 5.5l-9 2l-301 434l-297 -434q-25 -10 -78 -10q-22 0 -41 2.5t-27 5.5z" />
<glyph unicode="y" horiz-adv-x="1071" d="M51 1067q27 10 78 10q23 0 42.5 -2.5t27.5 -4.5l8 -3l276 -702q22 -56 40.5 -111t26.5 -82l7 -27h6q23 91 66 220l241 702q23 10 74 10q21 0 39.5 -2.5t26.5 -4.5l8 -3l-434 -1266q-21 -64 -40.5 -108.5t-46.5 -86t-58.5 -65.5t-75 -38.5t-97.5 -14.5q-27 0 -53 4t-39 8 l-12 4q-12 24 -12 58q0 21 5 39t9 22q39 -10 88 -10q69 0 111.5 44t85.5 173l61 172q-22 0 -49 10z" />
<glyph unicode="z" horiz-adv-x="944" d="M84 66q0 39 10 59l580 827h-539q-10 23 -10 64q0 18 2.5 33.5t4.5 21.5l3 6h696q11 -33 11 -59q0 -28 -11 -66l-579 -827h582q12 -21 12 -64q0 -17 -3 -32.5t-6 -22.5l-3 -6h-740q-10 23 -10 66z" />
<glyph unicode="{" horiz-adv-x="704" d="M70 684q0 31 10 61h63q43 0 64.5 27.5t21.5 71.5v542q0 126 69.5 199.5t201.5 73.5h118q9 -27 9 -60q0 -5 -9 -59h-90q-159 0 -159 -158v-501q0 -72 -16.5 -118.5t-57.5 -76.5q41 -29 57.5 -76t16.5 -118v-504q0 -158 159 -158h90q9 -27 9 -59q0 -33 -9 -60h-118 q-132 0 -201.5 73.5t-69.5 199.5v544q0 44 -21 70.5t-65 26.5h-63q-10 30 -10 59z" />
<glyph unicode="|" horiz-adv-x="540" d="M197 -393v2001q20 10 73 10q22 0 40.5 -2.5t25.5 -5.5l8 -2v-2001q-25 -10 -74 -10q-24 0 -42 2.5t-24 4.5z" />
<glyph unicode="}" horiz-adv-x="706" d="M78 -231q0 31 10 61h88q160 0 160 158v504q0 139 72 192q-72 56 -72 197v501q0 158 -160 158h-88q-10 30 -10 59q0 30 10 60h117q133 0 202.5 -73t69.5 -200v-542q0 -44 21.5 -71.5t64.5 -27.5h62q10 -30 10 -59q0 -41 -10 -61h-62q-44 0 -65 -26.5t-21 -70.5v-544 q0 -127 -69.5 -200t-202.5 -73h-117q-10 30 -10 58z" />
<glyph unicode="~" horiz-adv-x="1091" d="M158 596q3 5 8 13t25.5 28t44 35.5t64.5 28t87 12.5q45 0 89 -16.5t74 -36t73 -36t86 -16.5q44 0 81.5 18.5t53.5 37.5l16 18q61 -16 74 -76q-3 -5 -8 -13t-25 -28.5t-44.5 -36t-66 -28.5t-88.5 -13q-45 0 -89 16.5t-74 36t-72.5 36t-85.5 16.5q-27 0 -53 -7.5t-43 -18.5 t-30.5 -22t-19.5 -18l-6 -8q-61 15 -71 78z" />
<glyph unicode="&#xa1;" horiz-adv-x="507" d="M170 901v150q29 10 84 10q25 0 46 -2.5t30 -4.5l8 -3v-150q-27 -10 -84 -10q-24 0 -45 2.5t-30 4.5zM174 -403l25 1103q18 11 55 11q16 0 29.5 -2.5t19.5 -5.5l6 -3l25 -1103q-17 -11 -80 -11q-27 0 -47 3t-27 5z" />
<glyph unicode="&#xa2;" horiz-adv-x="952" d="M125 539q0 254 97 395t284 160l-10 190q36 12 65 12q40 0 64 -12l-13 -188q64 -3 116.5 -14.5t73.5 -21.5l21 -11q0 -65 -45 -107q-71 35 -186 35q-162 0 -237.5 -108.5t-75.5 -329.5t78 -328t243 -107q53 0 102.5 10.5t73.5 20.5l23 10q44 -37 47 -104 q-9 -6 -26.5 -14.5t-78.5 -24.5t-129 -20l13 -189q-21 -14 -66 -14q-22 0 -40.5 5t-22.5 9l10 191q-186 17 -283.5 158.5t-97.5 396.5z" />
<glyph unicode="&#xa3;" horiz-adv-x="1071" d="M117 690q0 48 10 58h135q-63 176 -63 296q0 189 113.5 280t310.5 91q181 0 327 -61q6 -73 -47 -111q-130 45 -260 45q-138 0 -213.5 -61.5t-75.5 -188.5q0 -23 3.5 -50t6 -44.5t12.5 -52t12.5 -44.5t16.5 -52.5t15 -46.5h389q10 -20 10 -56q0 -44 -10 -59h-358 q17 -65 21 -121.5t-6 -121t-47.5 -129t-101.5 -126.5h627q12 -12 12 -67q0 -56 -12 -68h-797v135q73 66 114.5 131.5t52 129t5.5 117t-24 120.5h-168q-10 20 -10 57z" />
<glyph unicode="&#xa4;" horiz-adv-x="1206" d="M129 160l154 151q-84 109 -84 244q0 132 84 244l-154 151q4 24 29 51q13 12 25.5 18.5t18.5 7.5l7 1l151 -149q109 82 244 82q133 0 242 -84l151 151q21 0 50 -27q12 -12 19 -24.5t8 -19.5l1 -7l-149 -151q84 -112 84 -244q0 -134 -84 -246l151 -149q1 -24 -26 -51 q-12 -13 -25 -20t-20 -8l-7 -1l-151 151q-108 -81 -244 -81q-138 0 -246 81l-149 -151q-24 2 -51 31q-12 12 -19 24t-9 19zM309 555q0 -124 86 -209.5t209 -85.5q124 0 209.5 85t85.5 210t-85.5 210t-209.5 85q-123 0 -209 -85.5t-86 -209.5z" />
<glyph unicode="&#xa5;" horiz-adv-x="1251" d="M70 1389q27 12 82 12q24 0 43.5 -3t27.5 -6l8 -3l392 -668l411 670q27 10 78 10q21 0 40 -2.5t28 -4.5l8 -3l-453 -727h293q8 -20 8 -50q0 -27 -8 -51h-342v-155h342q8 -16 8 -50q0 -27 -8 -51h-342v-295q-21 -12 -70 -12q-21 0 -38 3t-24 6l-7 3v295h-344q-8 24 -8 53 q0 28 8 48h344v155h-344q-8 24 -8 51q0 30 8 50h295z" />
<glyph unicode="&#xa6;" horiz-adv-x="516" d="M182 86v1063q23 10 76 10q22 0 41 -2.5t27 -4.5l8 -3v-1063q-27 -10 -76 -10q-24 0 -43 2.5t-26 5.5z" />
<glyph unicode="&#xa7;" horiz-adv-x="987" d="M135 698q0 133 141 238q-120 70 -120 209q0 132 93.5 200t260.5 68q156 0 281 -45q5 -26 -3.5 -55t-29.5 -45q-25 8 -91.5 20t-129.5 12q-246 0 -246 -153q0 -45 31 -77.5t80 -52t108.5 -36t119.5 -37t109 -48t80 -76.5t31 -115q0 -129 -131 -228q143 -78 143 -221 q0 -75 -30.5 -130t-86.5 -86t-125 -45.5t-155 -14.5q-83 0 -164 12.5t-121 25.5l-39 13q-11 68 33 104q17 -5 52 -13t99 -17t117 -9q137 0 207 38t70 124q0 39 -25 69t-66 47t-93.5 34t-107.5 30t-107.5 35t-93.5 49t-66 72t-25 104zM266 717q0 -32 15.5 -57.5t37.5 -41.5 t60 -31t69.5 -23.5t81.5 -21.5t80 -22q24 19 35 29t31.5 33t30.5 48.5t10 55.5q0 31 -15 56t-37 41t-59 31t-68.5 24t-79 23t-77.5 24q-115 -79 -115 -168z" />
<glyph unicode="&#xa8;" horiz-adv-x="931" d="M221 1262v133q25 10 76 10q22 0 40.5 -2.5t26.5 -4.5l7 -3v-133q-25 -11 -74 -11q-23 0 -42 2.5t-27 5.5zM545 1262v133q25 10 76 10q22 0 40 -2.5t25 -4.5l8 -3v-133q-24 -11 -73 -11q-23 0 -42 2.5t-27 5.5z" />
<glyph unicode="&#xa9;" horiz-adv-x="1646" d="M125 696q0 190 93 351t254 254.5t351 93.5t351 -93.5t254.5 -254.5t93.5 -351t-93.5 -351t-254.5 -254t-351 -93q-143 0 -272 55t-222.5 148.5t-148.5 222.5t-55 272zM227 696q0 -161 80 -298.5t217.5 -217.5t298.5 -80q121 0 231.5 47.5t189.5 127.5t126 190t47 231 q0 161 -79 298t-216 216.5t-299 79.5q-161 0 -298.5 -79.5t-217.5 -216.5t-80 -298zM475 711q0 201 88.5 304t263.5 103q60 0 113 -11t76 -23l22 -11q0 -52 -37 -84q-77 35 -159 35q-127 0 -188.5 -73t-61.5 -240q0 -160 63.5 -235t186.5 -75q40 0 82 7.5t64 14.5l22 7 q39 -24 39 -82q-9 -5 -26.5 -13t-75 -21t-120.5 -13q-173 0 -262.5 106t-89.5 304z" />
<glyph unicode="&#xaa;" horiz-adv-x="739" d="M115 809q0 197 237 197q73 0 154 -9v66q0 70 -34 103.5t-105 33.5q-40 0 -83 -8t-66 -16l-23 -7q-31 31 -31 76q98 45 215 45q119 0 174 -55t55 -166v-442q-14 -9 -43 -9q-11 0 -21.5 2t-15.5 4l-4 3l-12 75q-61 -96 -203 -96q-89 0 -141.5 53t-52.5 150zM125 412 q-12 47 0 88h477q13 -42 0 -88h-477zM217 809q0 -119 121 -119q76 0 121 49.5t47 130.5v52q-3 0 -53.5 3t-87.5 3q-148 0 -148 -119z" />
<glyph unicode="&#xab;" horiz-adv-x="1038" d="M100 549q0 18 3 34.5t7 23.5l3 7l417 428q41 -28 52 -92l-353 -397l353 -399q-11 -65 -52 -93l-417 426q-13 23 -13 62zM469 549q0 17 2.5 32.5t4.5 22.5l3 6l387 396q40 -27 47 -88l-319 -365l319 -367q-7 -61 -47 -88l-387 394q-10 20 -10 57z" />
<glyph unicode="&#xac;" horiz-adv-x="1232" d="M117 834q0 18 3.5 34.5t7.5 23.5l3 7h936v-528q-25 -15 -66 -15q-18 0 -34 4t-23 8l-6 3v401h-807q-14 25 -14 62z" />
<glyph unicode="&#xad;" horiz-adv-x="536" />
<glyph unicode="&#xae;" horiz-adv-x="1093" d="M115 965q0 117 58 216.5t157.5 157.5t216.5 58t216.5 -58t157.5 -157.5t58 -216.5q0 -179 -127 -306t-305 -127t-305 127t-127 306zM182 965q0 -152 107 -258.5t258 -106.5q152 0 258 106.5t106 258.5t-106 258t-258 106q-151 0 -258 -106t-107 -258zM397 745v461h183 q73 0 112 -37t39 -102q0 -98 -90 -127l119 -190q-16 -11 -41 -11q-10 0 -19.5 1.5t-13.5 3.5l-4 1l-117 189h-100v-189q-17 -6 -35 -6q-9 0 -17 1.5t-12 3.5zM465 991h110q87 0 87 76q0 82 -87 82h-110v-158z" />
<glyph unicode="&#xaf;" horiz-adv-x="833" d="M96 1290q-22 52 0 101h615q18 -44 0 -101h-615z" />
<glyph unicode="&#xb0;" horiz-adv-x="733" d="M113 1264q0 101 69.5 177.5t188.5 76.5q118 0 184 -74t66 -174q0 -101 -66 -174.5t-184 -73.5q-123 0 -190.5 71t-67.5 171zM201 1266q0 -68 43 -116t125 -48q80 0 121.5 48.5t41.5 117.5q0 70 -41.5 119t-121.5 49t-124 -50.5t-44 -119.5z" />
<glyph unicode="&#xb1;" horiz-adv-x="1048" d="M160 336q0 16 2.5 30.5t5.5 20.5l2 6h711q8 -20 8 -57q0 -16 -2 -30.5t-4 -20.5l-2 -6h-711q-10 20 -10 57zM160 823q0 16 2.5 30.5t5.5 20.5l2 7h297v237q20 8 57 8q16 0 30.5 -2t21.5 -4l6 -2v-237h299q8 -21 8 -58q0 -16 -2 -30.5t-4 -20.5l-2 -6h-299v-236 q-21 -10 -58 -10q-16 0 -30.5 2.5t-20.5 5.5l-6 2v236h-297q-10 20 -10 57z" />
<glyph unicode="&#xb2;" horiz-adv-x="612" d="M66 793q0 57 20 101.5t52.5 73.5t71.5 52.5t78 43t71.5 40.5t52.5 50.5t20 66.5q0 52 -39 83t-119 31q-41 0 -84 -7.5t-55 -12.5q-30 38 -24 78q75 28 184 28q117 0 178.5 -51.5t61.5 -142.5q0 -50 -19 -89.5t-50 -65t-68.5 -47.5t-75.5 -42.5t-71 -44t-55.5 -59 t-27.5 -80.5h350q10 -23 10 -45t-10 -45h-444q-8 37 -8 84z" />
<glyph unicode="&#xb3;" horiz-adv-x="614" d="M70 733q0 50 28 72q68 -21 154 -21q100 0 139 33t39 92q0 125 -147 125h-93q-16 42 0 84h93q125 0 125 107q0 110 -142 110q-38 0 -76.5 -4.5t-57.5 -8.5l-19 -5q-28 28 -25 74q73 30 184 30q115 0 177.5 -48t62.5 -136q0 -58 -21.5 -96t-70.5 -62q56 -23 85.5 -65 t29.5 -113q0 -203 -279 -203q-50 0 -96.5 8.5t-67.5 17.5z" />
<glyph unicode="&#xb4;" horiz-adv-x="458" d="M53 1360l213 295q39 3 76.5 -14t54.5 -46l-256 -284q-65 7 -88 49z" />
<glyph unicode="&#xb5;" horiz-adv-x="1185" d="M188 -29v1096q25 10 74 10q24 0 42.5 -2.5t25.5 -4.5l6 -3v-754q0 -211 223 -211q90 0 167 54.5t118 132.5v778q23 10 74 10q23 0 41 -2.5t25 -4.5l7 -3v-1057q-22 -10 -73 -10q-23 0 -41.5 2.5t-25.5 5.5l-7 2v121q-116 -151 -307 -151q-144 0 -222 86q7 -177 25 -313 t32 -183l15 -47q-28 -25 -76 -32.5t-84 5.5q-4 15 -10.5 46.5t-17.5 154t-11 274.5z" />
<glyph unicode="&#xb6;" horiz-adv-x="1060" d="M63 1130q3 124 81.5 213t217.5 89h111v-1889q-20 -8 -59 -8q-20 0 -35.5 2t-20.5 4l-6 2v1288q-138 3 -213.5 91t-75.5 208zM735 -457v1880q19 9 60 9q18 0 33.5 -2t21.5 -4l6 -3v-1880q-20 -8 -61 -8q-18 0 -33 2t-21 4z" />
<glyph unicode="&#xb7;" horiz-adv-x="458" d="M154 516v133q24 10 75 10q22 0 41 -2.5t27 -4.5l8 -3v-133q-27 -12 -76 -12q-23 0 -41.5 3t-25.5 6z" />
<glyph unicode="&#xb8;" horiz-adv-x="606" d="M96 -397q0 47 35 71q64 -32 143 -32q142 0 142 118q0 107 -127 107h-72l-20 24l36 201l89 -18l-23 -127q114 0 167.5 -50t53.5 -139q0 -100 -61 -151t-178 -51q-50 0 -96.5 12t-67.5 24z" />
<glyph unicode="&#xb9;" horiz-adv-x="495" d="M53 1270q136 36 223 133q19 8 52 8q23 0 47 -8v-688q-18 -6 -47 -6q-36 0 -54 6v483q0 57 2 82q-88 -71 -198 -94q-14 14 -21 37.5t-4 46.5z" />
<glyph unicode="&#xba;" horiz-adv-x="772" d="M117 948q0 179 66 260.5t202 81.5q137 0 204.5 -81t67.5 -261q0 -181 -67.5 -262.5t-204.5 -81.5q-136 0 -202 81.5t-66 262.5zM137 457q0 28 6 43h484q8 -20 8 -43q0 -25 -8 -45h-484q-6 15 -6 45zM223 948q0 -143 37 -199.5t125 -56.5q87 0 125.5 57t38.5 199 q0 140 -39 198t-125 58q-87 0 -124.5 -57.5t-37.5 -198.5z" />
<glyph unicode="&#xbb;" horiz-adv-x="1036" d="M123 186l319 367l-319 365q11 64 47 88l387 -396q10 -22 10 -61q0 -16 -2.5 -30.5t-4.5 -20.5l-3 -6l-387 -394q-36 24 -47 88zM455 154l352 399l-352 397q11 62 51 92l420 -428q10 -24 10 -65q0 -17 -2.5 -32.5t-5.5 -22.5l-2 -7l-420 -426q-40 30 -51 93z" />
<glyph unicode="&#xbc;" horiz-adv-x="1345" d="M74 1270q136 36 223 133q19 8 51 8q19 0 47 -8v-688q-21 -6 -47 -6q-37 0 -55 6v483q0 57 2 82q-84 -71 -197 -94q-31 28 -24 84zM221 -12l795 1439q16 11 55 11q17 0 31 -3t19 -5l5 -3l-792 -1439q-21 -8 -58 -8q-15 0 -28.5 2t-19.5 4zM715 213q0 23 6 35l350 446 q24 8 49 8q29 0 49 -8v-432h84q7 -35 7 -41q0 -11 -7 -39h-84v-176q-36 -6 -43 -6q-11 0 -47 6v176h-358q-6 18 -6 31zM834 262h245v311z" />
<glyph unicode="&#xbd;" horiz-adv-x="1458" d="M74 1270q136 36 223 133q19 8 51 8q19 0 47 -8v-688q-21 -6 -47 -6q-37 0 -55 6v483q0 57 2 82q-84 -71 -197 -94q-31 28 -24 84zM221 -12l795 1439q16 11 55 11q17 0 31 -3t19 -5l5 -3l-792 -1439q-21 -8 -58 -8q-15 0 -28.5 2t-19.5 4zM889 84q0 57 20 101.5t52.5 73.5 t71.5 52.5t78 43t71.5 40.5t52.5 50.5t20 66.5q0 53 -37.5 84t-115.5 31q-43 0 -87 -8t-57 -13q-27 34 -24 78q75 29 184 29q117 0 179.5 -52t62.5 -143q0 -50 -19 -89.5t-50 -65t-69 -47.5t-76.5 -42.5t-71 -44t-55.5 -59t-28 -80.5h350q11 -19 11 -45t-11 -45h-444 q-8 37 -8 84z" />
<glyph unicode="&#xbe;" horiz-adv-x="1449" d="M102 733q-2 19 6 39.5t21 32.5q70 -21 156 -21q100 0 139 33t39 92q0 125 -148 125h-92q-19 42 0 84h92q62 0 93.5 28t31.5 79q0 110 -141 110q-38 0 -77 -4.5t-59 -8.5l-20 -5q-25 25 -22 74q73 30 184 30q114 0 176 -48t62 -136q0 -59 -21 -96.5t-71 -61.5 q57 -23 85.5 -64.5t28.5 -113.5q0 -203 -276 -203q-50 0 -97 8.5t-68 17.5zM326 -12l794 1439q17 11 56 11q17 0 31 -3t19 -5l5 -3l-793 -1439q-20 -8 -57 -8q-15 0 -28.5 2t-20.5 4zM819 215q0 21 6 33l351 446q24 8 49 8q29 0 49 -8v-432h84q6 -30 6 -41q0 -15 -6 -39h-84 v-176q-36 -6 -43 -6q-11 0 -47 6v176h-359q-6 24 -6 33zM938 262h246v311z" />
<glyph unicode="&#xbf;" horiz-adv-x="868" d="M88 -8q0 82 21 147t54 107t73 78t80.5 70.5t73.5 73.5t54 98t21 134q18 13 57 13q17 0 32.5 -3.5t22.5 -6.5l7 -3q0 -92 -19 -163.5t-49 -116t-66.5 -81t-73 -68t-66.5 -66t-49 -86.5t-19 -119q0 -106 65 -163.5t195 -57.5q71 0 134.5 12.5t91.5 24.5l28 12 q54 -38 47 -109q-14 -8 -40 -19t-110 -29.5t-172 -18.5q-185 0 -289 90.5t-104 249.5zM440 905v150q29 10 82 10q25 0 46 -2.5t30 -4.5l8 -3v-150q-27 -10 -84 -10q-24 0 -44.5 2.5t-29.5 4.5z" />
<glyph unicode="&#xc0;" horiz-adv-x="1327" d="M37 12l543 1450q33 13 84 13q24 0 45 -3.5t30 -6.5l9 -3l542 -1450q-27 -12 -84 -12q-22 0 -40 3t-26 6l-7 3l-148 391h-653l-150 -391q-24 -12 -73 -12q-22 0 -40 3t-25 6zM377 530h563l-238 627q-13 36 -23 71.5t-13 52.5l-4 17h-7q-12 -61 -41 -141zM436 1829 q17 27 56 44.5t75 14.5l213 -295q-26 -43 -88 -49z" />
<glyph unicode="&#xc1;" horiz-adv-x="1325" d="M37 12l541 1450q33 13 84 13q24 0 44.5 -3.5t29.5 -6.5l9 -3l543 -1450q-27 -12 -84 -12q-22 0 -40.5 3t-25.5 6l-8 3l-147 391h-653l-150 -391q-25 -12 -74 -12q-22 0 -39 3t-23 6zM375 530h563l-238 627q-13 36 -23 71.5t-14 52.5l-4 17h-6q-12 -61 -41 -141zM559 1595 l213 295q39 3 76.5 -13.5t54.5 -45.5l-256 -285q-65 7 -88 49z" />
<glyph unicode="&#xc2;" horiz-adv-x="1325" d="M37 12l541 1450q33 13 84 13q24 0 44.5 -3.5t29.5 -6.5l9 -3l543 -1450q-27 -12 -84 -12q-22 0 -40.5 3t-25.5 6l-8 3l-147 391h-653l-150 -391q-25 -12 -74 -12q-22 0 -39 3t-23 6zM360 1634l271 221h53l270 -221q-24 -57 -69 -71l-230 161l-225 -161q-52 19 -70 71z M375 530h563l-238 627q-13 36 -23 71.5t-14 52.5l-4 17h-6q-12 -61 -41 -141z" />
<glyph unicode="&#xc3;" horiz-adv-x="1325" d="M37 12l541 1450q33 13 84 13q24 0 44.5 -3.5t29.5 -6.5l9 -3l543 -1450q-27 -12 -84 -12q-22 0 -40.5 3t-25.5 6l-8 3l-147 391h-653l-150 -391q-25 -12 -74 -12q-22 0 -39 3t-23 6zM375 530h563l-238 627q-13 36 -23 71.5t-14 52.5l-4 17h-6q-12 -61 -41 -141zM385 1626 l5.5 11t17.5 25.5t31 33t45.5 26.5t60.5 13q47 2 87.5 -16.5t75.5 -37t68 -16.5q25 0 45.5 13.5t28.5 27.5l8 14q56 -7 80 -51q-2 -4 -6 -11t-19 -24.5t-32.5 -31.5t-47 -25t-61.5 -12q-47 -2 -87 16t-74 36t-66 17q-27 -1 -48 -15t-29 -28l-7 -14q-62 7 -76 49z" />
<glyph unicode="&#xc4;" horiz-adv-x="1327" d="M37 12l543 1450q33 13 84 13q24 0 45 -3.5t30 -6.5l9 -3l542 -1450q-27 -12 -84 -12q-22 0 -40 3t-26 6l-7 3l-148 391h-653l-150 -391q-24 -12 -73 -12q-22 0 -40 3t-25 6zM377 530h563l-238 627q-13 36 -23 71.5t-13 52.5l-4 17h-7q-12 -61 -41 -141zM422 1569v135 q25 8 76 8q22 0 40.5 -2t26.5 -4l8 -2v-135q-26 -8 -75 -8q-23 0 -42 2t-26 4zM745 1569v135q25 8 76 8q22 0 41 -2t27 -4l8 -2v-135q-27 -8 -76 -8q-23 0 -42 2t-27 4z" />
<glyph unicode="&#xc5;" horiz-adv-x="1327" d="M37 12l526 1407q-65 19 -103 72t-38 129q0 102 70.5 160.5t169.5 58.5q97 0 168 -58t71 -161q0 -74 -38 -125t-99 -72l524 -1411q-25 -12 -82 -12q-22 0 -40 3t-26 6l-7 3l-148 391h-653l-150 -391q-24 -12 -73 -12q-22 0 -40 3t-25 6zM377 530h563l-238 627 q-13 36 -23 71.5t-13 52.5l-4 17h-7q-12 -61 -41 -141zM518 1620q0 -57 36.5 -97t104.5 -40t107 41t39 96q0 56 -38.5 94.5t-107.5 38.5q-68 0 -104.5 -39t-36.5 -94z" />
<glyph unicode="&#xc6;" horiz-adv-x="1757" d="M18 12l887 1463h725q27 -59 0 -127h-569v-539h467q22 -65 0 -127h-467v-555h590q12 -31 12 -66t-12 -61h-733v389h-512l-226 -377q-34 -12 -82 -12q-53 0 -80 12zM481 516h437v727z" />
<glyph unicode="&#xc7;" horiz-adv-x="1144" d="M129 737q0 376 143 567t428 191q100 0 186.5 -17t123.5 -34l37 -17q5 -26 -9 -61q-7 -16 -17 -29.5t-16 -18.5l-6 -5q-13 6 -37 14.5t-97 22.5t-146 14q-80 0 -143.5 -18t-118 -62.5t-91 -115.5t-57 -180t-20.5 -253q0 -179 30.5 -303t89.5 -192.5t134 -97.5t176 -29 q80 0 155.5 12.5t111.5 25.5l36 13q21 -14 37 -49q6 -16 8.5 -32.5t2.5 -24.5l-1 -9q-5 -3 -15 -7.5t-44 -16t-72.5 -20.5t-100.5 -16.5t-128 -8.5l-15 -74q114 0 167.5 -50t53.5 -139q0 -100 -61 -151t-178 -51q-50 0 -96 11.5t-67 23.5l-21 12q0 47 34 71q64 -32 144 -32 q141 0 141 118q0 107 -127 107h-72l-20 24l24 136q-487 53 -487 751z" />
<glyph unicode="&#xc8;" d="M197 0v1475h813q12 -27 12 -62q0 -38 -12 -65h-662v-539h559q13 -29 13 -59q0 -34 -13 -66h-559v-557h682q12 -27 12 -61q0 -36 -12 -66h-833zM365 1829q17 27 56 44.5t75 14.5l213 -295q-26 -43 -88 -49z" />
<glyph unicode="&#xc9;" d="M197 0v1475h813q12 -27 12 -62q0 -38 -12 -65h-662v-539h559q13 -29 13 -59q0 -34 -13 -66h-559v-557h682q12 -27 12 -61q0 -36 -12 -66h-833zM444 1597l213 295q39 3 76.5 -13.5t54.5 -45.5l-256 -285q-65 7 -88 49z" />
<glyph unicode="&#xca;" d="M197 0v1475h813q12 -27 12 -62q0 -38 -12 -65h-662v-539h559q13 -29 13 -59q0 -34 -13 -66h-559v-557h682q12 -27 12 -61q0 -36 -12 -66h-833zM301 1634l270 221h54l270 -221q-20 -56 -70 -71l-227 161l-225 -161q-51 17 -72 71z" />
<glyph unicode="&#xcb;" d="M197 0v1475h813q12 -27 12 -62q0 -38 -12 -65h-662v-539h559q13 -29 13 -59q0 -34 -13 -66h-559v-557h682q12 -27 12 -61q0 -36 -12 -66h-833zM371 1569v135q24 8 75 8q22 0 40.5 -2t25.5 -4l8 -2v-135q-25 -8 -74 -8q-23 0 -41.5 2t-26.5 4zM694 1569v135q25 8 76 8 q22 0 40.5 -2t25.5 -4l8 -2v-135q-25 -8 -74 -8q-23 0 -42 2t-26 4z" />
<glyph unicode="&#xcc;" horiz-adv-x="544" d="M57 1829q17 27 56 44.5t75 14.5l213 -295q-26 -43 -88 -49zM197 12v1450q24 13 75 13q23 0 42 -3.5t26 -6.5l8 -3v-1450q-27 -12 -76 -12q-24 0 -42.5 3t-25.5 6z" />
<glyph unicode="&#xcd;" horiz-adv-x="544" d="M117 1597l213 295q39 3 76.5 -13.5t54.5 -45.5l-256 -285q-65 7 -88 49zM197 12v1450q24 13 75 13q23 0 42 -3.5t26 -6.5l8 -3v-1450q-27 -12 -76 -12q-24 0 -42.5 3t-25.5 6z" />
<glyph unicode="&#xce;" horiz-adv-x="544" d="M-25 1634l271 221h53l270 -221q-24 -57 -69 -71l-230 161l-225 -161q-49 18 -70 71zM197 12v1450q24 13 75 13q23 0 42 -3.5t26 -6.5l8 -3v-1450q-27 -12 -76 -12q-24 0 -42.5 3t-25.5 6z" />
<glyph unicode="&#xcf;" horiz-adv-x="544" d="M37 1569v135q25 8 76 8q22 0 40 -2t25 -4l8 -2v-135q-24 -8 -73 -8q-23 0 -42 2t-27 4zM197 12v1450q24 13 75 13q23 0 42 -3.5t26 -6.5l8 -3v-1450q-27 -12 -76 -12q-24 0 -42.5 3t-25.5 6zM360 1569v135q25 8 76 8q22 0 40.5 -2t25.5 -4l8 -2v-135q-25 -8 -74 -8 q-23 0 -42 2t-26 4z" />
<glyph unicode="&#xd0;" horiz-adv-x="1372" d="M47 676q-16 57 0 108h168v691h428q149 0 256.5 -37.5t185.5 -123t116 -228.5t38 -349q0 -205 -38 -348t-116 -228t-185.5 -123t-256.5 -38h-428v676h-168zM367 129h264q89 0 155 16t123 56.5t92.5 108.5t55.5 175t20 252q0 146 -20 253t-55.5 175t-92.5 108.5t-123 56.5 t-155 16h-264v-562h319q14 -52 0 -108h-319v-547z" />
<glyph unicode="&#xd1;" horiz-adv-x="1425" d="M197 12v1450q31 13 90 13q26 0 48 -3.5t31 -6.5l9 -3l602 -1030q31 -53 60.5 -112t42.5 -92l14 -33h6q-13 131 -13 305v962q23 13 72 13q23 0 40.5 -3.5t23.5 -6.5l6 -3v-1450q-27 -12 -88 -12q-26 0 -48.5 3t-32.5 6l-9 3l-607 1043q-33 55 -60.5 111t-38.5 85l-11 29 h-6q10 -110 10 -311v-957q-23 -12 -72 -12q-22 0 -39 3t-23 6zM463 1645q2 4 6 10t18.5 22t32 28t46.5 22t61 10q47 0 86 -18t72.5 -36t66.5 -18q27 0 50 13.5t32 26.5l10 13q23 -6 40 -25.5t22 -43.5q-3 -7 -15 -19.5t-32 -29t-52 -28t-67 -11.5q-58 0 -122 34.5t-102 34.5 q-26 0 -49 -14t-33 -28l-10 -13q-52 22 -61 70z" />
<glyph unicode="&#xd2;" horiz-adv-x="1388" d="M131 737q0 385 147 571.5t416 186.5q270 0 416.5 -186t146.5 -572q0 -387 -146 -572t-417 -185t-417 185t-146 572zM291 737q0 -174 28 -297.5t82 -196t125.5 -105t167.5 -32.5t167.5 32.5t126 105t82.5 196t28 297.5t-28 297.5t-82.5 196t-126 105t-167.5 32.5 t-167.5 -32.5t-125.5 -105t-82 -196t-28 -297.5zM510 1829q17 27 56 44.5t75 14.5l203 -284q-24 -43 -88 -50z" />
<glyph unicode="&#xd3;" horiz-adv-x="1388" d="M131 737q0 385 147 571.5t416 186.5q270 0 416.5 -186t146.5 -572q0 -387 -146 -572t-417 -185t-417 185t-146 572zM291 737q0 -174 28 -297.5t82 -196t125.5 -105t167.5 -32.5t167.5 32.5t126 105t82.5 196t28 297.5t-28 297.5t-82.5 196t-126 105t-167.5 32.5 t-167.5 -32.5t-125.5 -105t-82 -196t-28 -297.5zM659 1630l205 285q39 3 76.5 -14t54.5 -46l-247 -274q-66 10 -89 49z" />
<glyph unicode="&#xd4;" horiz-adv-x="1388" d="M131 737q0 385 147 571.5t416 186.5q270 0 416.5 -186t146.5 -572q0 -387 -146 -572t-417 -185t-417 185t-146 572zM291 737q0 -174 28 -297.5t82 -196t125.5 -105t167.5 -32.5t167.5 32.5t126 105t82.5 196t28 297.5t-28 297.5t-82.5 196t-126 105t-167.5 32.5 t-167.5 -32.5t-125.5 -105t-82 -196t-28 -297.5zM401 1634l271 221h53l270 -221q-24 -56 -69 -71l-230 161l-225 -161q-52 19 -70 71z" />
<glyph unicode="&#xd5;" horiz-adv-x="1388" d="M131 737q0 385 147 571.5t416 186.5q270 0 416.5 -186t146.5 -572q0 -387 -146 -572t-417 -185t-417 185t-146 572zM291 737q0 -174 28 -297.5t82 -196t125.5 -105t167.5 -32.5t167.5 32.5t126 105t82.5 196t28 297.5t-28 297.5t-82.5 196t-126 105t-167.5 32.5 t-167.5 -32.5t-125.5 -105t-82 -196t-28 -297.5zM430 1659q2 4 5.5 10t17 22t30.5 28.5t45.5 23.5t61.5 12q59 2 124.5 -30t102.5 -31q27 1 49.5 15.5t31.5 28.5l9 15q22 -8 39 -26t23 -41q-2 -4 -5.5 -10.5t-17 -23t-30.5 -29.5t-45.5 -24t-61.5 -12q-53 -2 -121 31.5 t-106 32.5q-27 -1 -50.5 -16t-33.5 -29l-9 -15q-44 21 -59 68z" />
<glyph unicode="&#xd6;" horiz-adv-x="1388" d="M131 737q0 385 147 571.5t416 186.5q270 0 416.5 -186t146.5 -572q0 -387 -146 -572t-417 -185t-417 185t-146 572zM291 737q0 -174 28 -297.5t82 -196t125.5 -105t167.5 -32.5t167.5 32.5t126 105t82.5 196t28 297.5t-28 297.5t-82.5 196t-126 105t-167.5 32.5 t-167.5 -32.5t-125.5 -105t-82 -196t-28 -297.5zM457 1589v135q24 9 75 9q22 0 41 -2.5t27 -4.5l8 -2v-135q-27 -8 -76 -8q-23 0 -41.5 2t-26.5 4zM780 1589v135q25 9 76 9q22 0 41 -2.5t27 -4.5l8 -2v-135q-27 -8 -76 -8q-23 0 -42 2t-26 4z" />
<glyph unicode="&#xd7;" horiz-adv-x="946" d="M150 354l237 238l-237 237q7 25 36 50q11 13 23.5 22t19.5 11l7 3l237 -237l238 237q24 -7 49 -36q13 -11 22 -23.5t12 -19.5l3 -7l-238 -237l238 -238q-8 -24 -37 -49q-11 -13 -23.5 -22t-18.5 -12l-7 -3l-238 238l-237 -238q-25 8 -50 37q-13 11 -22 23.5t-12 19.5z " />
<glyph unicode="&#xd8;" horiz-adv-x="1386" d="M129 737q0 385 147 571.5t416 186.5q178 0 303 -82l88 154q63 -6 111 -54l-107 -180q168 -186 168 -596q0 -387 -146 -572t-417 -185q-201 0 -327 100l-101 -174q-66 6 -110 53l120 207q-145 190 -145 571zM289 737q0 -271 78 -418l559 977q-93 72 -234 72 q-96 0 -167.5 -32.5t-125.5 -105t-82 -196t-28 -297.5zM436 203q97 -97 256 -97q96 0 167.5 32.5t126 105t82.5 196t28 297.5q0 301 -97 447z" />
<glyph unicode="&#xd9;" horiz-adv-x="1368" d="M186 481v981q27 13 76 13q23 0 42 -3.5t26 -6.5l8 -3v-1003q0 -166 92 -258t258 -92q164 0 255 92t91 258v1003q25 13 74 13q22 0 41 -3.5t27 -6.5l8 -3v-981q0 -238 -136 -369.5t-364 -131.5t-363 133t-135 368zM451 1829q17 27 56 44.5t75 14.5l200 -282 q-24 -40 -88 -50z" />
<glyph unicode="&#xda;" horiz-adv-x="1368" d="M186 481v981q27 13 76 13q23 0 42 -3.5t26 -6.5l8 -3v-1003q0 -166 92 -258t258 -92q164 0 255 92t91 258v1003q25 13 74 13q22 0 41 -3.5t27 -6.5l8 -3v-981q0 -238 -136 -369.5t-364 -131.5t-363 133t-135 368zM551 1597l213 295q39 3 76.5 -13.5t54.5 -45.5l-256 -285 q-65 7 -88 49z" />
<glyph unicode="&#xdb;" horiz-adv-x="1368" d="M186 481v981q27 13 76 13q23 0 42 -3.5t26 -6.5l8 -3v-1003q0 -166 92 -258t258 -92q164 0 255 92t91 258v1003q25 13 74 13q22 0 41 -3.5t27 -6.5l8 -3v-981q0 -238 -136 -369.5t-364 -131.5t-363 133t-135 368zM399 1634l271 221h53l270 -221q-24 -57 -69 -71l-230 161 l-225 -161q-52 19 -70 71z" />
<glyph unicode="&#xdc;" horiz-adv-x="1368" d="M186 481v981q27 13 76 13q23 0 42 -3.5t26 -6.5l8 -3v-1003q0 -166 92 -258t258 -92q164 0 255 92t91 258v1003q25 13 74 13q22 0 41 -3.5t27 -6.5l8 -3v-981q0 -238 -136 -369.5t-364 -131.5t-363 133t-135 368zM449 1593v133q24 11 75 11q22 0 40.5 -2.5t25.5 -5.5 l8 -3v-133q-25 -10 -74 -10q-23 0 -41.5 2.5t-26.5 4.5zM772 1593v133q25 11 76 11q22 0 40.5 -2.5t25.5 -5.5l8 -3v-133q-25 -10 -74 -10q-23 0 -42 2.5t-26 4.5z" />
<glyph unicode="&#xdd;" horiz-adv-x="1286" d="M49 1462q31 13 92 13q25 0 46.5 -3.5t30.5 -6.5l9 -3l422 -686l432 686q25 13 80 13q24 0 45.5 -3.5t31.5 -6.5l9 -3l-530 -841v-609q-25 -12 -74 -12q-24 0 -43.5 3t-27.5 6l-7 3v604zM526 1597l213 295q39 3 76.5 -13.5t54.5 -45.5l-256 -285q-65 7 -88 49z" />
<glyph unicode="&#xde;" horiz-adv-x="1236" d="M197 12v1450q22 13 75 13q24 0 43 -3.5t26 -6.5l7 -3v-276h367q195 0 309.5 -116.5t114.5 -309.5q0 -192 -114.5 -308t-309.5 -116h-367v-324q-25 -12 -76 -12q-24 0 -43 3t-25 6zM348 465h352q133 0 206 78t73 215q0 142 -73 220.5t-206 78.5h-352v-592z" />
<glyph unicode="&#xdf;" horiz-adv-x="1169" d="M164 10v1129q0 397 422 397q97 0 173 -29.5t121.5 -79.5t68.5 -112.5t22 -132.5q0 -96 -43 -193q-9 0 -24 -2t-53 -13.5t-67 -29.5t-53 -55.5t-24 -87.5q0 -44 21 -79.5t54 -61.5t73.5 -51t81 -54t73.5 -64.5t54 -90t21 -121.5q0 -142 -89 -220.5t-246 -78.5 q-63 0 -118 9t-78 18l-24 9q-6 66 35 105q71 -23 160 -23q106 0 161.5 47t55.5 127q0 50 -21 91t-54.5 69.5t-74 55t-81.5 54.5t-74.5 59.5t-54.5 79t-21 105.5q0 47 13 87.5t34.5 67t47 48t51 33.5t47 20t34.5 10l13 3q20 70 20 125q-2 102 -60 168.5t-177 66.5 q-142 0 -207.5 -69.5t-65.5 -206.5v-1129q-22 -10 -73 -10q-23 0 -41.5 2.5t-25.5 5.5z" />
<glyph unicode="&#xe0;" horiz-adv-x="1054" d="M94 307q0 158 97 239t290 81q125 0 269 -17v117q0 126 -58 185t-184 59q-68 0 -140 -12.5t-110 -25.5l-37 -13q-3 2 -8 6t-13.5 15t-13.5 24q-10 26 -10 63q17 8 48.5 19.5t123 31t178.5 19.5q109 0 181.5 -25.5t114 -80t58.5 -128t17 -180.5v-674q-18 -10 -59 -10 q-16 0 -31 2.5t-22 5.5l-7 2l-22 154q-43 -89 -132 -136.5t-212 -47.5q-146 0 -232 85t-86 242zM248 307q0 -106 55.5 -157.5t155.5 -51.5q132 0 211.5 91.5t79.5 232.5v82q-188 16 -248 16q-128 0 -191 -52.5t-63 -160.5zM262 1528q17 27 56 44.5t75 14.5l213 -295 q-26 -43 -88 -49z" />
<glyph unicode="&#xe1;" horiz-adv-x="1054" d="M94 307q0 158 97 239t290 81q125 0 269 -17v115q0 128 -58 187t-184 59q-68 0 -140 -12.5t-110 -25.5l-37 -13q-3 2 -8 6t-13.5 15t-13.5 24q-10 26 -10 63q17 8 48.5 19.5t123 31t178.5 19.5q109 0 181.5 -25.5t114 -80t58.5 -128t17 -180.5v-674q-18 -10 -59 -10 q-16 0 -31 2.5t-22 5.5l-7 2l-22 154q-43 -89 -132 -136.5t-212 -47.5q-146 0 -232 85t-86 242zM248 307q0 -106 55.5 -157.5t155.5 -51.5q132 0 211.5 91.5t79.5 232.5v82q-188 16 -248 16q-128 0 -191 -52.5t-63 -160.5zM387 1292l211 295q39 3 76.5 -13.5t56.5 -45.5 l-256 -285q-65 7 -88 49z" />
<glyph unicode="&#xe2;" horiz-adv-x="1054" d="M94 307q0 158 97 239t290 81q125 0 269 -17v119q0 126 -58.5 184t-183.5 58q-68 0 -140 -12.5t-110 -25.5l-37 -13q-3 2 -8 6t-13.5 15t-13.5 24q-10 26 -10 63q17 8 48.5 19.5t123 31t178.5 19.5q109 0 181.5 -25.5t114 -80t58.5 -128t17 -180.5v-674q-18 -10 -59 -10 q-16 0 -31 2.5t-22 5.5l-7 2l-22 154q-43 -89 -132 -136.5t-212 -47.5q-146 0 -232 85t-86 242zM238 1303l264 217h51l266 -217q-26 -58 -69 -68l-222 156l-223 -158q-44 16 -67 70zM248 307q0 -106 55.5 -157.5t155.5 -51.5q132 0 211.5 91.5t79.5 232.5v82 q-188 16 -248 16q-128 0 -191 -52.5t-63 -160.5z" />
<glyph unicode="&#xe3;" horiz-adv-x="1052" d="M94 307q0 158 97 239t290 81q125 0 269 -17v121q0 128 -58 184t-184 56q-68 0 -140 -12.5t-110 -25.5l-37 -13q-3 2 -8 6t-13.5 15t-13.5 24q-10 24 -10 63q17 8 48.5 19.5t123 31t178.5 19.5q109 0 181.5 -25.5t114 -80t58.5 -128t17 -180.5v-674q-18 -10 -59 -10 q-16 0 -31 2.5t-22 5.5l-7 2l-22 154q-43 -89 -132 -136.5t-212 -47.5q-146 0 -232 85t-86 242zM248 307q0 -106 55.5 -157.5t155.5 -51.5q132 0 211.5 91.5t79.5 232.5v82q-188 16 -248 16q-128 0 -191 -52.5t-63 -160.5zM260 1364q69 92 166 92q58 0 121.5 -35t101.5 -35 t61 18t31 36q50 -19 60 -70q-1 -3 -7.5 -12.5t-21 -23t-32.5 -25.5t-45 -20.5t-56 -8.5q-47 0 -86 18t-72.5 36t-66.5 18q-27 0 -51 -14.5t-34 -29.5l-10 -14q-48 26 -59 70z" />
<glyph unicode="&#xe4;" horiz-adv-x="1054" d="M94 307q0 158 97 239t290 81q125 0 269 -17v117q0 126 -58 185t-184 59q-68 0 -140 -12.5t-110 -25.5l-37 -13q-3 2 -8 6t-13.5 15t-13.5 24q-10 26 -10 63q17 8 48.5 19.5t123 31t178.5 19.5q109 0 181.5 -25.5t114 -80t58.5 -128t17 -180.5v-674q-18 -10 -59 -10 q-16 0 -31 2.5t-22 5.5l-7 2l-22 154q-43 -89 -132 -136.5t-212 -47.5q-146 0 -232 85t-86 242zM248 307q0 -106 55.5 -157.5t155.5 -51.5q132 0 211.5 91.5t79.5 232.5v82q-188 16 -248 16q-128 0 -191 -52.5t-63 -160.5zM291 1309v133q25 10 76 10q22 0 40 -2.5t25 -5.5 l8 -2v-133q-24 -11 -73 -11q-23 0 -42 3t-27 5zM614 1309v133q25 10 76 10q22 0 40.5 -2.5t25.5 -5.5l8 -2v-133q-25 -11 -74 -11q-23 0 -42 3t-26 5z" />
<glyph unicode="&#xe5;" horiz-adv-x="1054" d="M94 307q0 158 97 239t290 81q125 0 269 -17v115q0 128 -58 187t-184 59q-68 0 -140 -12.5t-110 -25.5l-37 -13q-3 2 -8 6t-13.5 15t-13.5 24q-10 26 -10 63q17 8 48.5 19.5t123 31t178.5 19.5q109 0 181.5 -25.5t114 -80t58.5 -128t17 -180.5v-674q-18 -10 -59 -10 q-16 0 -31 2.5t-22 5.5l-7 2l-22 154q-43 -89 -132 -136.5t-212 -47.5q-146 0 -232 85t-86 242zM248 307q0 -106 55.5 -157.5t155.5 -51.5q132 0 211.5 91.5t79.5 232.5v82q-188 16 -248 16q-128 0 -191 -52.5t-63 -160.5zM295 1425q0 98 68.5 153.5t164.5 55.5 q94 0 165 -55.5t71 -153.5q0 -100 -68.5 -157.5t-169.5 -57.5q-102 0 -166.5 57t-64.5 158zM395 1425q0 -53 34 -90t97 -37q65 0 101.5 38t36.5 89t-36.5 87t-101.5 36q-62 0 -96.5 -36.5t-34.5 -86.5z" />
<glyph unicode="&#xe6;" horiz-adv-x="1587" d="M94 307q0 157 91.5 234t281.5 77h246v113q0 128 -53.5 184t-172.5 56q-64 0 -131 -12.5t-102 -25.5l-35 -13q-43 40 -43 108q16 8 45.5 19.5t116 31t168.5 19.5q238 0 303 -189q47 93 127 141t182 48q177 0 272 -105t95 -293q0 -50 -5.5 -98t-11.5 -71l-6 -23h-604 q10 -208 81.5 -306t205.5 -98q65 0 123.5 16.5t83.5 33.5l26 16q45 -31 52 -100q-4 -4 -12 -10t-36 -21.5t-60.5 -27.5t-86 -21.5t-111.5 -9.5q-137 0 -225 68t-121 175q-30 -104 -124 -173.5t-244 -69.5t-233 85t-83 242zM246 305q0 -103 49.5 -155t140.5 -52q127 0 202 86 t75 232v92h-226q-127 0 -184 -48t-57 -155zM858 618h469q8 35 8 101q0 115 -51 186.5t-166 71.5q-112 0 -181.5 -85.5t-78.5 -273.5z" />
<glyph unicode="&#xe7;" horiz-adv-x="911" d="M115 539q0 274 112.5 416.5t327.5 142.5q79 0 143.5 -12t89.5 -24l25 -13q0 -65 -45 -107q-71 35 -186 35q-162 0 -238 -108.5t-76 -329.5t78.5 -328t243.5 -107q53 0 102.5 10.5t72.5 20.5l23 10q45 -38 48 -104q-10 -7 -30.5 -16.5t-95.5 -26.5t-163 -18l-17 -99 q222 0 222 -182q0 -195 -240 -195q-50 0 -96 12t-67 24l-21 11q0 48 34 72q66 -33 144 -33q69 0 105 25.5t36 85.5q0 104 -127 104h-71l-21 23l27 160q-166 31 -253 171.5t-87 379.5z" />
<glyph unicode="&#xe8;" horiz-adv-x="1048" d="M115 545q0 280 117.5 416.5t322.5 136.5q185 0 287 -105.5t102 -292.5q0 -56 -5.5 -108t-10.5 -76l-6 -24h-654q10 -206 87 -293.5t231 -87.5q69 0 131.5 16.5t90.5 33.5l28 17q50 -40 53 -108q-5 -4 -13.5 -10t-40 -21.5t-67 -27.5t-93 -21.5t-118.5 -9.5 q-220 0 -331 143t-111 422zM268 602h518q9 45 9 117q0 114 -58 186t-182 72q-128 0 -203 -91t-84 -284zM326 1528q17 27 56 44.5t75 14.5l213 -295q-26 -43 -88 -49z" />
<glyph unicode="&#xe9;" horiz-adv-x="1048" d="M115 545q0 280 117.5 416.5t322.5 136.5q185 0 287 -105.5t102 -292.5q0 -56 -5.5 -108t-10.5 -76l-6 -24h-654q10 -206 87 -293.5t231 -87.5q69 0 131.5 16.5t90.5 33.5l28 17q50 -40 53 -108q-5 -4 -13.5 -10t-40 -21.5t-67 -27.5t-93 -21.5t-118.5 -9.5 q-220 0 -331 143t-111 422zM268 602h518q9 45 9 117q0 114 -58 186t-182 72q-128 0 -203 -91t-84 -284zM387 1292l213 295q39 3 76.5 -13.5t54.5 -45.5l-256 -285q-65 7 -88 49z" />
<glyph unicode="&#xea;" horiz-adv-x="1048" d="M115 545q0 280 117.5 416.5t322.5 136.5q185 0 287 -105.5t102 -292.5q0 -56 -5.5 -108t-10.5 -76l-6 -24h-654q10 -206 87 -293.5t231 -87.5q69 0 131.5 16.5t90.5 33.5l28 17q50 -40 53 -108q-5 -4 -13.5 -10t-40 -21.5t-67 -27.5t-93 -21.5t-118.5 -9.5 q-220 0 -331 143t-111 422zM260 1303l264 217h51l267 -217q-26 -57 -70 -68l-221 156l-221 -158q-47 16 -70 70zM268 602h518q9 45 9 117q0 114 -58 186t-182 72q-128 0 -203 -91t-84 -284z" />
<glyph unicode="&#xeb;" horiz-adv-x="1048" d="M115 545q0 280 117.5 416.5t322.5 136.5q185 0 287 -105.5t102 -292.5q0 -56 -5.5 -108t-10.5 -76l-6 -24h-654q10 -206 87 -293.5t231 -87.5q69 0 131.5 16.5t90.5 33.5l28 17q50 -40 53 -108q-5 -4 -13.5 -10t-40 -21.5t-67 -27.5t-93 -21.5t-118.5 -9.5 q-220 0 -331 143t-111 422zM268 602h518q9 45 9 117q0 114 -58 186t-182 72q-128 0 -203 -91t-84 -284zM315 1290v133q23 11 74 11q22 0 41 -3t27 -5l8 -3v-133q-27 -10 -76 -10q-23 0 -41.5 2.5t-25.5 5.5zM639 1290v133q23 11 74 11q22 0 40.5 -3t26.5 -5l8 -3v-133 q-26 -10 -75 -10q-23 0 -41.5 2.5t-25.5 5.5z" />
<glyph unicode="&#xec;" horiz-adv-x="487" d="M16 1532q17 27 56 44.5t75 14.5l213 -295q-26 -43 -88 -49zM170 10v1057q21 10 74 10q22 0 40 -2.5t26 -4.5l7 -3v-1057q-24 -10 -73 -10q-24 0 -42.5 2.5t-25.5 5.5z" />
<glyph unicode="&#xed;" horiz-adv-x="487" d="M109 1292l213 295q39 3 76.5 -13.5t54.5 -45.5l-256 -285q-65 7 -88 49zM170 10v1057q21 10 74 10q22 0 40 -2.5t26 -4.5l7 -3v-1057q-24 -10 -73 -10q-24 0 -42.5 2.5t-25.5 5.5z" />
<glyph unicode="&#xee;" horiz-adv-x="487" d="M-45 1303l266 217h51l265 -217q-26 -57 -68 -68l-223 156l-221 -158q-48 17 -70 70zM170 10v1057q21 10 74 10q22 0 40 -2.5t26 -4.5l7 -3v-1057q-24 -10 -73 -10q-24 0 -42.5 2.5t-25.5 5.5z" />
<glyph unicode="&#xef;" horiz-adv-x="487" d="M2 1298v136q25 8 74 8q23 0 42 -2t26 -4l8 -2v-136q-25 -8 -76 -8q-22 0 -40.5 2t-25.5 4zM170 10v1057q21 10 74 10q22 0 40 -2.5t26 -4.5l7 -3v-1057q-24 -10 -73 -10q-24 0 -42.5 2.5t-25.5 5.5zM326 1298v136q24 8 75 8q22 0 40.5 -2t26.5 -4l7 -2v-136 q-25 -8 -74 -8q-23 0 -41.5 2t-25.5 4z" />
<glyph unicode="&#xf0;" horiz-adv-x="1138" d="M117 516q0 279 111.5 408t312.5 129q207 0 305 -146q-53 234 -223 373l-254 -160q-45 31 -56 86l215 135q-117 70 -245 95q-7 63 30 100q174 -29 324 -123l160 100q42 -29 55 -88l-125 -77q139 -120 214 -301.5t75 -417.5q0 -147 -20.5 -258.5t-57.5 -185.5t-94.5 -120 t-126.5 -65.5t-158 -19.5q-442 0 -442 536zM270 516q0 -119 20.5 -202.5t60 -130t90 -67t118.5 -20.5q54 0 96.5 12t80 42t62 77t38.5 120t14 169q0 121 -21.5 204.5t-63 129.5t-93.5 65t-123 19q-68 0 -117 -20t-86.5 -66.5t-56.5 -129t-19 -202.5z" />
<glyph unicode="&#xf1;" horiz-adv-x="1124" d="M164 10v1057q23 10 74 10q22 0 40 -2.5t26 -4.5l7 -3v-129q128 160 340 160q149 0 232.5 -83.5t83.5 -223.5v-781q-27 -10 -74 -10q-23 0 -41.5 2.5t-25.5 5.5l-7 2v752q0 213 -221 213q-86 0 -164 -50t-123 -137v-778q-24 -10 -73 -10q-23 0 -41.5 2.5t-25.5 5.5z M287 1370q2 4 6 10.5t19 23t32.5 29t47 23t61.5 10.5q37 0 70.5 -11t54 -23.5t47.5 -23.5t53 -11q27 0 50 15.5t32 30.5l10 15q24 -9 43 -29t23 -43q-2 -4 -6.5 -10.5t-19.5 -23t-33 -29t-47.5 -23t-61.5 -10.5q-47 0 -86.5 17.5t-73.5 35t-66 17.5q-27 0 -50 -15.5 t-32 -30.5l-10 -16q-54 25 -63 72z" />
<glyph unicode="&#xf2;" horiz-adv-x="1110" d="M117 539q0 294 112 426.5t326 132.5t326 -132.5t112 -426.5t-112 -426.5t-326 -132.5t-326 132.5t-112 426.5zM268 539q0 -126 19.5 -213.5t58.5 -137t89.5 -71t119.5 -21.5t119.5 21.5t89.5 71t58.5 137t19.5 213.5t-19.5 213t-58.5 136.5t-89.5 71t-119.5 21.5 t-119.5 -21.5t-89.5 -71t-58.5 -136.5t-19.5 -213zM293 1528q18 27 56.5 44.5t76.5 14.5l213 -295q-26 -42 -90 -49z" />
<glyph unicode="&#xf3;" horiz-adv-x="1110" d="M117 539q0 294 112 426.5t326 132.5t326 -132.5t112 -426.5t-112 -426.5t-326 -132.5t-326 132.5t-112 426.5zM268 539q0 -126 19.5 -213.5t58.5 -137t89.5 -71t119.5 -21.5t119.5 21.5t89.5 71t58.5 137t19.5 213.5t-19.5 213t-58.5 136.5t-89.5 71t-119.5 21.5 t-119.5 -21.5t-89.5 -71t-58.5 -136.5t-19.5 -213zM383 1292l213 295q39 3 76.5 -13.5t54.5 -45.5l-256 -285q-65 7 -88 49z" />
<glyph unicode="&#xf4;" horiz-adv-x="1110" d="M117 539q0 294 112 426.5t326 132.5t326 -132.5t112 -426.5t-112 -426.5t-326 -132.5t-326 132.5t-112 426.5zM258 1303l264 217h51l267 -217q-26 -57 -68 -68l-223 156l-221 -158q-47 16 -70 70zM268 539q0 -126 19.5 -213.5t58.5 -137t89.5 -71t119.5 -21.5t119.5 21.5 t89.5 71t58.5 137t19.5 213.5t-19.5 213t-58.5 136.5t-89.5 71t-119.5 21.5t-119.5 -21.5t-89.5 -71t-58.5 -136.5t-19.5 -213z" />
<glyph unicode="&#xf5;" horiz-adv-x="1110" d="M117 539q0 294 112 426.5t326 132.5t326 -132.5t112 -426.5t-112 -426.5t-326 -132.5t-326 132.5t-112 426.5zM268 539q0 -126 19.5 -213.5t58.5 -137t89.5 -71t119.5 -21.5t119.5 21.5t89.5 71t58.5 137t19.5 213.5t-19.5 213t-58.5 136.5t-89.5 71t-119.5 21.5 t-119.5 -21.5t-89.5 -71t-58.5 -136.5t-19.5 -213zM276 1358q2 4 6 10.5t19 23t32.5 29t47 23t61.5 10.5q47 0 86.5 -17.5t73.5 -35t66 -17.5q27 0 50 15t32 30l10 15q53 -16 63 -70q-2 -4 -6 -10.5t-19 -23t-32.5 -29t-47 -23t-61.5 -10.5q-47 0 -86.5 18t-73 36t-65.5 18 q-27 0 -50.5 -15.5t-33.5 -30.5l-10 -16q-53 23 -62 70z" />
<glyph unicode="&#xf6;" horiz-adv-x="1110" d="M117 539q0 294 112 426.5t326 132.5t326 -132.5t112 -426.5t-112 -426.5t-326 -132.5t-326 132.5t-112 426.5zM268 539q0 -126 19.5 -213.5t58.5 -137t89.5 -71t119.5 -21.5t119.5 21.5t89.5 71t58.5 137t19.5 213.5t-19.5 213t-58.5 136.5t-89.5 71t-119.5 21.5 t-119.5 -21.5t-89.5 -71t-58.5 -136.5t-19.5 -213zM313 1307v135q25 8 76 8q22 0 40.5 -2t26.5 -4l7 -2v-135q-25 -9 -74 -9q-23 0 -42 2t-27 4zM637 1307v135q25 8 76 8q22 0 40 -2t25 -4l8 -2v-135q-24 -9 -73 -9q-23 0 -42 2t-27 4z" />
<glyph unicode="&#xf7;" horiz-adv-x="1116" d="M141 594q0 16 2.5 30.5t5.5 20.5l3 6h815q8 -20 8 -57q0 -16 -2 -30.5t-4 -20.5l-2 -6h-815q-11 20 -11 57zM475 188v150q27 10 84 10q24 0 45 -2.5t30 -5.5l9 -2v-150q-29 -10 -84 -10q-25 0 -46 2.5t-29 5.5zM475 850v149q27 11 84 11q24 0 45 -3t30 -5l9 -3v-149 q-29 -10 -84 -10q-25 0 -46 2.5t-29 5.5z" />
<glyph unicode="&#xf8;" horiz-adv-x="1110" d="M117 539q0 294 112.5 426.5t325.5 132.5q141 0 238 -60l75 131q54 -6 95 -47l-89 -147q121 -140 121 -436q0 -294 -113 -426.5t-327 -132.5q-135 0 -227 51l-72 -123q-54 3 -92 47l80 139q-127 136 -127 445zM268 539q0 -204 64 -299l395 688q-67 53 -172 53 q-69 0 -119.5 -21.5t-89.5 -71t-58.5 -136.5t-19.5 -213zM395 141q62 -45 160 -45q69 0 119.5 21.5t89.5 71t58.5 137t19.5 213.5q0 185 -54 288z" />
<glyph unicode="&#xf9;" horiz-adv-x="1122" d="M156 287v780q26 10 73 10q23 0 41.5 -2.5t25.5 -4.5l7 -3v-752q0 -213 223 -213q83 0 161 49.5t124 137.5v778q25 10 74 10q23 0 41 -2.5t25 -4.5l7 -3v-1057q-22 -10 -73 -10q-22 0 -40.5 2.5t-26.5 5.5l-7 2v129q-61 -76 -148.5 -117.5t-191.5 -41.5q-149 0 -232 83.5 t-83 223.5zM328 1528q17 27 56 44.5t75 14.5l213 -295q-26 -43 -88 -49z" />
<glyph unicode="&#xfa;" horiz-adv-x="1122" d="M156 287v780q26 10 73 10q23 0 41.5 -2.5t25.5 -4.5l7 -3v-752q0 -213 223 -213q83 0 161 49.5t124 137.5v778q25 10 74 10q23 0 41 -2.5t25 -4.5l7 -3v-1057q-22 -10 -73 -10q-22 0 -40.5 2.5t-26.5 5.5l-7 2v129q-61 -76 -148.5 -117.5t-191.5 -41.5q-149 0 -232 83.5 t-83 223.5zM406 1292l212 295q39 3 77 -13.5t55 -45.5l-256 -285q-65 7 -88 49z" />
<glyph unicode="&#xfb;" horiz-adv-x="1122" d="M156 287v780q26 10 73 10q23 0 41.5 -2.5t25.5 -4.5l7 -3v-752q0 -213 223 -213q83 0 161 49.5t124 137.5v778q25 10 74 10q23 0 41 -2.5t25 -4.5l7 -3v-1057q-22 -10 -73 -10q-22 0 -40.5 2.5t-26.5 5.5l-7 2v129q-61 -76 -148.5 -117.5t-191.5 -41.5q-149 0 -232 83.5 t-83 223.5zM270 1303l265 217h51l264 -217q-22 -57 -68 -68l-223 156l-221 -158q-49 18 -68 70z" />
<glyph unicode="&#xfc;" horiz-adv-x="1122" d="M156 287v780q26 10 73 10q23 0 41.5 -2.5t25.5 -4.5l7 -3v-752q0 -213 223 -213q83 0 161 49.5t124 137.5v778q25 10 74 10q23 0 41 -2.5t25 -4.5l7 -3v-1057q-22 -10 -73 -10q-22 0 -40.5 2.5t-26.5 5.5l-7 2v129q-61 -76 -148.5 -117.5t-191.5 -41.5q-149 0 -232 83.5 t-83 223.5zM317 1311v133q25 10 76 10q22 0 41 -2.5t27 -5.5l8 -2v-133q-27 -11 -76 -11q-23 0 -42 3t-27 5zM641 1311v133q25 10 76 10q22 0 41 -2.5t27 -5.5l8 -2v-133q-27 -11 -76 -11q-23 0 -42 3t-27 5z" />
<glyph unicode="&#xfd;" horiz-adv-x="1073" d="M51 1067q27 10 78 10q23 0 42.5 -2.5t27.5 -4.5l8 -3l276 -702q22 -56 40.5 -111t26.5 -82l7 -27h6q23 91 66 220l241 702q23 10 74 10q21 0 39.5 -2.5t26.5 -4.5l8 -3l-434 -1266q-21 -64 -40.5 -108.5t-46.5 -86t-58.5 -65.5t-75 -38.5t-97.5 -14.5q-27 0 -53 4t-39 8 l-12 4q-12 24 -12 58q0 21 5 39t9 22q39 -10 88 -10q69 0 111.5 44t85.5 173l61 172q-22 0 -49 10zM393 1292l213 295q39 3 76.5 -13.5t54.5 -45.5l-256 -285q-65 7 -88 49z" />
<glyph unicode="&#xfe;" horiz-adv-x="1138" d="M164 -479v2005q23 10 74 10q23 0 41 -2.5t25 -5.5l7 -2v-588q94 160 316 160q93 0 163 -29t123 -93t80 -173.5t27 -263.5t-27 -263.5t-80 -173.5t-123 -93t-163 -29q-222 0 -316 159v-618q-22 -10 -73 -10q-23 0 -41.5 2.5t-25.5 4.5zM311 410q0 -78 29.5 -146.5t92 -114 t145.5 -45.5q153 0 220.5 98t67.5 337t-67 336.5t-221 97.5q-123 0 -194 -88.5t-73 -210.5v-264z" />
<glyph unicode="&#xff;" horiz-adv-x="1073" d="M51 1067q27 10 78 10q23 0 42.5 -2.5t27.5 -4.5l8 -3l276 -702q22 -56 40.5 -111t26.5 -82l7 -27h6q23 91 66 220l241 702q23 10 74 10q21 0 39.5 -2.5t26.5 -4.5l8 -3l-434 -1266q-21 -64 -40.5 -108.5t-46.5 -86t-58.5 -65.5t-75 -38.5t-97.5 -14.5q-27 0 -53 4t-39 8 l-12 4q-12 24 -12 58q0 21 5 39t9 22q39 -10 88 -10q69 0 111.5 44t85.5 173l61 172q-22 0 -49 10zM301 1313v133q25 10 76 10q22 0 41 -2.5t27 -5.5l8 -2v-133q-27 -10 -76 -10q-23 0 -42 2.5t-27 4.5zM625 1313v133q24 10 75 10q22 0 41 -2.5t27 -5.5l8 -2v-133 q-27 -10 -76 -10q-23 0 -41.5 2.5t-26.5 4.5z" />
<glyph unicode="&#x100;" horiz-adv-x="1325" d="M37 12l541 1450q33 13 84 13q24 0 44.5 -3.5t29.5 -6.5l9 -3l543 -1450q-27 -12 -84 -12q-22 0 -40.5 3t-25.5 6l-8 3l-147 391h-653l-150 -391q-25 -12 -74 -12q-22 0 -39 3t-23 6zM362 1614q-19 50 0 100h580q22 -46 0 -100h-580zM375 530h563l-238 627 q-13 36 -23 71.5t-14 52.5l-4 17h-6q-12 -61 -41 -141z" />
<glyph unicode="&#x101;" horiz-adv-x="1052" d="M94 307q0 158 97 239t290 81q125 0 269 -17v115q0 129 -58 187.5t-184 58.5q-68 0 -140 -12.5t-110 -25.5l-37 -13q-3 2 -8 6t-13.5 15t-13.5 24q-10 26 -10 63q17 8 48.5 19.5t123 31t178.5 19.5q109 0 181.5 -25.5t114 -80t58.5 -128t17 -180.5v-674q-18 -10 -59 -10 q-16 0 -31 2.5t-22 5.5l-7 2l-22 154q-43 -89 -132 -136.5t-212 -47.5q-146 0 -232 85t-86 242zM248 307q0 -106 55.5 -157.5t155.5 -51.5q132 0 211.5 91.5t79.5 232.5v82q-188 16 -248 16q-128 0 -191 -52.5t-63 -160.5zM256 1325q-16 53 0 96h551q18 -45 0 -96h-551z" />
<glyph unicode="&#x102;" horiz-adv-x="1327" d="M37 12l543 1450q33 13 84 13q24 0 45 -3.5t30 -6.5l9 -3l542 -1450q-27 -12 -84 -12q-22 0 -40 3t-26 6l-7 3l-148 391h-653l-150 -391q-24 -12 -73 -12q-22 0 -40 3t-25 6zM356 1714q16 54 68 72q10 -8 29 -20.5t79 -33t123 -20.5t120.5 18.5t83.5 37.5l26 18 q52 -14 69 -72q-4 -5 -12 -12.5t-36 -27.5t-60 -35t-83.5 -27.5t-107.5 -12.5t-107.5 12t-85 28.5t-58.5 33.5t-36 29zM377 530h563l-238 627q-13 36 -23 71.5t-13 52.5l-4 17h-7q-12 -61 -41 -141z" />
<glyph unicode="&#x103;" horiz-adv-x="1054" d="M94 307q0 158 97 239t290 81q125 0 269 -17v121q0 123 -59 181.5t-183 58.5q-68 0 -140 -12.5t-110 -25.5l-37 -13q-3 2 -8 6t-13.5 15t-13.5 24q-10 26 -10 63q17 8 48.5 19.5t123 31t178.5 19.5q109 0 181.5 -25.5t114 -80t58.5 -128t17 -180.5v-674q-18 -10 -59 -10 q-16 0 -31 2.5t-22 5.5l-7 2l-22 154q-43 -89 -132 -136.5t-212 -47.5q-146 0 -232 85t-86 242zM233 1393q17 55 68 73q4 -3 10.5 -8t28.5 -18t46.5 -23t62 -18t75.5 -8t75.5 7.5t63 18.5t45.5 22.5t30 18.5l10 8q51 -18 67 -73q-4 -5 -11.5 -13.5t-34.5 -29.5t-58 -37 t-81.5 -29.5t-105.5 -13.5q-54 0 -104 12.5t-82.5 31t-57 36.5t-36.5 30zM248 307q0 -106 55.5 -157.5t155.5 -51.5q132 0 211.5 91.5t79.5 232.5v82q-188 16 -248 16q-128 0 -191 -52.5t-63 -160.5z" />
<glyph unicode="&#x104;" horiz-adv-x="1327" d="M37 12l543 1450q33 13 84 13q24 0 45 -3.5t30 -6.5l9 -3l542 -1450l-18 -6q-85 -17 -144 -63.5t-59 -122.5q0 -51 31 -78t80 -27q19 0 37.5 4.5t26.5 8.5l9 4q27 -21 27 -66q-53 -35 -129 -35q-86 0 -137 46.5t-51 127.5q0 75 43.5 130t121.5 85l-143 383h-653l-150 -391 q-24 -12 -73 -12q-22 0 -40 3t-25 6zM377 530h563l-238 627q-13 36 -23 71.5t-13 52.5l-4 17h-7q-12 -61 -41 -141z" />
<glyph unicode="&#x105;" horiz-adv-x="1054" d="M94 307q0 158 97 239t290 81q125 0 269 -17v113q0 132 -57 190t-185 58q-68 0 -140 -12.5t-110 -25.5l-37 -13q-3 2 -8 6t-13.5 15t-13.5 24q-10 26 -10 63q17 8 48.5 19.5t123 31t178.5 19.5q109 0 181.5 -25.5t114 -80t58.5 -128t17 -180.5v-676q-94 -25 -151.5 -79.5 t-57.5 -123.5q0 -41 27.5 -64.5t81.5 -23.5q19 0 38.5 3.5t28.5 7.5l10 4q27 -21 27 -72q-53 -35 -131 -35q-91 0 -143 43.5t-52 118.5q0 73 53 136t150 104l-22 137q-43 -89 -132 -136.5t-212 -47.5q-146 0 -232 85t-86 242zM248 307q0 -106 55.5 -157.5t155.5 -51.5 q131 0 211 95.5t80 234.5v76q-188 16 -248 16q-128 0 -191 -52.5t-63 -160.5z" />
<glyph unicode="&#x106;" horiz-adv-x="1146" d="M133 737q0 376 143.5 567t428.5 191q100 0 186.5 -17t122.5 -34l37 -17q3 -64 -47 -114q-13 6 -37 14.5t-97.5 22.5t-146.5 14q-80 0 -143.5 -18t-118 -62.5t-91 -115.5t-57 -180t-20.5 -253t20.5 -252t56.5 -177.5t91.5 -112.5t118.5 -60.5t143 -17.5t155.5 12.5 t111.5 25.5l36 13q44 -44 47 -117q-5 -3 -15 -7.5t-45 -16.5t-74 -21t-102.5 -16.5t-131.5 -7.5q-572 0 -572 757zM569 1597l213 295q39 3 76.5 -13.5t54.5 -45.5l-256 -285q-65 7 -88 49z" />
<glyph unicode="&#x107;" horiz-adv-x="913" d="M115 539q0 274 112.5 416.5t327.5 142.5q79 0 143.5 -12t89.5 -24l25 -13q0 -72 -45 -111q-71 35 -186 35q-163 0 -238.5 -107t-75.5 -327t78 -324t244 -104q53 0 102.5 9.5t72.5 19.5l23 10q45 -35 48 -109q-11 -7 -31.5 -17t-93.5 -27t-156 -17q-215 0 -327.5 142.5 t-112.5 416.5zM375 1292l213 295q39 3 76.5 -13.5t54.5 -45.5l-256 -285q-65 7 -88 49z" />
<glyph unicode="&#x108;" horiz-adv-x="1146" d="M133 737q0 376 143.5 567t428.5 191q100 0 186.5 -17t122.5 -34l37 -17q3 -61 -47 -114q-13 6 -37 14.5t-97.5 22.5t-146.5 14q-80 0 -143.5 -18t-118 -62.5t-91 -115.5t-57 -180t-20.5 -253t20.5 -252t56.5 -177.5t91.5 -112.5t118.5 -60.5t143 -17.5t155.5 12.5 t111.5 25.5l36 13q44 -41 47 -117q-5 -3 -15 -7.5t-45 -16.5t-74 -21t-102.5 -16.5t-131.5 -7.5q-572 0 -572 757zM422 1610l270 221h53l271 -221q-25 -59 -70 -70l-229 160l-225 -162q-50 18 -70 72z" />
<glyph unicode="&#x109;" horiz-adv-x="913" d="M115 539q0 274 112.5 416.5t327.5 142.5q79 0 143.5 -12t89.5 -24l25 -13q0 -72 -45 -111q-71 35 -186 35q-163 0 -238.5 -107t-75.5 -327t78 -324t244 -104q53 0 102.5 9.5t72.5 19.5l23 10q45 -35 48 -109q-11 -7 -31.5 -17t-93.5 -27t-156 -17q-215 0 -327.5 142.5 t-112.5 416.5zM242 1307l264 217h51l266 -217q-24 -56 -69 -70l-222 158l-221 -158q-46 16 -69 70z" />
<glyph unicode="&#x10a;" horiz-adv-x="1146" d="M133 737q0 376 143.5 567t428.5 191q100 0 186.5 -17t122.5 -34l37 -17q3 -67 -47 -114q-13 6 -37 14.5t-97.5 22.5t-146.5 14q-80 0 -143.5 -18t-118 -62.5t-91 -115.5t-57 -180t-20.5 -253t20.5 -252t56.5 -177.5t91.5 -112.5t118.5 -60.5t143 -17.5t155.5 12.5 t111.5 25.5l36 13q44 -44 47 -117q-5 -3 -15 -7.5t-45 -16.5t-74 -21t-102.5 -16.5t-131.5 -7.5q-572 0 -572 757zM633 1608v139q23 8 78 8q23 0 42 -2t27 -4l8 -2v-139q-26 -11 -77 -11q-24 0 -43.5 2.5t-27.5 5.5z" />
<glyph unicode="&#x10b;" horiz-adv-x="913" d="M115 539q0 274 112.5 416.5t327.5 142.5q79 0 143.5 -12t89.5 -24l25 -13q0 -72 -45 -111q-71 35 -186 35q-163 0 -238.5 -107t-75.5 -327t78 -324t244 -104q53 0 102.5 9.5t72.5 19.5l23 10q45 -35 48 -109q-11 -7 -31.5 -17t-93.5 -27t-156 -17q-215 0 -327.5 142.5 t-112.5 416.5zM457 1313v139q25 8 78 8q23 0 42 -2t27 -4l8 -2v-139q-26 -10 -77 -10q-24 0 -43.5 2.5t-27.5 4.5z" />
<glyph unicode="&#x10c;" horiz-adv-x="1146" d="M133 737q0 376 143.5 567t428.5 191q100 0 186.5 -17t122.5 -34l37 -17q3 -64 -47 -114q-13 6 -37 14.5t-97.5 22.5t-146.5 14q-80 0 -143.5 -18t-118 -62.5t-91 -115.5t-57 -180t-20.5 -253t20.5 -252t56.5 -177.5t91.5 -112.5t118.5 -60.5t143 -17.5t155.5 12.5 t111.5 25.5l36 13q44 -44 47 -117q-5 -3 -15 -7.5t-45 -16.5t-74 -21t-102.5 -16.5t-131.5 -7.5q-572 0 -572 757zM408 1784q23 54 69 71l230 -161l225 159q46 -14 69 -69l-268 -221h-53z" />
<glyph unicode="&#x10d;" horiz-adv-x="913" d="M115 539q0 274 112.5 416.5t327.5 142.5q79 0 143.5 -12t89.5 -24l25 -13q0 -72 -45 -111q-71 35 -186 35q-163 0 -238.5 -107t-75.5 -327t78 -324t244 -104q53 0 102.5 9.5t72.5 19.5l23 10q45 -35 48 -109q-11 -7 -31.5 -17t-93.5 -27t-156 -17q-215 0 -327.5 142.5 t-112.5 416.5zM279 1438q19 49 65 67l209 -149l207 147q40 -14 63 -65l-248 -205h-47z" />
<glyph unicode="&#x10e;" horiz-adv-x="1353" d="M197 0v1475h428q149 0 256.5 -37.5t185.5 -123t116 -228.5t38 -349q0 -205 -38 -348t-116 -228t-185.5 -123t-256.5 -38h-428zM297 1784q19 52 70 71l229 -161l225 159q47 -15 70 -69l-270 -221h-54zM348 129h264q89 0 155 16t123 56.5t93 108.5t56 175t20 252 q0 146 -20 253t-56 175t-93 108.5t-123 56.5t-155 16h-264v-1217z" />
<glyph unicode="&#x10f;" horiz-adv-x="1163" d="M117 539q0 154 27 263.5t80 173.5t123 93t163 29q217 0 315 -160v588q23 10 74 10q23 0 41.5 -2.5t25.5 -5.5l7 -2v-1516q-25 -10 -62 -10q-17 0 -33.5 2.5t-23.5 5.5l-8 2l-15 137q-97 -167 -321 -167q-93 0 -163 29t-123 93t-80 173.5t-27 263.5zM270 539 q0 -161 31.5 -257t93.5 -137t164 -41q83 0 145 45.5t91.5 114t29.5 146.5v262q-2 121 -73 211t-193 90q-153 0 -221 -98t-68 -336zM1073 1231q61 64 84 135t17 166q83 20 131 -14q-3 -99 -47 -190.5t-115 -135.5q-50 6 -70 39z" />
<glyph unicode="&#x110;" horiz-adv-x="1372" d="M47 676q-17 56 0 108h168v691h428q149 0 256.5 -37.5t185.5 -123t116 -228.5t38 -349q0 -205 -38 -348t-116 -228t-185.5 -123t-256.5 -38h-428v676h-168zM367 129h264q89 0 155 16t123 56.5t92.5 108.5t55.5 175t20 252q0 146 -20 253t-55.5 175t-92.5 108.5t-123 56.5 t-155 16h-264v-562h319q14 -51 0 -108h-319v-547z" />
<glyph unicode="&#x111;" d="M117 539q0 154 27 263.5t80 173.5t123 93t163 29q217 0 315 -160v332h-276q-8 16 -8 49q0 15 2 27t4 17l2 5h276v158q23 10 74 10q23 0 41.5 -2.5t25.5 -5.5l7 -2v-158h143q6 -16 6 -49q0 -15 -1.5 -27t-2.5 -17l-2 -5h-143v-1260q-25 -10 -62 -10q-17 0 -33.5 2.5 t-23.5 5.5l-8 2l-15 137q-97 -167 -321 -167q-93 0 -163 29t-123 93t-80 173.5t-27 263.5zM270 539q0 -161 31.5 -257t93.5 -137t164 -41q83 0 145 45.5t91.5 114t29.5 146.5v262q-2 121 -73 211t-193 90q-153 0 -221 -98t-68 -336z" />
<glyph unicode="&#x112;" d="M197 0v1475h813q12 -27 12 -62q0 -38 -12 -65h-662v-539h559q13 -29 13 -59q0 -34 -13 -66h-559v-557h682q12 -27 12 -61q0 -36 -12 -66h-833zM309 1614q-16 50 0 100h582q15 -44 0 -100h-582z" />
<glyph unicode="&#x113;" horiz-adv-x="1048" d="M115 545q0 280 117.5 416.5t322.5 136.5q185 0 287 -105.5t102 -292.5q0 -56 -5.5 -108t-10.5 -76l-6 -24h-654q10 -206 87 -293.5t231 -87.5q69 0 131.5 16.5t90.5 33.5l28 17q50 -40 53 -108q-5 -4 -13.5 -10t-40 -21.5t-67 -27.5t-93 -21.5t-118.5 -9.5 q-220 0 -331 143t-111 422zM268 602h518q9 45 9 117q0 114 -58 186t-182 72q-128 0 -203 -91t-84 -284zM305 1309q-16 50 0 100h510q19 -56 0 -100h-510z" />
<glyph unicode="&#x114;" d="M197 0v1475h813q12 -27 12 -62q0 -38 -12 -65h-662v-539h559q13 -29 13 -59q0 -34 -13 -66h-559v-557h682q12 -27 12 -61q0 -36 -12 -66h-833zM297 1726q16 54 70 72q10 -8 28.5 -20.5t78.5 -33t124 -20.5q63 0 120 18.5t83 37.5l26 18q55 -16 68 -72q-4 -5 -12 -12.5 t-36 -27t-59.5 -34.5t-83 -27.5t-106.5 -12.5q-56 0 -108 11.5t-85.5 28.5t-59 34t-37.5 28z" />
<glyph unicode="&#x115;" horiz-adv-x="1048" d="M115 545q0 280 117.5 416.5t322.5 136.5q185 0 287 -105.5t102 -292.5q0 -56 -5.5 -108t-10.5 -76l-6 -24h-654q10 -206 87 -293.5t231 -87.5q69 0 131.5 16.5t90.5 33.5l28 17q50 -40 53 -108q-5 -4 -13.5 -10t-40 -21.5t-67 -27.5t-93 -21.5t-118.5 -9.5 q-220 0 -331 143t-111 422zM260 1393q17 55 68 73q4 -3 10.5 -8t28.5 -18t46.5 -23t62 -18t75.5 -8q61 0 116.5 18.5t80.5 37.5l26 19q52 -18 68 -73q-4 -5 -11.5 -13.5t-34.5 -29.5t-58 -37t-81.5 -29.5t-105.5 -13.5q-54 0 -104 12.5t-82.5 31t-57 36.5t-35.5 30zM268 602 h518q9 45 9 117q0 114 -58 186t-182 72q-128 0 -203 -91t-84 -284z" />
<glyph unicode="&#x116;" d="M197 0v1475h813q12 -27 12 -62q0 -38 -12 -65h-662v-539h559q13 -29 13 -59q0 -34 -13 -66h-559v-557h682q12 -27 12 -61q0 -36 -12 -66h-833zM528 1608v139q25 8 80 8q22 0 41.5 -2t28.5 -4l8 -2v-139q-29 -11 -78 -11q-24 0 -44 2.5t-28 5.5z" />
<glyph unicode="&#x117;" horiz-adv-x="1048" d="M115 545q0 280 117.5 416.5t322.5 136.5q185 0 287 -105.5t102 -292.5q0 -56 -5.5 -108t-10.5 -76l-6 -24h-654q10 -206 87 -293.5t231 -87.5q69 0 131.5 16.5t90.5 33.5l28 17q50 -40 53 -108q-5 -4 -13.5 -10t-40 -21.5t-67 -27.5t-93 -21.5t-118.5 -9.5 q-220 0 -331 143t-111 422zM268 602h518q9 45 9 117q0 114 -58 186t-182 72q-128 0 -203 -91t-84 -284zM475 1303v139q25 10 78 10q23 0 42.5 -2.5t27.5 -5.5l8 -2v-139q-27 -11 -78 -11q-24 0 -43.5 3t-27.5 5z" />
<glyph unicode="&#x118;" d="M197 0v1475h813q12 -27 12 -62q0 -38 -12 -65h-662v-539h559q13 -29 13 -59q0 -34 -13 -66h-559v-557h682q12 -27 12 -61q0 -36 -12 -66q-237 -30 -237 -188q0 -51 30.5 -78t79.5 -27q19 0 37.5 4.5t27.5 8.5l9 4q27 -21 27 -66q-56 -37 -132 -37q-85 0 -135.5 47.5 t-50.5 126.5q0 143 137 205h-626z" />
<glyph unicode="&#x119;" horiz-adv-x="1048" d="M115 545q0 280 117.5 416.5t322.5 136.5q185 0 287 -105.5t102 -292.5q0 -56 -5.5 -108t-10.5 -76l-6 -24h-654q10 -206 87 -293.5t231 -87.5q69 0 131.5 16.5t90.5 33.5l28 17q50 -40 53 -108q-57 -47 -168 -72q-81 -22 -131.5 -77t-50.5 -126q0 -48 27.5 -64t82.5 -16 q19 0 37.5 4.5t27.5 8.5l9 4q27 -21 27 -70q-56 -35 -132 -35q-88 0 -138 37.5t-50 114.5q0 59 28 113.5t77 87.5q-208 7 -314 150.5t-106 414.5zM268 602h518q9 45 9 117q0 114 -58 186t-182 72q-128 0 -203 -91t-84 -284z" />
<glyph unicode="&#x11a;" d="M197 0v1475h813q12 -27 12 -62q0 -38 -12 -65h-662v-539h559q13 -29 13 -59q0 -34 -13 -66h-559v-557h682q12 -27 12 -61q0 -36 -12 -66h-833zM279 1784q23 54 69 71l230 -161l225 159q46 -14 69 -69l-268 -221h-53z" />
<glyph unicode="&#x11b;" horiz-adv-x="1048" d="M115 545q0 280 117.5 416.5t322.5 136.5q185 0 287 -105.5t102 -292.5q0 -56 -5.5 -108t-10.5 -76l-6 -24h-654q10 -206 87 -293.5t231 -87.5q69 0 131.5 16.5t90.5 33.5l28 17q50 -40 53 -108q-5 -4 -13.5 -10t-40 -21.5t-67 -27.5t-93 -21.5t-118.5 -9.5 q-220 0 -331 143t-111 422zM266 1444q20 53 68 67l217 -155l215 153q44 -11 65 -65l-256 -211h-51zM268 602h518q9 45 9 117q0 114 -58 186t-182 72q-128 0 -203 -91t-84 -284z" />
<glyph unicode="&#x11c;" horiz-adv-x="1277" d="M131 737q0 373 154 565.5t446 192.5q107 0 201.5 -17t135.5 -34l42 -17q-3 -71 -47 -112q-16 5 -44 13.5t-110.5 22t-158.5 13.5q-82 0 -148.5 -18t-125.5 -62.5t-99 -115.5t-63 -180.5t-23 -252.5t23 -252t62.5 -178.5t98.5 -113t125.5 -61t149.5 -17.5q123 0 237 26 v531h-336q-12 24 -12 63q0 19 3 35t6 22l3 7h482v-750q-6 -3 -18 -7.5t-51.5 -16t-83 -20.5t-111.5 -16t-138 -7q-292 0 -446 190.5t-154 566.5zM467 1634l270 221h54l270 -221q-24 -56 -70 -71l-229 161l-225 -161q-52 19 -70 71z" />
<glyph unicode="&#x11d;" horiz-adv-x="1075" d="M74 -221q0 57 20 108.5t52 88.5t57.5 59.5t50.5 38.5q-47 47 -47 119q0 107 96 225q-89 41 -135.5 123t-46.5 196q0 169 101.5 265t285.5 96q128 0 221 -49l279 47q10 -26 10 -61.5t-10 -63.5l-185 -4q72 -87 72 -230q0 -169 -100 -263.5t-287 -94.5q-70 0 -109 10 q-57 -74 -55 -151q3 -42 41 -66t96.5 -34t128.5 -17.5t140 -22.5t127 -42t93 -84.5t36 -141.5q0 -148 -135.5 -245t-376.5 -97q-211 0 -315.5 80t-104.5 211zM215 1303l264 217h51l265 -217q-26 -57 -68 -68l-223 156l-221 -158q-49 18 -68 70zM221 -193q0 -95 70.5 -151.5 t206.5 -56.5q168 0 266 59t98 156q0 59 -34.5 96t-95 52.5t-123.5 23t-140.5 17.5t-124.5 26q-57 -40 -90 -99.5t-33 -122.5zM266 739q0 -124 65.5 -188t176.5 -64q112 0 177 64t65 188q0 123 -65 186.5t-177 63.5q-111 0 -176.5 -64t-65.5 -186z" />
<glyph unicode="&#x11e;" horiz-adv-x="1277" d="M131 737q0 373 154 565.5t446 192.5q107 0 201.5 -17t135.5 -34l42 -17q-3 -71 -47 -112q-16 5 -44 13.5t-110.5 22t-158.5 13.5q-82 0 -148.5 -18t-125.5 -62.5t-99 -115.5t-63 -180.5t-23 -252.5t23 -252t62.5 -178.5t98.5 -113t125.5 -61t149.5 -17.5q123 0 237 26 v531h-336q-12 24 -12 63q0 19 3 35t6 22l3 7h482v-750q-6 -3 -18 -7.5t-51.5 -16t-83 -20.5t-111.5 -16t-138 -7q-292 0 -446 190.5t-154 566.5zM440 1714q16 54 70 72q10 -8 29 -20.5t79 -33t123 -20.5t120.5 18.5t83.5 37.5l26 18q54 -15 67 -72q-4 -5 -12 -12.5 t-36 -27.5t-59.5 -35t-83 -27.5t-106.5 -12.5q-56 0 -108 12t-85.5 28.5t-59 33.5t-36.5 29z" />
<glyph unicode="&#x11f;" horiz-adv-x="1075" d="M74 -221q0 57 20 108.5t52 88.5t57.5 59.5t50.5 38.5q-47 47 -47 119q0 107 96 225q-89 41 -135.5 123t-46.5 196q0 169 101.5 265t285.5 96q128 0 221 -49l279 47q10 -26 10 -61.5t-10 -61.5l-185 -6q72 -87 72 -230q0 -169 -100 -263.5t-287 -94.5q-70 0 -109 10 q-57 -74 -55 -151q3 -42 41 -66t96.5 -34t128.5 -17.5t140 -22.5t127 -42t93 -84.5t36 -141.5q0 -148 -135.5 -245t-376.5 -97q-211 0 -315.5 80t-104.5 211zM221 -193q0 -95 70.5 -151.5t206.5 -56.5q168 0 266 59t98 156q0 59 -34.5 96t-95 52.5t-123.5 23t-140.5 17.5 t-124.5 26q-57 -40 -90 -99.5t-33 -122.5zM223 1393q17 55 68 73q4 -3 10.5 -8t28.5 -18t46.5 -23t62 -18t75.5 -8q61 0 116.5 18.5t81.5 37.5l25 19q52 -18 68 -73q-4 -5 -11.5 -13.5t-34.5 -29.5t-58 -37t-81.5 -29.5t-105.5 -13.5q-54 0 -104 12.5t-82.5 31t-57 36.5 t-36.5 30zM266 739q0 -124 65.5 -188t176.5 -64q112 0 177 64t65 188q0 123 -65 186.5t-177 63.5q-111 0 -176.5 -64t-65.5 -186z" />
<glyph unicode="&#x120;" horiz-adv-x="1277" d="M131 737q0 373 154 565.5t446 192.5q107 0 201.5 -17t135.5 -34l42 -17q-3 -71 -47 -112q-16 5 -44 13.5t-110.5 22t-158.5 13.5q-82 0 -148.5 -18t-125.5 -62.5t-99 -115.5t-63 -180.5t-23 -252.5t23 -252t62.5 -178.5t98.5 -113t125.5 -61t149.5 -17.5q123 0 237 26 v531h-336q-12 24 -12 63q0 19 3 35t6 22l3 7h482v-750q-6 -3 -18 -7.5t-51.5 -16t-83 -20.5t-111.5 -16t-138 -7q-292 0 -446 190.5t-154 566.5zM657 1608v139q25 8 78 8q23 0 42.5 -2t27.5 -4l8 -2v-139q-27 -11 -78 -11q-24 0 -43.5 2.5t-27.5 5.5z" />
<glyph unicode="&#x121;" horiz-adv-x="1075" d="M74 -221q0 57 20 108.5t52 88.5t57.5 59.5t50.5 38.5q-47 47 -47 119q0 107 96 225q-89 41 -135.5 123t-46.5 196q0 169 101.5 265t285.5 96q128 0 221 -49l279 47q10 -26 10 -61.5t-10 -63.5l-185 -4q72 -87 72 -230q0 -169 -100 -263.5t-287 -94.5q-70 0 -109 10 q-57 -74 -55 -151q3 -42 41 -66t96.5 -34t128.5 -17.5t140 -22.5t127 -42t93 -84.5t36 -141.5q0 -148 -135.5 -245t-376.5 -97q-211 0 -315.5 80t-104.5 211zM221 -193q0 -95 70.5 -151.5t206.5 -56.5q168 0 266 59t98 156q0 59 -34.5 96t-95 52.5t-123.5 23t-140.5 17.5 t-124.5 26q-57 -40 -90 -99.5t-33 -122.5zM266 739q0 -124 65.5 -188t176.5 -64q112 0 177 64t65 188q0 123 -65 186.5t-177 63.5q-111 0 -176.5 -64t-65.5 -186zM438 1300v140q25 10 78 10q23 0 42.5 -2.5t27.5 -5.5l8 -2v-140q-27 -10 -78 -10q-24 0 -43.5 2.5t-26.5 5.5z " />
<glyph unicode="&#x122;" horiz-adv-x="1277" d="M131 737q0 373 154 565.5t446 192.5q107 0 201.5 -17t135.5 -34l42 -17q-3 -68 -47 -112q-16 5 -44 13.5t-110.5 22t-158.5 13.5q-82 0 -148.5 -18t-125.5 -62.5t-99 -115.5t-63 -180.5t-23 -252.5t23 -252t62.5 -178.5t98.5 -113t125.5 -61t149.5 -17.5q123 0 237 26 v531h-336q-12 24 -12 63q0 19 3 35t6 22l3 7h482v-750q-6 -3 -18 -7.5t-51.5 -16t-83 -20.5t-111.5 -16t-138 -7q-292 0 -446 190.5t-154 566.5zM631 -422q8 7 19.5 20.5t33 59.5t25.5 98q-18 1 -33 3.5t-21 4.5l-6 3v139q31 10 90 10q25 0 47 -2.5t32 -5.5l9 -2v-96 q0 -49 -14 -95t-33.5 -76t-39.5 -53.5t-34 -33.5l-14 -11z" />
<glyph unicode="&#x123;" horiz-adv-x="1075" d="M74 -221q0 57 20 108.5t52 88.5t57.5 59.5t50.5 38.5q-47 47 -47 119q0 107 96 225q-89 41 -135.5 123t-46.5 196q0 169 101.5 265t285.5 96q128 0 221 -49l279 47q10 -26 10 -61.5t-10 -63.5l-185 -4q72 -87 72 -230q0 -169 -100 -263.5t-287 -94.5q-70 0 -109 10 q-57 -74 -55 -151q3 -42 41 -66t96.5 -34t128.5 -17.5t140 -22.5t127 -42t93 -84.5t36 -141.5q0 -148 -135.5 -245t-376.5 -97q-211 0 -315.5 80t-104.5 211zM221 -193q0 -95 70.5 -151.5t206.5 -56.5q168 0 266 59t98 156q0 59 -34.5 96t-95 52.5t-123.5 23t-140.5 17.5 t-124.5 26q-57 -40 -90 -99.5t-33 -122.5zM266 739q0 -124 65.5 -188t176.5 -64q112 0 177 64t65 188q0 123 -65 186.5t-177 63.5q-111 0 -176.5 -64t-65.5 -186zM426 1243v92q0 46 13 89.5t31.5 72t37.5 50.5t32 32l13 10l59 -35q-7 -7 -18 -19.5t-31 -56.5t-24 -92 q17 -1 31.5 -3.5t19.5 -4.5l6 -2v-133q-29 -8 -84 -8q-24 0 -45.5 2t-30.5 4z" />
<glyph unicode="&#x124;" horiz-adv-x="1388" d="M197 12v1450q26 13 75 13q22 0 41 -3.5t27 -6.5l8 -3v-639h692v639q27 13 76 13q22 0 41 -3.5t27 -6.5l8 -3v-1450q-25 -12 -76 -12q-24 0 -43 3t-26 6l-7 3v676h-692v-676q-27 -12 -76 -12q-24 0 -43 3t-25 6zM412 1634l270 221h53l271 -221q-24 -56 -70 -71l-229 161 l-226 -161q-51 19 -69 71z" />
<glyph unicode="&#x125;" horiz-adv-x="1124" d="M-37 1634l260 215h51l258 -215q-20 -53 -67 -67l-219 155l-215 -155q-50 18 -68 67zM164 10v1516q23 10 74 10q22 0 40 -2.5t26 -5.5l7 -2v-588q128 160 340 160q149 0 232.5 -83.5t83.5 -223.5v-781q-27 -10 -74 -10q-23 0 -41.5 2.5t-25.5 5.5l-7 2v752q0 213 -221 213 q-86 0 -164 -50t-123 -137v-778q-24 -10 -73 -10q-23 0 -41.5 2.5t-25.5 5.5z" />
<glyph unicode="&#x126;" horiz-adv-x="1417" d="M80 1124q-16 54 0 101h133v237q27 13 76 13q22 0 41 -3.5t27 -6.5l8 -3v-237h692v237q27 13 76 13q22 0 40.5 -3.5t26.5 -6.5l8 -3v-237h154q16 -48 0 -101h-154v-1112q-24 -12 -75 -12q-24 0 -43 3t-26 6l-7 3v676h-692v-676q-27 -12 -76 -12q-24 0 -43 3t-26 6l-7 3 v1112h-133zM365 823h692v301h-692v-301z" />
<glyph unicode="&#x127;" horiz-adv-x="1124" d="M23 1268q-18 55 0 100h141v158q23 10 74 10q22 0 40 -2.5t26 -5.5l7 -2v-158h365q19 -47 0 -100h-365v-330q128 160 340 160q149 0 232.5 -83.5t83.5 -223.5v-781q-27 -10 -74 -10q-23 0 -41.5 2.5t-25.5 5.5l-7 2v752q0 213 -221 213q-86 0 -164 -50t-123 -137v-778 q-24 -10 -73 -10q-23 0 -41.5 2.5t-25.5 5.5l-7 2v1258h-141z" />
<glyph unicode="&#x128;" horiz-adv-x="544" d="M23 1640q2 4 5.5 10t17 21.5t30 27.5t44.5 22t60 10q56 0 119 -34t100 -34q25 0 47.5 13.5t32.5 26.5l10 13q21 -8 36.5 -25t19.5 -38q-2 -8 -18.5 -27.5t-55.5 -42t-84 -22.5q-36 0 -68 10.5t-52 23t-46.5 23t-52.5 10.5t-48.5 -13t-31.5 -25l-10 -13q-46 21 -55 63z M197 12v1450q24 13 75 13q23 0 42 -3.5t26 -6.5l8 -3v-1450q-27 -12 -76 -12q-24 0 -42.5 3t-25.5 6z" />
<glyph unicode="&#x129;" horiz-adv-x="487" d="M23 1358q6 22 43 55t92 33q37 0 68.5 -16.5t59 -33t54.5 -16.5q22 0 41 14.5t27 29.5l8 14q19 -8 33.5 -26.5t17.5 -41.5q-6 -13 -18.5 -31t-45.5 -39.5t-73 -21.5q-37 0 -68.5 17t-59 34t-55.5 17q-22 0 -40 -14t-25 -28l-8 -14q-48 25 -51 68zM170 10v1057q21 10 74 10 q22 0 40 -2.5t26 -4.5l7 -3v-1057q-24 -10 -73 -10q-24 0 -42.5 2.5t-25.5 5.5z" />
<glyph unicode="&#x12a;" horiz-adv-x="544" d="M-14 1563q-23 50 0 100h579q22 -46 0 -100h-579zM197 12v1450q24 13 75 13q23 0 42 -3.5t26 -6.5l8 -3v-1450q-27 -12 -76 -12q-24 0 -42.5 3t-25.5 6z" />
<glyph unicode="&#x12b;" horiz-adv-x="487" d="M55 1327q-14 52 0 96h381q14 -52 0 -96h-381zM170 10v1057q21 10 74 10q22 0 40 -2.5t26 -4.5l7 -3v-1057q-24 -10 -73 -10q-24 0 -42.5 2.5t-25.5 5.5z" />
<glyph unicode="&#x12c;" horiz-adv-x="544" d="M-31 1714q16 54 68 72q10 -8 29 -20.5t79 -33t123 -20.5t120.5 18.5t83.5 37.5l26 18q52 -14 69 -72q-4 -5 -12 -12.5t-36 -27.5t-60 -35t-83.5 -27.5t-107.5 -12.5t-107 12t-84.5 28.5t-59 33.5t-37.5 29zM197 12v1450q24 13 75 13q23 0 42 -3.5t26 -6.5l8 -3v-1450 q-27 -12 -76 -12q-24 0 -42.5 3t-25.5 6z" />
<glyph unicode="&#x12d;" horiz-adv-x="487" d="M-49 1397q17 57 67 71q4 -3 10.5 -8t29 -17.5t46.5 -22t62 -17.5t76 -8q61 0 116.5 18.5t81.5 36.5l25 18q51 -15 67 -71q-4 -5 -11.5 -13.5t-34.5 -29.5t-58 -37t-81 -29.5t-105 -13.5q-54 0 -104 12.5t-82.5 31t-57 36.5t-36.5 30zM170 10v1057q21 10 74 10 q22 0 40 -2.5t26 -4.5l7 -3v-1057q-24 -10 -73 -10q-24 0 -42.5 2.5t-25.5 5.5z" />
<glyph unicode="&#x12e;" horiz-adv-x="544" d="M27 -195q0 75 45 131.5t125 86.5v1439q24 13 75 13q23 0 42 -3.5t26 -6.5l8 -3v-1450v-2q-215 -55 -215 -188q0 -51 31 -78t80 -27q19 0 37.5 4.5t26.5 8.5l9 4q27 -21 27 -66q-53 -37 -131 -37q-84 0 -135 47.5t-51 126.5z" />
<glyph unicode="&#x12f;" horiz-adv-x="487" d="M27 -215q0 68 38 129.5t105 97.5v1055q21 10 74 10q22 0 40 -2.5t26 -4.5l7 -3v-1057q-82 -28 -127 -85t-45 -124q0 -88 111 -88q19 0 37.5 4.5t27.5 8.5l9 4q28 -22 24 -74q-53 -35 -129 -35q-88 0 -143 42.5t-55 121.5zM160 1251v150q27 10 84 10q24 0 45 -2.5t30 -4.5 l9 -3v-150q-29 -10 -84 -10q-25 0 -46 2.5t-30 4.5z" />
<glyph unicode="&#x130;" horiz-adv-x="544" d="M190 1587v150q27 10 82 10q24 0 45 -2.5t30 -4.5l9 -3v-150q-29 -10 -84 -10q-24 0 -44.5 2.5t-29.5 4.5zM197 12v1450q24 13 75 13q23 0 42 -3.5t26 -6.5l8 -3v-1450q-27 -12 -76 -12q-24 0 -42.5 3t-25.5 6z" />
<glyph unicode="&#x131;" horiz-adv-x="487" d="M170 10v1057q21 10 74 10q22 0 40 -2.5t26 -4.5l7 -3v-1057q-24 -10 -73 -10q-24 0 -42.5 2.5t-25.5 5.5z" />
<glyph unicode="&#x132;" horiz-adv-x="1341" d="M197 12v1450q24 13 75 13q23 0 42 -3.5t26 -6.5l8 -3v-1450q-27 -12 -76 -12q-24 0 -42.5 3t-25.5 6zM504 41q-3 74 43 117q104 -43 221 -43q236 0 236 241v1106q20 13 75 13q22 0 41 -3.5t27 -6.5l8 -3v-1106q0 -376 -362 -376q-70 0 -142.5 15t-109.5 31z" />
<glyph unicode="&#x133;" horiz-adv-x="944" d="M160 1311v149q27 10 84 10q24 0 45 -2.5t30 -5.5l9 -2v-149q-29 -11 -84 -11q-25 0 -46 3t-30 5zM170 10v1057q21 10 74 10q22 0 40 -2.5t26 -4.5l7 -3v-1057q-24 -10 -73 -10q-24 0 -42.5 2.5t-25.5 5.5zM354 -459q0 23 4 42t8 27l5 7q33 -8 82 -8q88 0 131 48.5 t43 154.5v1255q20 10 73 10q22 0 40.5 -2.5t25.5 -4.5l8 -3v-1247q0 -165 -74 -248.5t-213 -83.5q-38 0 -70 4.5t-45 9.5l-12 4q-6 15 -6 35zM616 1315v149q27 11 84 11q24 0 44.5 -2.5t29.5 -5.5l8 -3v-149q-29 -12 -82 -12q-25 0 -46 3t-30 6z" />
<glyph unicode="&#x134;" horiz-adv-x="884" d="M49 41q-3 73 41 117q104 -43 221 -43q236 0 236 241v1106q21 13 76 13q23 0 41.5 -3.5t25.5 -6.5l8 -3v-1102q0 -192 -92.5 -286t-267.5 -94q-71 0 -143.5 15t-108.5 31zM326 1634l270 221h53l271 -221q-24 -56 -70 -71l-229 161l-226 -161q-51 19 -69 71z" />
<glyph unicode="&#x135;" horiz-adv-x="487" d="M-102 -459q0 23 4 42t8 27l4 7q33 -8 82 -8q88 0 131 48.5t43 154.5v1255q21 10 74 10q22 0 40 -2.5t26 -4.5l7 -3v-1247q0 -165 -74 -248.5t-212 -83.5q-38 0 -70 4.5t-45 9.5l-12 4q-6 15 -6 35zM-47 1266l264 215h53l265 -215q-25 -59 -70 -70l-223 158l-222 -160 q-48 18 -67 72z" />
<glyph unicode="&#x136;" horiz-adv-x="1255" d="M197 12v1450q26 13 77 13q22 0 40.5 -3.5t25.5 -6.5l8 -3v-633h209l442 633q35 13 78 13q47 0 82 -13l-475 -680l535 -770q-30 -12 -89 -12q-24 0 -46.5 3t-33.5 6l-10 3l-481 690h-211v-690q-23 -12 -76 -12q-22 0 -40.5 3t-26.5 6zM555 -442q7 7 18 21.5t30.5 63.5 t23.5 105q-16 1 -29.5 3.5t-19.5 4.5l-5 2v150q29 10 82 10q24 0 45 -2.5t30 -5.5l9 -2v-103q0 -53 -13 -102.5t-31.5 -81.5t-37.5 -57t-32 -36l-13 -11z" />
<glyph unicode="&#x137;" horiz-adv-x="1019" d="M164 10v1518q29 8 76 8q19 0 37 -2t26 -4l8 -2v-907h174l301 446q29 10 80 10q20 0 38 -2.5t26 -4.5l8 -3l-332 -494l381 -561q-33 -12 -84 -12q-24 0 -45 3t-30 6l-9 3l-336 492h-172v-494q-26 -10 -71 -10q-22 0 -41 2.5t-27 5.5zM457 -442q7 7 17.5 21.5t30 63 t23.5 103.5q-17 1 -31 3.5t-19 4.5l-5 2v150q29 10 82 10q24 0 45 -2.5t30 -5.5l9 -2v-103q0 -53 -13 -102t-31.5 -81t-36.5 -56.5t-31 -35.5l-13 -11z" />
<glyph unicode="&#x138;" horiz-adv-x="1038" d="M164 12v1057q27 8 76 8q50 0 71 -8v-565l488 565q33 8 80 8q51 0 82 -10l-381 -440l426 -611q-29 -16 -86 -16q-26 0 -48.5 3t-31.5 6l-9 3l-354 496l-166 -193v-303q-30 -12 -71 -12q-46 0 -76 12z" />
<glyph unicode="&#x139;" horiz-adv-x="1050" d="M158 1597l213 295q39 3 76.5 -13.5t54.5 -45.5l-256 -285q-65 7 -88 49zM197 0v1462q26 13 75 13q23 0 42 -3.5t26 -6.5l8 -3v-1329h641q10 -35 10 -65q0 -28 -10 -68h-792z" />
<glyph unicode="&#x13a;" horiz-adv-x="495" d="M111 1640l213 295q39 3 76.5 -13.5t54.5 -45.5l-256 -285q-65 7 -88 49zM174 10v1516q21 10 74 10q22 0 40.5 -2.5t25.5 -5.5l8 -2v-1516q-25 -10 -74 -10q-24 0 -42.5 2.5t-25.5 5.5z" />
<glyph unicode="&#x13b;" horiz-adv-x="1050" d="M197 0v1462q26 13 75 13q23 0 42 -3.5t26 -6.5l8 -3v-1329h641q10 -35 10 -65q0 -28 -10 -68h-792zM506 -442q7 7 18 21.5t30.5 63.5t23.5 105q-16 1 -30 3.5t-20 4.5l-6 2v150q29 10 84 10q24 0 44.5 -2.5t29.5 -5.5l8 -2v-103q0 -53 -13 -102.5t-31 -81.5t-36.5 -57 t-31.5 -36l-13 -11z" />
<glyph unicode="&#x13c;" horiz-adv-x="495" d="M150 -442q7 7 17.5 21.5t30 63.5t23.5 105q-17 1 -31 3.5t-19 4.5l-5 2v150q29 10 82 10q24 0 45 -2.5t30 -5.5l9 -2v-103q0 -53 -13 -102.5t-31 -81.5t-36.5 -57t-31.5 -36l-13 -11zM174 10v1516q21 10 74 10q22 0 40.5 -2.5t25.5 -5.5l8 -2v-1516q-25 -10 -74 -10 q-24 0 -42.5 2.5t-25.5 5.5z" />
<glyph unicode="&#x13d;" horiz-adv-x="1048" d="M197 0v1462q26 13 75 13q23 0 42 -3.5t26 -6.5l8 -3v-1329h641q10 -35 10 -65q0 -28 -10 -68h-792zM528 1243q67 58 97.5 126.5t33.5 164.5q85 6 129 -29q-12 -98 -65 -184t-129 -123q-47 9 -66 45z" />
<glyph unicode="&#x13e;" horiz-adv-x="512" d="M174 10v1516q21 10 74 10q22 0 40.5 -2.5t25.5 -5.5l8 -2v-1516q-25 -10 -74 -10q-24 0 -42.5 2.5t-25.5 5.5zM422 1231q61 64 84.5 135t15.5 166q84 19 131 -14q-3 -100 -46 -191t-115 -135q-50 6 -70 39z" />
<glyph unicode="&#x13f;" horiz-adv-x="1067" d="M197 0v1462q26 13 75 13q23 0 42 -3.5t26 -6.5l8 -3v-1329h641q10 -35 10 -65q0 -28 -10 -68h-792zM717 618v134q25 10 76 10q22 0 40.5 -2.5t26.5 -5.5l8 -2v-134q-26 -12 -75 -12q-23 0 -42 3t-27 6z" />
<glyph unicode="&#x140;" horiz-adv-x="690" d="M174 10v1516q21 10 74 10q22 0 40.5 -2.5t25.5 -5.5l8 -2v-1516q-25 -10 -74 -10q-24 0 -42.5 2.5t-25.5 5.5zM537 618v134q22 10 75 10q22 0 41 -2.5t27 -5.5l8 -2v-134q-27 -12 -76 -12q-24 0 -42.5 3t-25.5 6z" />
<glyph unicode="&#x141;" horiz-adv-x="1097" d="M27 651l219 127v684q27 13 76 13q23 0 41.5 -3.5t26.5 -6.5l7 -3v-596l308 178q42 -31 51 -88l-359 -206v-617h641q11 -39 11 -65q0 -24 -11 -68h-792v662l-168 -97q-41 30 -51 86z" />
<glyph unicode="&#x142;" horiz-adv-x="688" d="M61 719l207 121v686q21 10 74 10q22 0 40.5 -2.5t25.5 -5.5l8 -2v-600l166 94q16 -8 32 -37q17 -33 17 -51l-215 -125v-797q-25 -10 -74 -10q-24 0 -42.5 2.5t-25.5 5.5l-6 2v711l-155 -88q-15 5 -33 37q-19 32 -19 49z" />
<glyph unicode="&#x143;" horiz-adv-x="1425" d="M197 12v1450q31 13 90 13q26 0 48 -3.5t31 -6.5l9 -3l602 -1030q31 -53 60.5 -112t42.5 -92l14 -33h6q-13 131 -13 305v962q23 13 72 13q23 0 40.5 -3.5t23.5 -6.5l6 -3v-1450q-27 -12 -88 -12q-26 0 -48.5 3t-32.5 6l-9 3l-607 1043q-33 55 -60.5 111t-38.5 85l-11 29 h-6q10 -110 10 -311v-957q-23 -12 -72 -12q-22 0 -39 3t-23 6zM639 1597l213 295q39 3 76.5 -13.5t54.5 -45.5l-256 -285q-65 7 -88 49z" />
<glyph unicode="&#x144;" horiz-adv-x="1124" d="M164 10v1057q23 10 74 10q22 0 40 -2.5t26 -4.5l7 -3v-129q128 160 340 160q149 0 232.5 -83.5t83.5 -223.5v-781q-27 -10 -74 -10q-23 0 -41.5 2.5t-25.5 5.5l-7 2v752q0 213 -221 213q-86 0 -164 -50t-123 -137v-778q-24 -10 -73 -10q-23 0 -41.5 2.5t-25.5 5.5z M393 1292l213 295q39 3 76.5 -13.5t54.5 -45.5l-256 -285q-65 7 -88 49z" />
<glyph unicode="&#x145;" horiz-adv-x="1425" d="M197 12v1450q31 13 90 13q26 0 48 -3.5t31 -6.5l9 -3l602 -1030q31 -53 60.5 -112t42.5 -92l14 -33h6q-13 131 -13 305v962q23 13 72 13q23 0 40.5 -3.5t23.5 -6.5l6 -3v-1450q-27 -12 -88 -12q-26 0 -48.5 3t-32.5 6l-9 3l-607 1043q-33 55 -60.5 111t-38.5 85l-11 29 h-6q10 -110 10 -311v-957q-23 -12 -72 -12q-22 0 -39 3t-23 6zM627 -442q3 3 7 8t15.5 23t20.5 38t17.5 53t10.5 68q-16 1 -29.5 3.5t-18.5 4.5l-5 2v150q29 10 82 10q24 0 45 -2.5t30 -5.5l9 -2v-103q0 -53 -13 -102.5t-31.5 -81.5t-37.5 -57t-32 -36l-13 -11z" />
<glyph unicode="&#x146;" horiz-adv-x="1124" d="M164 10v1057q23 10 74 10q22 0 40 -2.5t26 -4.5l7 -3v-129q128 160 340 160q149 0 232.5 -83.5t83.5 -223.5v-781q-27 -10 -74 -10q-23 0 -41.5 2.5t-25.5 5.5l-7 2v752q0 213 -221 213q-86 0 -164 -50t-123 -137v-778q-24 -10 -73 -10q-23 0 -41.5 2.5t-25.5 5.5z M475 -446q7 7 17.5 21.5t30.5 63t24 103.5q-16 1 -30 3.5t-19 4.5l-6 2v152q28 10 83 10q24 0 44.5 -2.5t28.5 -5.5l9 -2v-105q0 -53 -13 -101.5t-31.5 -80.5t-36.5 -57t-31 -36l-13 -11z" />
<glyph unicode="&#x147;" horiz-adv-x="1425" d="M197 12v1450q31 13 90 13q26 0 48 -3.5t31 -6.5l9 -3l602 -1030q31 -53 60.5 -112t42.5 -92l14 -33h6q-13 131 -13 305v962q23 13 72 13q23 0 40.5 -3.5t23.5 -6.5l6 -3v-1450q-27 -12 -88 -12q-26 0 -48.5 3t-32.5 6l-9 3l-607 1043q-33 55 -60.5 111t-38.5 85l-11 29 h-6q10 -110 10 -311v-957q-23 -12 -72 -12q-22 0 -39 3t-23 6zM430 1784q19 52 70 71l229 -161l225 159q47 -15 70 -69l-270 -221h-54z" />
<glyph unicode="&#x148;" horiz-adv-x="1124" d="M164 10v1057q23 10 74 10q22 0 40 -2.5t26 -4.5l7 -3v-129q128 160 340 160q149 0 232.5 -83.5t83.5 -223.5v-781q-27 -10 -74 -10q-23 0 -41.5 2.5t-25.5 5.5l-7 2v752q0 213 -221 213q-86 0 -164 -50t-123 -137v-778q-24 -10 -73 -10q-23 0 -41.5 2.5t-25.5 5.5z M303 1446q19 53 64 67l208 -149l207 147q43 -11 66 -65l-248 -203h-47z" />
<glyph unicode="&#x149;" horiz-adv-x="1124" d="M154 1243q67 58 97.5 126.5t33.5 164.5q85 6 129 -29q-12 -98 -65.5 -184t-129.5 -123q-46 9 -65 45zM164 10v1057q23 10 74 10q22 0 40 -2.5t26 -4.5l7 -3v-129q128 160 340 160q149 0 232.5 -83.5t83.5 -223.5v-781q-27 -10 -74 -10q-23 0 -41.5 2.5t-25.5 5.5l-7 2 v752q0 213 -221 213q-86 0 -164 -50t-123 -137v-778q-24 -10 -73 -10q-23 0 -41.5 2.5t-25.5 5.5z" />
<glyph unicode="&#x14a;" horiz-adv-x="1425" d="M197 12v1450q31 13 90 13q26 0 48 -3.5t31 -6.5l9 -3l602 -1030q31 -53 60.5 -112t42.5 -92l14 -33h6q-13 131 -13 305v962q23 13 72 13q23 0 40.5 -3.5t23.5 -6.5l6 -3v-1560q0 -153 -53.5 -239.5t-186.5 -129.5q-54 35 -47 111q76 28 107.5 85t31.5 171v104l-30 8 l-607 1043q-33 55 -60.5 111t-38.5 85l-11 29h-6q10 -110 10 -311v-957q-23 -12 -72 -12q-22 0 -39 3t-23 6z" />
<glyph unicode="&#x14b;" horiz-adv-x="1124" d="M164 10v1057q23 10 74 10q22 0 40 -2.5t26 -4.5l7 -3v-129q128 160 340 160q149 0 232.5 -83.5t83.5 -223.5v-889q0 -153 -53.5 -239.5t-186.5 -129.5q-52 36 -49 109q78 28 109.5 86t31.5 172v862q0 213 -221 213q-86 0 -164 -50t-123 -137v-778q-24 -10 -73 -10 q-23 0 -41.5 2.5t-25.5 5.5z" />
<glyph unicode="&#x14c;" horiz-adv-x="1388" d="M131 737q0 385 147 571.5t416 186.5q270 0 416.5 -186t146.5 -572q0 -387 -146 -572t-417 -185t-417 185t-146 572zM291 737q0 -174 28 -297.5t82 -196t125.5 -105t167.5 -32.5t167.5 32.5t126 105t82.5 196t28 297.5t-28 297.5t-82.5 196t-126 105t-167.5 32.5 t-167.5 -32.5t-125.5 -105t-82 -196t-28 -297.5zM420 1620q-15 50 0 100h563q15 -44 0 -100h-563z" />
<glyph unicode="&#x14d;" horiz-adv-x="1110" d="M117 539q0 294 112 426.5t326 132.5t326 -132.5t112 -426.5t-112 -426.5t-326 -132.5t-326 132.5t-112 426.5zM268 539q0 -126 19.5 -213.5t58.5 -137t89.5 -71t119.5 -21.5t119.5 21.5t89.5 71t58.5 137t19.5 213.5t-19.5 213t-58.5 136.5t-89.5 71t-119.5 21.5 t-119.5 -21.5t-89.5 -71t-58.5 -136.5t-19.5 -213zM305 1321q-13 53 0 100h496q17 -48 0 -100h-496z" />
<glyph unicode="&#x14e;" horiz-adv-x="1388" d="M131 737q0 385 147 571.5t416 186.5q270 0 416.5 -186t146.5 -572q0 -387 -146 -572t-417 -185t-417 185t-146 572zM291 737q0 -174 28 -297.5t82 -196t125.5 -105t167.5 -32.5t167.5 32.5t126 105t82.5 196t28 297.5t-28 297.5t-82.5 196t-126 105t-167.5 32.5 t-167.5 -32.5t-125.5 -105t-82 -196t-28 -297.5zM399 1714q16 54 68 72q10 -8 29 -20.5t79 -33t123 -20.5t120.5 18.5t83.5 37.5l26 18q52 -14 69 -72q-4 -5 -12 -12.5t-36 -27.5t-60 -35t-83.5 -27.5t-107.5 -12.5t-107.5 12t-85 28.5t-58.5 33.5t-37 29z" />
<glyph unicode="&#x14f;" horiz-adv-x="1110" d="M117 539q0 294 112 426.5t326 132.5t326 -132.5t112 -426.5t-112 -426.5t-326 -132.5t-326 132.5t-112 426.5zM262 1403q17 57 68 74q4 -3 10.5 -8t28.5 -18.5t46.5 -23.5t62 -18t75.5 -8q61 0 116.5 19t80.5 38l26 19q51 -15 68 -74q-4 -5 -11.5 -13t-34.5 -29t-58 -37 t-81.5 -29t-105.5 -13q-54 0 -104 12.5t-82.5 30t-57 35.5t-35.5 30zM268 539q0 -126 19.5 -213.5t58.5 -137t89.5 -71t119.5 -21.5t119.5 21.5t89.5 71t58.5 137t19.5 213.5t-19.5 213t-58.5 136.5t-89.5 71t-119.5 21.5t-119.5 -21.5t-89.5 -71t-58.5 -136.5t-19.5 -213z " />
<glyph unicode="&#x150;" horiz-adv-x="1388" d="M131 737q0 385 147 571.5t416 186.5q270 0 416.5 -186t146.5 -572q0 -387 -146 -572t-417 -185t-417 185t-146 572zM291 737q0 -174 28 -297.5t82 -196t125.5 -105t167.5 -32.5t167.5 32.5t126 105t82.5 196t28 297.5t-28 297.5t-82.5 196t-126 105t-167.5 32.5 t-167.5 -32.5t-125.5 -105t-82 -196t-28 -297.5zM453 1606l182 272q39 3 77 -13t58 -44l-231 -262q-64 10 -86 47zM762 1606l184 272q40 3 77 -13t56 -44l-231 -262q-61 10 -86 47z" />
<glyph unicode="&#x151;" horiz-adv-x="1110" d="M117 539q0 294 112 426.5t326 132.5t326 -132.5t112 -426.5t-112 -426.5t-326 -132.5t-326 132.5t-112 426.5zM268 539q0 -126 19.5 -213.5t58.5 -137t89.5 -71t119.5 -21.5t119.5 21.5t89.5 71t58.5 137t19.5 213.5t-19.5 213t-58.5 136.5t-89.5 71t-119.5 21.5 t-119.5 -21.5t-89.5 -71t-58.5 -136.5t-19.5 -213zM344 1282l191 246q36 3 72 -11t55 -38l-236 -240q-61 10 -82 43zM643 1282l188 246q36 3 73.5 -11.5t56.5 -37.5l-236 -240q-61 10 -82 43z" />
<glyph unicode="&#x152;" horiz-adv-x="1746" d="M131 737q0 386 151 572t429 186q86 0 176 -20h733q12 -27 12 -64q0 -36 -12 -63h-576v-539h474q12 -27 12 -61t-12 -64h-474v-557h596q13 -33 13 -64t-13 -63h-755q-90 -20 -174 -20q-277 0 -428.5 186t-151.5 571zM291 737q0 -174 29.5 -297.5t86 -196t131 -105 t173.5 -32.5q101 0 182 33v1196q-81 33 -182 33q-99 0 -173.5 -32.5t-131 -105t-86 -196t-29.5 -297.5z" />
<glyph unicode="&#x153;" horiz-adv-x="1685" d="M117 539q0 294 111 426.5t321 132.5q124 0 205.5 -53.5t126.5 -170.5q92 224 323 224q180 0 278.5 -105.5t98.5 -292.5q0 -56 -5.5 -108t-11.5 -76l-5 -24h-611q10 -208 77.5 -298t207.5 -90q64 0 124.5 16.5t88.5 33.5l29 16q44 -28 51 -100q-4 -4 -12.5 -10t-38 -21.5 t-64 -27.5t-90 -21.5t-115.5 -9.5q-238 0 -327 221q-45 -113 -126.5 -167t-203.5 -54q-210 0 -321 132.5t-111 426.5zM270 539q0 -125 19 -213t57 -137.5t87 -71t116 -21.5q90 0 145.5 39.5t85 138t29.5 267.5q0 168 -29.5 266t-84.5 136t-146 38q-67 0 -116 -21.5t-87 -71 t-57 -137t-19 -212.5zM948 602h475q0 3 2.5 19.5t4.5 43t2 54.5q0 115 -54.5 186.5t-173.5 71.5q-117 0 -181.5 -90t-74.5 -285z" />
<glyph unicode="&#x154;" horiz-adv-x="1271" d="M197 12v1463h508q195 0 309 -115t114 -305q0 -156 -77.5 -263t-216.5 -141l354 -639q-31 -12 -88 -12q-25 0 -47 3t-31 6l-10 3l-344 623h-320v-623q-25 -12 -74 -12q-24 0 -43.5 3t-26.5 6zM348 764h342q131 0 205 76.5t74 214.5q0 136 -74 213.5t-205 77.5h-342v-582z M444 1597l213 295q39 3 76.5 -13.5t54.5 -45.5l-256 -285q-65 7 -88 49z" />
<glyph unicode="&#x155;" horiz-adv-x="800" d="M164 10v1057q23 10 74 10q23 0 41 -2.5t25 -4.5l7 -3v-168q108 197 277 197q97 0 176 -49q-9 -77 -68 -125q-64 41 -139 41q-70 0 -135 -55t-111 -150v-748q-22 -10 -73 -10q-23 0 -41.5 2.5t-25.5 5.5zM291 1292l213 295q39 3 76.5 -13.5t54.5 -45.5l-256 -285 q-65 7 -88 49z" />
<glyph unicode="&#x156;" horiz-adv-x="1271" d="M197 12v1463h508q195 0 309 -115t114 -305q0 -156 -77.5 -263t-216.5 -141l354 -639q-31 -12 -88 -12q-25 0 -47 3t-31 6l-10 3l-344 623h-320v-623q-25 -12 -74 -12q-24 0 -43.5 3t-26.5 6zM348 764h342q131 0 205 76.5t74 214.5q0 136 -74 213.5t-205 77.5h-342v-582z M555 -442q7 7 18 21.5t30.5 63.5t23.5 105q-16 1 -29.5 3.5t-19.5 4.5l-5 2v150q29 10 82 10q24 0 45 -2.5t30 -5.5l9 -2v-103q0 -53 -13 -102.5t-31.5 -81.5t-37.5 -57t-32 -36l-13 -11z" />
<glyph unicode="&#x157;" horiz-adv-x="800" d="M139 -442q7 7 18 21.5t30.5 63.5t23.5 105q-16 1 -30 3.5t-19 4.5l-6 2v150q29 10 84 10q24 0 44.5 -2.5t29.5 -5.5l8 -2v-103q0 -53 -13 -102.5t-31 -81.5t-36.5 -57t-31.5 -36l-13 -11zM164 10v1057q23 10 74 10q23 0 41 -2.5t25 -4.5l7 -3v-168q120 197 277 197 q97 0 176 -49q-9 -77 -68 -125q-64 41 -139 41q-127 0 -246 -205v-748q-22 -10 -73 -10q-23 0 -41.5 2.5t-25.5 5.5z" />
<glyph unicode="&#x158;" horiz-adv-x="1271" d="M197 12v1463h508q195 0 309 -115t114 -305q0 -156 -77.5 -263t-216.5 -141l354 -639q-31 -12 -88 -12q-25 0 -47 3t-31 6l-10 3l-344 623h-320v-623q-25 -12 -74 -12q-24 0 -43.5 3t-26.5 6zM297 1784q19 52 70 71l229 -161l225 159q47 -15 70 -69l-270 -221h-54z M348 764h342q131 0 205 76.5t74 214.5q0 136 -74 213.5t-205 77.5h-342v-582z" />
<glyph unicode="&#x159;" horiz-adv-x="800" d="M141 1438q19 49 66 67l209 -149l207 147q40 -14 63 -65l-248 -205h-47zM164 10v1057q23 10 74 10q23 0 41 -2.5t25 -4.5l7 -3v-168q120 197 277 197q97 0 176 -49q-9 -77 -68 -125q-64 41 -139 41q-127 0 -246 -205v-748q-22 -10 -73 -10q-23 0 -41.5 2.5t-25.5 5.5z" />
<glyph unicode="&#x15a;" horiz-adv-x="1157" d="M123 61q-3 79 39 121q21 -7 57 -17.5t136 -28t186 -17.5q173 0 263.5 69.5t90.5 202.5q0 53 -18.5 96t-45.5 70.5t-74.5 51.5t-86.5 37.5t-101 31.5q-171 50 -239 84q-159 78 -195 223q-12 47 -12 102q0 189 125.5 298.5t359.5 109.5q105 0 201.5 -13.5t140.5 -27.5 l45 -14q0 -78 -41 -119q-147 43 -325 43q-177 0 -266 -70t-89 -198q0 -51 20 -91.5t44.5 -65.5t79.5 -50t90 -36.5t111 -34.5q29 -9 43 -13q69 -21 117.5 -40t103.5 -53t89 -74.5t56.5 -103.5t22.5 -141q0 -197 -129.5 -305t-370.5 -108q-73 0 -144 8.5t-120 20t-87.5 23.5 t-57.5 20zM487 1626l209 277q38 1 76 -18.5t53 -47.5l-252 -264q-65 10 -86 53z" />
<glyph unicode="&#x15b;" horiz-adv-x="909" d="M111 49q-3 73 41 111q15 -6 41 -14.5t99.5 -22.5t137.5 -14q109 0 172.5 45t63.5 137q0 37 -15 67t-29 46.5t-57 35.5t-58.5 24t-74.5 22q-17 5 -26 8q-51 15 -85.5 27.5t-77.5 36.5t-68.5 52.5t-43.5 74t-18 101.5q0 143 94 227.5t276 84.5q81 0 150 -13t98 -25l29 -13 q2 -31 -9 -61t-32 -48q-98 35 -219 35q-120 0 -182 -46t-62 -134q0 -33 14.5 -59.5t34.5 -44t56.5 -34t65 -25.5t75.5 -22q42 -13 64.5 -20.5t60.5 -23t60 -30t49 -39t41.5 -51.5t25 -65.5t10.5 -83.5q0 -150 -95 -232.5t-280 -82.5q-57 0 -112 7t-92 17t-66 20.5t-43 17.5z M309 1292l213 295q39 3 76.5 -13.5t54.5 -45.5l-256 -285q-65 7 -88 49z" />
<glyph unicode="&#x15c;" horiz-adv-x="1155" d="M123 61q-3 79 39 121q21 -7 57 -17.5t136 -28t186 -17.5q173 0 263.5 69.5t90.5 202.5q0 35 -7 65.5t-23 55t-32 43.5t-45.5 36.5t-51 28.5t-61 25t-62.5 21t-68 20q-48 14 -78 23.5t-74.5 25.5t-72.5 32t-62.5 38.5t-56 50t-41 61.5t-28.5 77t-9 93q0 189 125.5 298.5 t359.5 109.5q105 0 201.5 -13.5t140.5 -27.5l45 -14q0 -75 -41 -119q-147 43 -325 43q-177 0 -266 -70t-89 -198q0 -51 20.5 -92t44.5 -65.5t81 -50.5t89.5 -37t110.5 -34q31 -9 46 -14q68 -21 116 -40t102.5 -52.5t88 -74.5t56 -103t22.5 -140q0 -197 -129.5 -305 t-370.5 -108q-73 0 -144 8.5t-120 20t-87.5 23.5t-57.5 20zM303 1647l272 221h54l268 -221q-21 -57 -68 -72l-229 162l-225 -162q-51 18 -72 72z" />
<glyph unicode="&#x15d;" horiz-adv-x="909" d="M111 49q-3 73 41 111q15 -6 41 -14.5t99.5 -22.5t137.5 -14q109 0 172.5 45t63.5 137q0 46 -17 79t-59 56t-70 33t-93 28q-11 3 -17 5q-52 15 -86.5 27.5t-78 37t-69.5 53t-44.5 74t-18.5 102.5q0 143 94 227.5t276 84.5q81 0 150 -13t98 -25l29 -13q2 -31 -9 -61 t-32 -48q-98 35 -219 35q-120 0 -182 -46t-62 -134q0 -40 19 -70t56.5 -50.5t74 -34t90.5 -29.5q12 -3 18 -5q54 -17 87 -29.5t78.5 -38.5t71 -55.5t44 -77.5t18.5 -108q0 -150 -95 -232.5t-280 -82.5q-57 0 -112 7t-92 17t-66 20.5t-43 17.5zM180 1290l264 215h52l264 -215 q-23 -55 -68 -69l-223 157l-221 -157q-49 18 -68 69z" />
<glyph unicode="&#x15e;" horiz-adv-x="1157" d="M123 61q-3 79 39 121q21 -7 57 -17.5t136 -28t186 -17.5q173 0 263.5 69.5t90.5 202.5q0 46 -11.5 83t-37 65t-52.5 48.5t-71 38t-77.5 28.5t-86.5 26q-171 51 -240 87q-159 83 -189 237q-7 40 -7 83q0 189 125.5 298.5t359.5 109.5q105 0 201.5 -13.5t140.5 -27.5 l45 -14q0 -78 -41 -119q-147 43 -325 43q-177 0 -266 -70t-89 -198q0 -28 6 -52.5t14 -43.5t26 -38t31 -31.5t41.5 -27t44 -22.5t52.5 -21t54 -19t60.5 -19.5t60.5 -18.5q68 -21 116 -39.5t103.5 -52.5t89 -74.5t56 -103t22.5 -140.5q0 -185 -116 -292.5t-331 -120.5 l-18 -99q221 0 221 -188q0 -100 -61.5 -151.5t-178.5 -51.5q-50 0 -96 12t-67 24l-21 11q0 47 35 72q66 -33 143 -33q141 0 141 119q0 106 -127 106h-71l-21 25l29 154q-106 4 -203 24t-141 38z" />
<glyph unicode="&#x15f;" horiz-adv-x="909" d="M111 49q-3 73 41 111q15 -6 41 -14.5t99.5 -22.5t137.5 -14q109 0 172.5 45t63.5 137q0 46 -18.5 79t-56 54.5t-72.5 34t-90 28.5q-13 3 -19 5q-51 15 -86.5 28t-78.5 37t-69.5 53t-44.5 74.5t-18 101.5q0 143 94 227.5t276 84.5q81 0 150 -13t98 -25l29 -13 q2 -31 -9 -61t-32 -48q-98 35 -219 35q-120 0 -182 -46t-62 -134q0 -27 8.5 -50t28.5 -41t38.5 -31t52 -26t56 -20t62.5 -19q57 -17 90.5 -28.5t81 -37.5t74 -55.5t46 -78.5t19.5 -111q0 -140 -83 -221.5t-245 -93.5l-18 -97q111 0 163 -48t52 -132q0 -96 -60 -146.5 t-173 -50.5q-49 0 -94.5 12t-66.5 24l-20 12q0 42 35 67q66 -33 139 -33q66 0 103 29t37 88q0 48 -31.5 75t-93.5 27h-70l-20 23l28 150q-80 4 -151 21.5t-102 32.5z" />
<glyph unicode="&#x160;" horiz-adv-x="1157" d="M123 61q0 73 39 121q21 -7 57 -17.5t136 -28t186 -17.5q173 0 263.5 69.5t90.5 202.5q0 39 -10 72.5t-25.5 58t-43 47t-52 37t-64.5 30t-68 24.5t-75 22q-172 50 -244 88q-160 85 -185 248q-5 33 -5 69q0 189 125.5 298.5t359.5 109.5q105 0 201.5 -13.5t140.5 -27.5 l45 -14q0 -75 -41 -119q-147 43 -325 43q-177 0 -266 -70t-89 -198q0 -52 18.5 -92.5t49 -67t77.5 -49t95.5 -38t110.5 -33.5q6 -1 9 -2t8 -2.5t9 -2.5q50 -15 85.5 -27.5t80.5 -33t76 -42t63 -53t51 -68t31.5 -85.5t12.5 -107q0 -197 -129.5 -305t-370.5 -108 q-73 0 -144 8.5t-120 20t-87.5 23.5t-57.5 20zM315 1800q23 58 72 72l227 -162l226 160q48 -12 69 -70l-268 -215h-53z" />
<glyph unicode="&#x161;" horiz-adv-x="909" d="M111 49q-3 73 41 111q15 -6 41 -14.5t99.5 -22.5t137.5 -14q109 0 172.5 45t63.5 137q0 37 -14 66.5t-33 48t-54.5 35t-62 25t-72.5 21.5q-12 3 -18 5q-52 15 -87 27.5t-79 37t-70 53t-44.5 74t-18.5 102.5q0 143 94 227.5t276 84.5q81 0 150 -13t98 -25l29 -13 q2 -31 -9 -61t-32 -48q-98 35 -219 35q-120 0 -182 -46t-62 -134q0 -33 14 -59.5t34 -44t55.5 -34t63 -25.5t73.5 -22q41 -12 65.5 -19.5t62.5 -23t60.5 -30t50 -38.5t42.5 -51.5t25.5 -66t10.5 -84.5q0 -150 -95 -232.5t-280 -82.5q-57 0 -112 7t-92 17t-66 20.5t-43 17.5z M205 1442q19 49 65 63l205 -145l205 145q41 -14 61 -63l-241 -201h-49z" />
<glyph unicode="&#x162;" horiz-adv-x="1103" d="M59 1409q0 17 3.5 33.5t6.5 24.5l3 8h960q12 -25 12 -66q0 -17 -3 -34t-6 -25l-3 -9h-399v-1329q-27 -12 -76 -12q-24 0 -43 3t-26 6l-7 3v1329h-409q-13 27 -13 68zM467 -465q7 7 18 21.5t30.5 63.5t23.5 104q-16 1 -30 3.5t-20 4.5l-6 2v149q29 11 84 11q24 0 44.5 -3 t28.5 -5l9 -3v-102q0 -53 -13 -101.5t-31.5 -81t-36.5 -57t-31 -35.5l-13 -12z" />
<glyph unicode="&#x163;" horiz-adv-x="753" d="M57 1018q0 18 3 33t6 21l2 5h159v195q58 40 148 33v-228h293q10 -20 10 -57q0 -16 -2.5 -31t-5.5 -21l-2 -7h-293v-588q0 -149 48 -210t169 -61q23 0 48 3t38 5l14 3q13 -25 13 -62q0 -16 -2.5 -29.5t-4.5 -19.5l-2 -6q-53 -16 -143 -16q-176 0 -251 96t-75 291v594h-159 q-11 20 -11 57zM393 -496q7 7 18 21.5t30.5 64t23.5 105.5q-16 1 -30 3.5t-19 4.5l-6 2v150q29 10 84 10q24 0 44.5 -2.5t28.5 -4.5l8 -3v-103q0 -53 -13 -102t-31 -81.5t-36 -57t-31 -35.5l-13 -11z" />
<glyph unicode="&#x164;" horiz-adv-x="1103" d="M59 1409q0 17 3.5 33.5t6.5 24.5l3 8h960q12 -25 12 -66q0 -17 -3 -34t-6 -25l-3 -9h-399v-1329q-27 -12 -76 -12q-24 0 -43 3t-26 6l-7 3v1329h-409q-13 27 -13 68zM262 1784q19 52 70 71l229 -161l225 159q47 -15 70 -69l-270 -221h-54z" />
<glyph unicode="&#x165;" horiz-adv-x="753" d="M57 1018q0 18 3 33t6 21l2 5h159v195q58 40 148 33v-228h293q10 -20 10 -57q0 -16 -2.5 -31t-5.5 -21l-2 -7h-293v-588q0 -149 48 -210t169 -61q23 0 48 3t38 5l14 3q13 -25 13 -62q0 -16 -2.5 -29.5t-4.5 -19.5l-2 -6q-53 -16 -143 -16q-176 0 -251 96t-75 291v594h-159 q-11 20 -11 57zM549 1243q67 58 97.5 126.5t33.5 164.5q85 6 129 -29q-12 -98 -65.5 -184t-129.5 -123q-46 9 -65 45z" />
<glyph unicode="&#x166;" horiz-adv-x="1134" d="M74 1409q0 17 3 33.5t6 24.5l3 8h961q12 -25 12 -66q0 -17 -3 -34t-6 -25l-3 -9h-400v-587h268q14 -43 0 -101h-268v-641q-27 -12 -76 -12q-24 0 -42.5 3t-25.5 6l-7 3v641h-275q-12 54 0 101h275v587h-410q-12 27 -12 68z" />
<glyph unicode="&#x167;" horiz-adv-x="759" d="M61 1018q0 18 2.5 33t5.5 21l3 5h159v195q58 40 148 33v-228h293q10 -20 10 -57q0 -16 -2.5 -31t-5.5 -21l-2 -7h-293v-330h276q14 -44 0 -99h-276v-159q0 -149 48 -210t169 -61q23 0 48 3t38 5l14 3q13 -25 13 -62q0 -16 -2.5 -29.5t-4.5 -19.5l-2 -6q-53 -16 -143 -16 q-176 0 -251 96t-75 291v165h-137q-12 51 0 99h137v330h-159q-11 20 -11 57z" />
<glyph unicode="&#x168;" horiz-adv-x="1368" d="M186 481v981q27 13 76 13q23 0 42 -3.5t26 -6.5l8 -3v-1003q0 -166 92 -258t258 -92q164 0 255 92t91 258v1003q25 13 74 13q22 0 41 -3.5t27 -6.5l8 -3v-981q0 -238 -136 -369.5t-364 -131.5t-363 133t-135 368zM432 1649q2 4 6 10t19 22t32 28t46.5 22t62.5 10 q46 0 85 -17.5t72 -35t66 -17.5q27 0 49.5 13.5t31.5 27.5l9 14q49 -19 62 -67q-2 -4 -6 -9.5t-18 -21t-31.5 -27t-46.5 -21t-62 -9.5q-55 0 -120 34.5t-103 34.5q-27 0 -50 -14t-32 -28l-10 -15q-50 21 -62 66z" />
<glyph unicode="&#x169;" horiz-adv-x="1122" d="M156 287v780q26 10 73 10q23 0 41.5 -2.5t25.5 -4.5l7 -3v-752q0 -213 223 -213q83 0 161 49.5t124 137.5v778q25 10 74 10q23 0 41 -2.5t25 -4.5l7 -3v-1057q-22 -10 -73 -10q-22 0 -40.5 2.5t-26.5 5.5l-7 2v129q-61 -76 -148.5 -117.5t-191.5 -41.5q-149 0 -232 83.5 t-83 223.5zM289 1368q2 4 6 10.5t19.5 23t33 29t47 23t62.5 10.5q58 0 122.5 -34.5t102.5 -34.5q27 0 50 14.5t32 29.5l10 15q51 -15 64 -70q-2 -4 -6 -10t-19.5 -22.5t-33 -29t-47 -22.5t-62.5 -10q-47 0 -86 17.5t-73 35t-67 17.5q-27 0 -50.5 -15.5t-33.5 -30.5l-10 -16 q-52 24 -61 70z" />
<glyph unicode="&#x16a;" horiz-adv-x="1368" d="M186 481v981q27 13 76 13q23 0 42 -3.5t26 -6.5l8 -3v-1003q0 -166 92 -258t258 -92q164 0 255 92t91 258v1003q25 13 74 13q22 0 41 -3.5t27 -6.5l8 -3v-981q0 -238 -136 -369.5t-364 -131.5t-363 133t-135 368zM399 1618q-19 52 0 100h580q17 -48 0 -100h-580z" />
<glyph unicode="&#x16b;" horiz-adv-x="1122" d="M156 287v780q26 10 73 10q23 0 41.5 -2.5t25.5 -4.5l7 -3v-752q0 -213 223 -213q83 0 161 49.5t124 137.5v778q25 10 74 10q23 0 41 -2.5t25 -4.5l7 -3v-1057q-22 -10 -73 -10q-22 0 -40.5 2.5t-26.5 5.5l-7 2v129q-61 -76 -148.5 -117.5t-191.5 -41.5q-149 0 -232 83.5 t-83 223.5zM326 1337q-16 52 0 95h473q18 -40 0 -95h-473z" />
<glyph unicode="&#x16c;" horiz-adv-x="1368" d="M186 481v981q27 13 76 13q23 0 42 -3.5t26 -6.5l8 -3v-1003q0 -166 92 -258t258 -92q164 0 255 92t91 258v1003q25 13 74 13q22 0 41 -3.5t27 -6.5l8 -3v-981q0 -238 -136 -369.5t-364 -131.5t-363 133t-135 368zM385 1714q16 54 70 72q10 -8 29 -20.5t79 -33t123 -20.5 t120 18.5t83 37.5l26 18q55 -16 68 -72q-4 -5 -12 -12.5t-36 -27.5t-59.5 -35t-83 -27.5t-106.5 -12.5q-56 0 -108 12t-85.5 28.5t-59 33.5t-37.5 29z" />
<glyph unicode="&#x16d;" horiz-adv-x="1122" d="M156 287v780q26 10 73 10q23 0 41.5 -2.5t25.5 -4.5l7 -3v-752q0 -213 223 -213q83 0 161 49.5t124 137.5v778q25 10 74 10q23 0 41 -2.5t25 -4.5l7 -3v-1057q-22 -10 -73 -10q-22 0 -40.5 2.5t-26.5 5.5l-7 2v129q-61 -76 -148.5 -117.5t-191.5 -41.5q-149 0 -232 83.5 t-83 223.5zM266 1399q17 55 68 71q4 -3 10.5 -8t28.5 -17.5t46.5 -22t62 -17.5t75.5 -8q61 0 116.5 18.5t80.5 36.5l26 18q55 -16 68 -71q-4 -5 -11.5 -13.5t-34.5 -29.5t-58 -37t-81.5 -29.5t-105.5 -13.5q-54 0 -104 12.5t-82.5 31t-57 36.5t-35.5 30z" />
<glyph unicode="&#x16e;" horiz-adv-x="1368" d="M186 481v981q27 13 76 13q23 0 42 -3.5t26 -6.5l8 -3v-1003q0 -166 92 -258t258 -92q164 0 255 92t91 258v1003q25 13 74 13q22 0 41 -3.5t27 -6.5l8 -3v-981q0 -238 -136 -369.5t-364 -131.5t-363 133t-135 368zM451 1792q0 103 70 161t169 58q97 0 169.5 -57.5 t72.5 -161.5q0 -105 -70 -165t-174 -60t-170.5 60t-66.5 165zM547 1792q0 -57 36.5 -97t104.5 -40q69 0 107.5 40.5t38.5 96.5t-38 95.5t-108 39.5q-68 0 -104.5 -39.5t-36.5 -95.5z" />
<glyph unicode="&#x16f;" horiz-adv-x="1122" d="M156 287v780q26 10 73 10q23 0 41.5 -2.5t25.5 -4.5l7 -3v-752q0 -213 223 -213q83 0 161 49.5t124 137.5v778q25 10 74 10q23 0 41 -2.5t25 -4.5l7 -3v-1057q-22 -10 -73 -10q-22 0 -40.5 2.5t-26.5 5.5l-7 2v129q-61 -76 -148.5 -117.5t-191.5 -41.5q-149 0 -232 83.5 t-83 223.5zM319 1436q0 103 70.5 161t169.5 58q97 0 169.5 -57.5t72.5 -161.5q0 -105 -70 -165.5t-174 -60.5t-171 60.5t-67 165.5zM416 1436q0 -57 36.5 -97.5t104.5 -40.5q69 0 107 41t38 97q0 57 -37.5 96t-107.5 39q-68 0 -104.5 -39.5t-36.5 -95.5z" />
<glyph unicode="&#x170;" horiz-adv-x="1368" d="M186 481v981q27 13 76 13q23 0 42 -3.5t26 -6.5l8 -3v-1003q0 -166 92 -258t258 -92q164 0 255 92t91 258v1003q25 13 74 13q22 0 41 -3.5t27 -6.5l8 -3v-981q0 -238 -136 -369.5t-364 -131.5t-363 133t-135 368zM449 1604l190 278q40 3 78 -13t57 -44l-239 -269 q-61 6 -86 48zM762 1604l190 278q40 3 78 -13t57 -44l-239 -269q-61 6 -86 48z" />
<glyph unicode="&#x171;" horiz-adv-x="1122" d="M156 287v780q26 10 73 10q23 0 41.5 -2.5t25.5 -4.5l7 -3v-752q0 -213 223 -213q83 0 161 49.5t124 137.5v778q25 10 74 10q23 0 41 -2.5t25 -4.5l7 -3v-1057q-22 -10 -73 -10q-22 0 -40.5 2.5t-26.5 5.5l-7 2v129q-61 -76 -148.5 -117.5t-191.5 -41.5q-149 0 -232 83.5 t-83 223.5zM322 1286l190 270q38 3 74 -12t55 -41l-238 -262q-56 6 -81 45zM621 1286l190 270q37 3 73 -12t56 -41l-235 -262q-59 6 -84 45z" />
<glyph unicode="&#x172;" horiz-adv-x="1366" d="M184 481v981q27 13 76 13q23 0 42 -3.5t26 -6.5l8 -3v-1003q0 -166 92 -258t258 -92q164 0 255 92t91 258v1003q25 13 74 13q22 0 41 -3.5t27 -6.5l8 -3v-981q0 -197 -95.5 -322t-261.5 -163q-200 -57 -200 -186q0 -51 30.5 -78t79.5 -27q19 0 37.5 4t27.5 8l9 4 q27 -21 27 -65q-53 -37 -131 -37q-84 0 -135.5 47.5t-51.5 126.5q0 120 109 189q-205 18 -324 148t-119 351z" />
<glyph unicode="&#x173;" horiz-adv-x="1124" d="M158 287v780q26 10 73 10q23 0 41.5 -2.5t25.5 -4.5l7 -3v-752q0 -213 223 -213q83 0 161 49.5t124 137.5v778q25 10 74 10q23 0 41.5 -2.5t25.5 -4.5l7 -3v-1057q-79 -24 -132 -82t-53 -131q0 -80 109 -80q19 0 37.5 3.5t27.5 7.5l8 4q27 -21 27 -72q-53 -35 -131 -35 q-84 0 -135 42.5t-51 113.5q0 73 40 135t107 96l-2 127q-61 -76 -148.5 -117.5t-191.5 -41.5q-149 0 -232 83.5t-83 223.5z" />
<glyph unicode="&#x174;" horiz-adv-x="1959" d="M57 1462q25 13 76 13q24 0 43.5 -3.5t27.5 -6.5l7 -3l305 -1046q16 -56 29 -115.5t19 -90.5l5 -32h6q13 111 46 236l292 1048q23 13 76 13q24 0 43.5 -3.5t27.5 -6.5l7 -3l291 -1046q15 -58 25.5 -117.5t14.5 -90.5l3 -30h6q12 103 51 236l297 1048q25 13 70 13 q20 0 38 -3.5t25 -6.5l8 -3l-409 -1450q-31 -12 -82 -12q-22 0 -43.5 3t-31.5 6l-11 3l-285 1037q-18 72 -29.5 134t-13.5 87l-2 26h-6q-6 -85 -45 -247l-287 -1037q-36 -12 -90 -12q-52 0 -84 12zM696 1634l271 221h53l270 -221q-24 -56 -69 -71l-230 161l-225 -161 q-52 19 -70 71z" />
<glyph unicode="&#x175;" horiz-adv-x="1626" d="M59 1067q25 10 74 10q23 0 40 -2.5t23 -4.5l5 -3l225 -717q26 -87 41 -186h6q13 90 45 186l225 717q33 10 78 10q22 0 40.5 -2.5t26.5 -4.5l7 -3l221 -713q24 -76 41 -190h6q10 70 47 188l224 715q24 10 67 10q21 0 37.5 -2.5t22.5 -4.5l6 -3l-328 -1057q-57 -10 -80 -10 t-80 10l-198 629q-58 194 -62 272h-6q-10 -96 -68 -272l-198 -629q-45 -10 -78 -10q-32 0 -82 10zM532 1303l265 217h51l264 -217q-22 -57 -68 -68l-223 156l-221 -158q-45 16 -68 70z" />
<glyph unicode="&#x176;" horiz-adv-x="1286" d="M49 1462q31 13 92 13q25 0 46.5 -3.5t30.5 -6.5l9 -3l422 -686l432 686q25 13 80 13q24 0 45.5 -3.5t31.5 -6.5l9 -3l-530 -841v-609q-25 -12 -74 -12q-24 0 -43.5 3t-27.5 6l-7 3v604zM362 1634l271 221h53l270 -221q-20 -56 -69 -71l-228 161l-225 -161q-51 17 -72 71z " />
<glyph unicode="&#x177;" horiz-adv-x="1073" d="M51 1067q27 10 78 10q23 0 42.5 -2.5t27.5 -4.5l8 -3l276 -702q22 -56 40.5 -111t26.5 -82l7 -27h6q23 91 66 220l241 702q23 10 74 10q21 0 39.5 -2.5t26.5 -4.5l8 -3l-434 -1266q-21 -64 -40.5 -108.5t-46.5 -86t-58.5 -65.5t-75 -38.5t-97.5 -14.5q-27 0 -53 4t-39 8 l-12 4q-12 24 -12 58q0 21 5 39t9 22q39 -10 88 -10q69 0 111.5 44t85.5 173l61 172q-22 0 -49 10zM246 1303l264 217h51l264 -217q-22 -57 -67 -68l-223 156l-222 -158q-48 17 -67 70z" />
<glyph unicode="&#x178;" horiz-adv-x="1286" d="M49 1462q31 13 92 13q25 0 46.5 -3.5t30.5 -6.5l9 -3l422 -686l432 686q25 13 80 13q24 0 45.5 -3.5t31.5 -6.5l9 -3l-530 -841v-609q-25 -12 -74 -12q-24 0 -43.5 3t-27.5 6l-7 3v604zM412 1595v134q24 10 75 10q22 0 41 -2.5t27 -4.5l8 -3v-134q-27 -10 -76 -10 q-23 0 -41.5 2.5t-25.5 4.5zM735 1595v134q25 10 76 10q22 0 41 -2.5t27 -4.5l8 -3v-134q-27 -10 -76 -10q-23 0 -42 2.5t-27 4.5z" />
<glyph unicode="&#x179;" horiz-adv-x="1198" d="M80 70q0 30 10 65l807 1204h-750q-10 40 -10 72q0 34 10 64h924q12 -24 12 -66t-12 -70l-811 -1204h838q10 -30 10 -65q0 -43 -10 -70h-1008q-10 40 -10 70zM489 1610l203 282q39 3 76.5 -13.5t54.5 -45.5l-243 -272q-65 9 -91 49z" />
<glyph unicode="&#x17a;" horiz-adv-x="944" d="M84 66q0 39 10 59l580 827h-539q-10 23 -10 64q0 18 2.5 33.5t4.5 21.5l3 6h696q11 -33 11 -59q0 -28 -11 -66l-579 -827h582q12 -21 12 -64q0 -17 -3 -32.5t-6 -22.5l-3 -6h-740q-10 23 -10 66zM371 1292l211 295q39 3 76.5 -13.5t56.5 -45.5l-256 -285q-65 7 -88 49z " />
<glyph unicode="&#x17b;" horiz-adv-x="1198" d="M80 70q0 30 10 65l807 1204h-750q-10 40 -10 72q0 34 10 64h924q12 -24 12 -66t-12 -70l-811 -1204h838q10 -30 10 -65q0 -43 -10 -70h-1008q-10 40 -10 70zM524 1608v139q25 8 78 8q23 0 42.5 -2t27.5 -4l8 -2v-139q-27 -11 -78 -11q-24 0 -43.5 2.5t-26.5 5.5z" />
<glyph unicode="&#x17c;" horiz-adv-x="944" d="M84 66q0 39 10 59l580 827h-539q-10 23 -10 64q0 18 2.5 33.5t4.5 21.5l3 6h696q11 -33 11 -59q0 -28 -11 -66l-579 -827h582q12 -21 12 -64q0 -17 -3 -32.5t-6 -22.5l-3 -6h-740q-10 23 -10 66zM416 1315v139q25 8 78 8q23 0 42 -2t27 -4l8 -2v-139q-26 -10 -77 -10 q-24 0 -43.5 2.5t-26.5 4.5z" />
<glyph unicode="&#x17d;" horiz-adv-x="1198" d="M80 70q0 30 10 65l807 1204h-750q-10 40 -10 72q0 34 10 64h924q12 -24 12 -66t-12 -70l-811 -1204h838q10 -30 10 -65q0 -43 -10 -70h-1008q-10 40 -10 70zM311 1784q19 52 70 71l229 -161l226 159q46 -15 69 -69l-270 -221h-53z" />
<glyph unicode="&#x17e;" horiz-adv-x="944" d="M84 66q0 29 10 59l580 827h-539q-10 23 -10 64q0 18 2.5 33.5t4.5 21.5l3 6h696q11 -33 11 -59q0 -28 -11 -66l-579 -827h582q12 -21 12 -64q0 -17 -3 -32.5t-6 -22.5l-3 -6h-740q-10 35 -10 66zM221 1434q21 47 64 65l207 -147l204 145q37 -11 62 -63l-244 -201h-47z " />
<glyph unicode="&#x17f;" horiz-adv-x="569" d="M72 961q-12 61 0 116h145v123q0 162 73.5 249t250.5 87q55 0 107 -9t77 -17l25 -9q0 -66 -39 -108q-64 22 -158 22q-108 0 -148 -49t-40 -156v-1200q-23 -10 -74 -10q-23 0 -41.5 2.5t-25.5 5.5l-7 2v951h-145z" />
<glyph unicode="&#x192;" horiz-adv-x="913" d="M-76 -246q0 63 39 99q66 -23 146 -23q79 0 121.5 42.5t52.5 147.5l79 814h-182q-10 20 -10 57q0 15 2.5 28t5.5 19l2 6h193l16 156q15 162 85.5 238.5t217.5 76.5q53 0 101.5 -9.5t70.5 -18.5l23 -9q0 -57 -37 -100q-68 22 -150 22q-79 0 -119.5 -44.5t-50.5 -151.5 l-14 -160h191q10 -20 10 -55q0 -16 -2.5 -29.5t-4.5 -19.5l-3 -6h-203l-78 -807q-18 -161 -90 -238.5t-219 -77.5q-49 0 -97.5 10.5t-71.5 21.5z" />
<glyph unicode="&#x1fa;" horiz-adv-x="1327" d="M37 12l526 1407q-65 19 -104 71.5t-39 129.5q0 102 71 160.5t168 58.5t169.5 -58t72.5 -161q0 -74 -38 -125t-101 -72l528 -1411q-27 -12 -84 -12q-22 0 -40 3t-26 6l-7 3l-148 391h-653l-150 -391q-24 -12 -73 -12q-22 0 -40 3t-25 6zM377 530h563l-238 627 q-13 36 -23 71.5t-13 52.5l-4 17h-7q-12 -61 -41 -141zM516 1620q0 -57 36.5 -97t104.5 -40q69 0 108.5 41t39.5 96q0 56 -39 94.5t-109 38.5q-68 0 -104.5 -39t-36.5 -94zM592 1935l199 222q36 3 71 -11t51 -35l-239 -213q-61 10 -82 37z" />
<glyph unicode="&#x1fb;" horiz-adv-x="1054" d="M94 307q0 158 97 239t290 81q125 0 269 -17v115q0 131 -57.5 188.5t-184.5 57.5q-68 0 -140 -12.5t-110 -25.5l-37 -13q-3 2 -8 6t-13.5 15t-13.5 24q-10 24 -10 63q17 8 48.5 19.5t123 31t178.5 19.5q109 0 181.5 -25.5t114 -80t58.5 -128t17 -180.5v-674 q-18 -10 -59 -10q-16 0 -31 2.5t-22 5.5l-7 2l-22 154q-43 -89 -132 -136.5t-212 -47.5q-146 0 -232 85t-86 242zM248 307q0 -106 55.5 -157.5t155.5 -51.5q132 0 211.5 91.5t79.5 232.5v82q-188 16 -248 16q-128 0 -191 -52.5t-63 -160.5zM297 1391q0 97 68.5 151.5 t164.5 54.5q94 0 165 -54.5t71 -151.5q0 -99 -68.5 -156t-169.5 -57t-166 56.5t-65 156.5zM397 1391q0 -51 34.5 -88t96.5 -37q65 0 101.5 37t36.5 88q0 49 -36.5 84.5t-101.5 35.5q-62 0 -96.5 -36t-34.5 -84zM403 1686l199 221q36 3 72 -10.5t51 -34.5l-240 -213 q-61 10 -82 37z" />
<glyph unicode="&#x1fc;" horiz-adv-x="1757" d="M18 12l887 1463h725q12 -28 12 -64.5t-12 -62.5h-567v-539h465q25 -67 0 -127h-465v-555h588q25 -64 0 -127h-731v389h-514l-226 -377q-30 -12 -80 -12q-55 0 -82 12zM483 516h437v727zM1118 1597l211 295q39 3 76.5 -13.5t56.5 -45.5l-256 -285q-65 7 -88 49z" />
<glyph unicode="&#x1fd;" horiz-adv-x="1587" d="M94 307q0 157 91.5 234t281.5 77h246v113q0 128 -53.5 184t-172.5 56q-64 0 -131 -12.5t-102 -25.5l-35 -13q-43 40 -43 108q16 8 45.5 19.5t116 31t168.5 19.5q238 0 303 -189q47 93 127 141t182 48q177 0 272 -105t95 -293q0 -50 -5.5 -98t-11.5 -71l-6 -23h-604 q10 -208 81.5 -306t205.5 -98q65 0 123.5 16.5t83.5 33.5l26 16q45 -31 52 -100q-4 -4 -12 -10t-36 -21.5t-60.5 -27.5t-86 -21.5t-111.5 -9.5q-137 0 -225 68t-121 175q-30 -104 -124 -173.5t-244 -69.5t-233 85t-83 242zM246 305q0 -103 49.5 -155t140.5 -52q127 0 202 86 t75 232v92h-226q-127 0 -184 -48t-57 -155zM647 1292l213 295q39 3 76.5 -13.5t56.5 -45.5l-256 -285q-64 7 -90 49zM858 618h469q8 35 8 101q0 115 -51 186.5t-166 71.5q-112 0 -181.5 -85.5t-78.5 -273.5z" />
<glyph unicode="&#x1fe;" horiz-adv-x="1388" d="M131 737q0 385 147 571.5t416 186.5q171 0 287 -74l76 138q22 12 67 12q22 0 39 -3t23 -6l6 -3l-117 -209q182 -188 182 -613q0 -387 -146 -572t-417 -185q-198 0 -327 100l-93 -166q-24 -10 -67 -10q-17 0 -33.5 2.5t-24.5 5.5l-8 2l140 248q-150 192 -150 575zM291 737 q0 -274 78 -418l546 984q-88 65 -221 65q-96 0 -167.5 -32.5t-125.5 -105t-82 -196t-28 -297.5zM436 203q97 -97 258 -97q96 0 167.5 32.5t126 105t82.5 196t28 297.5q0 319 -103 469zM616 1620l211 295q39 3 77 -14t57 -46l-256 -284q-66 7 -89 49z" />
<glyph unicode="&#x1ff;" horiz-adv-x="1110" d="M117 539q0 294 112.5 426.5t325.5 132.5q141 0 238 -60l75 131q54 -6 95 -47l-89 -147q121 -140 121 -436q0 -294 -113 -426.5t-327 -132.5q-135 0 -227 51l-72 -123q-54 3 -92 47l80 139q-127 136 -127 445zM268 539q0 -204 64 -299l395 688q-67 53 -172 53 q-69 0 -119.5 -21.5t-89.5 -71t-58.5 -136.5t-19.5 -213zM389 1292l213 295q39 3 76.5 -13.5t54.5 -45.5l-256 -285q-65 7 -88 49zM395 141q62 -45 160 -45q69 0 119.5 21.5t89.5 71t58.5 137t19.5 213.5q0 185 -54 288z" />
<glyph unicode="&#x218;" horiz-adv-x="1157" d="M123 61q-3 79 39 121q21 -7 57 -17.5t136 -28t186 -17.5q173 0 263.5 69.5t90.5 202.5q0 40 -10.5 73.5t-26 58.5t-44 47t-53 36.5t-66 30.5t-70 24.5t-76.5 22.5q-45 13 -70.5 21t-67 22.5t-66.5 27t-59 32t-54.5 39t-44 47.5t-35.5 59t-20.5 70.5t-8.5 84.5 q0 189 125.5 298.5t359.5 109.5q105 0 201.5 -13.5t140.5 -27.5l45 -14q0 -78 -41 -119q-147 43 -325 43q-177 0 -266 -70t-89 -198q0 -37 9.5 -68t25 -54t41 -43t51.5 -34.5t64.5 -29t71 -24.5t78.5 -24q23 -7 34 -10q49 -15 86 -27.5t81 -32.5t76 -41.5t63.5 -53.5 t51.5 -68.5t32 -85.5t12 -107q0 -197 -129.5 -305t-370.5 -108q-73 0 -144 8.5t-120 20t-87.5 23.5t-57.5 20zM481 -465q7 7 18 21.5t30.5 63.5t23.5 104q-16 1 -30 3.5t-19 4.5l-6 2v149q29 11 84 11q24 0 44.5 -3t29.5 -5l8 -3v-102q0 -53 -13 -101.5t-31 -81t-36.5 -57 t-31.5 -35.5l-13 -12z" />
<glyph unicode="&#x219;" horiz-adv-x="909" d="M111 49q-3 73 41 111q15 -6 41 -14.5t99.5 -22.5t137.5 -14q109 0 172.5 45t63.5 137q0 46 -16.5 78t-58 55.5t-69.5 33.5t-91 29q-15 5 -23 7q-50 14 -85.5 26.5t-78 36.5t-69 53t-44.5 74.5t-18 101.5q0 143 94 227.5t276 84.5q81 0 150 -13t98 -25l29 -13 q2 -31 -9 -61t-32 -48q-98 35 -219 35q-120 0 -182 -46t-62 -134q0 -33 15 -60.5t34 -44t58.5 -34t64.5 -25.5t76 -23q46 -14 74.5 -23.5t70 -28t66.5 -40t50 -52.5t36.5 -73t11.5 -94q0 -150 -95 -232.5t-280 -82.5q-57 0 -112 7t-92 17t-66 20.5t-43 17.5zM356 -496 q7 7 18 21.5t30.5 64t23.5 105.5q-16 1 -30 3.5t-20 4.5l-5 2v150q29 10 84 10q24 0 44.5 -2.5t28.5 -4.5l9 -3v-103q0 -53 -13 -102t-31.5 -81.5t-36.5 -57t-31 -35.5l-13 -11z" />
<glyph unicode="&#x237;" horiz-adv-x="487" d="M-102 -459q0 23 4 42t8 27l4 7q33 -8 82 -8q88 0 131 48.5t43 154.5v1255q21 10 74 10q22 0 40 -2.5t26 -4.5l7 -3v-1247q0 -165 -74 -248.5t-212 -83.5q-38 0 -70 4.5t-45 9.5l-12 4q-6 15 -6 35z" />
<glyph unicode="&#x2c6;" horiz-adv-x="811" d="M109 1221l270 221h53l270 -221q-25 -59 -69 -70l-230 160l-225 -162q-49 18 -69 72z" />
<glyph unicode="&#x2c7;" horiz-adv-x="827" d="M109 1348q19 56 69 71l230 -162l225 160q45 -12 69 -69l-270 -222h-53z" />
<glyph unicode="&#x2d8;" horiz-adv-x="663" d="M37 1380q17 57 67 74q4 -3 10.5 -8t29 -18.5t46.5 -23.5t62 -18t76 -8q61 0 116.5 19t81.5 38l25 19q51 -17 67 -74q-4 -5 -11.5 -13.5t-34.5 -29.5t-58 -37t-81 -29.5t-105 -13.5q-54 0 -104 12.5t-82.5 30.5t-57 36.5t-36.5 31.5z" />
<glyph unicode="&#x2d9;" horiz-adv-x="360" d="M100 1245v139q25 11 78 11q23 0 42.5 -2.5t27.5 -5.5l8 -3v-139q-27 -10 -78 -10q-24 0 -43.5 2.5t-26.5 4.5z" />
<glyph unicode="&#x2da;" horiz-adv-x="704" d="M111 1260q0 103 70 161t169 58q97 0 169.5 -57.5t72.5 -161.5q0 -105 -70 -165.5t-174 -60.5t-170.5 60.5t-66.5 165.5zM207 1260q0 -57 36.5 -97.5t104.5 -40.5q69 0 107.5 41t38.5 97t-38 95.5t-108 39.5q-68 0 -104.5 -39.5t-36.5 -95.5z" />
<glyph unicode="&#x2db;" horiz-adv-x="579" d="M49 -270q0 106 85 172t226 75l11 -43q-215 -55 -215 -188q0 -51 30.5 -77.5t79.5 -26.5q19 0 37.5 4t27.5 8l9 4q27 -21 27 -66q-55 -36 -131 -36q-85 0 -136 47.5t-51 126.5z" />
<glyph unicode="&#x2dc;" horiz-adv-x="669" d="M76 1343q2 4 6 10.5t19.5 23t33 29.5t47 23.5t62.5 10.5q58 0 122.5 -35t102.5 -35q26 0 49 15t33 30l10 15q24 -9 41 -28t21 -42q-2 -4 -6 -10.5t-19 -23t-32.5 -29t-47 -23t-61.5 -10.5q-47 0 -86.5 18t-73.5 35.5t-66 17.5q-27 0 -50.5 -15.5t-33.5 -30.5l-10 -15 q-52 24 -61 69z" />
<glyph unicode="&#x2dd;" horiz-adv-x="790" d="M43 1360l205 295q41 3 81 -14t60 -46l-256 -284q-63 6 -90 49zM369 1360l204 295q41 3 80.5 -14t59.5 -46l-256 -284q-65 7 -88 49z" />
<glyph unicode="&#x3c0;" horiz-adv-x="1245" d="M68 987q0 42 10 62q101 28 330 28h757q11 -33 11 -61q0 -31 -11 -64h-147v-467q0 -148 16.5 -260.5t32.5 -150.5l16 -39q-30 -35 -102 -35q-35 0 -51 8q-3 5 -7 14.5t-14.5 48.5t-19 88t-15 136t-6.5 188v469h-501v-940q-23 -12 -74 -12q-22 0 -40.5 3t-26.5 6l-7 3v934 q-39 -4 -74.5 -9.5t-50.5 -8.5l-16 -4q-10 30 -10 63z" />
<glyph unicode="&#x401;" d="M197 0v1475h813q12 -36 12 -62q0 -38 -12 -65h-662v-539h559q13 -39 13 -59q0 -34 -13 -66h-559v-557h682q12 -36 12 -61q0 -36 -12 -66h-833zM383 1638v134q25 10 76 10q22 0 41 -2.5t27 -5.5l8 -2v-134q-27 -10 -76 -10q-23 0 -42 2.5t-27 5.5zM707 1638v134 q24 10 75 10q22 0 41 -2.5t27 -5.5l8 -2v-134q-27 -10 -76 -10q-23 0 -41.5 2.5t-26.5 5.5z" />
<glyph unicode="&#x410;" horiz-adv-x="1327" d="M37 12l543 1450q33 13 84 13q24 0 45 -3.5t30 -6.5l9 -3l542 -1450q-27 -12 -84 -12q-22 0 -40 3t-26 6l-7 3l-148 391h-653l-150 -391q-24 -12 -73 -12q-22 0 -40 3t-25 6zM377 530h563l-238 627q-13 36 -23 71.5t-13 52.5l-4 17h-7q-12 -61 -41 -141z" />
<glyph unicode="&#x411;" horiz-adv-x="1259" d="M197 0v1475h813q12 -25 12 -68q0 -17 -3 -33.5t-6 -24.5l-3 -8h-662v-495h389q193 0 308.5 -114.5t115.5 -305.5q0 -193 -115.5 -309.5t-308.5 -116.5h-540zM348 121h363q142 0 217.5 81.5t75.5 221.5q0 141 -75.5 221t-217.5 80h-363v-604z" />
<glyph unicode="&#x412;" horiz-adv-x="1284" d="M197 0v1475h520q102 0 180 -31t124.5 -86t69.5 -125t23 -154q0 -218 -176 -325q24 -12 30.5 -15.5t36.5 -22t45 -33t40 -44.5t37.5 -60.5t23 -76t10.5 -96.5q0 -188 -111 -297t-325 -109h-528zM348 123h350q162 0 234 71t72 209q0 146 -74.5 214.5t-231.5 68.5h-350v-563 zM348 805h336q274 0 274 274q0 131 -64.5 202t-211.5 71h-334v-547z" />
<glyph unicode="&#x413;" horiz-adv-x="1024" d="M197 12v1463h766q12 -25 12 -66q0 -16 -3 -33t-6 -26l-3 -9h-615v-1329q-27 -12 -76 -12q-22 0 -40.5 3t-26.5 6z" />
<glyph unicode="&#x414;" horiz-adv-x="1402" d="M41 127h121q68 75 107.5 227.5t58.5 397.5l55 723h770v-1348h160v-410q-28 -12 -68 -12q-39 0 -71 12v283h-994v-283q-32 -12 -69 -12q-38 0 -70 12v410zM334 127h667v1229h-483l-45 -617q-32 -434 -139 -612z" />
<glyph unicode="&#x415;" d="M197 0v1475h813q12 -27 12 -62q0 -38 -12 -65h-662v-537h559q13 -29 13 -61t-13 -64h-559v-559h682q12 -27 12 -61q0 -36 -12 -66h-833z" />
<glyph unicode="&#x416;" horiz-adv-x="1918" d="M39 12l498 770l-437 680q35 13 80 13q48 0 78 -13l410 -635h217v635q27 13 76 13q23 0 41.5 -3.5t25.5 -6.5l8 -3v-635h215l410 635q30 13 78 13q45 0 80 -13l-439 -678l502 -772q-31 -12 -90 -12q-25 0 -47.5 3t-32.5 6l-10 3l-449 690h-217v-690q-22 -12 -75 -12 q-22 0 -41 3t-27 6l-8 3v690h-226l-446 -690q-31 -12 -86 -12q-26 0 -48 3t-31 6z" />
<glyph unicode="&#x417;" horiz-adv-x="1124" d="M84 45q-3 75 43 115q149 -45 315 -45q203 0 301.5 73.5t98.5 206.5q0 71 -21 124t-55.5 84.5t-85.5 51t-103 26.5t-116 7h-125q-26 68 0 129h125q56 0 102.5 7t92 25.5t76.5 49t50 81t19 116.5q0 130 -87.5 199t-246.5 69q-80 0 -158 -13t-117 -25l-38 -13 q-53 36 -50 112q17 8 48.5 19.5t130.5 31t200 19.5q230 0 350.5 -102t120.5 -285q0 -79 -21.5 -143.5t-56.5 -104.5t-67 -63t-66 -37v-4q30 -10 59.5 -25.5t66.5 -46t64 -69.5t45.5 -99.5t18.5 -132.5q0 -89 -29.5 -160t-91 -126.5t-166.5 -86t-247 -30.5q-108 0 -203 16.5 t-136 32.5z" />
<glyph unicode="&#x418;" horiz-adv-x="1409" d="M197 12v1450q24 13 75 13q23 0 42 -3.5t26 -6.5l8 -3v-858q0 -108 -3 -209.5t-6 -149.5l-3 -48h6q28 97 160 335l534 930q27 13 88 13q27 0 49 -3.5t31 -6.5l8 -3v-1450q-24 -12 -75 -12q-24 0 -43 3t-26 6l-7 3v850q0 129 3 230t6 138l3 36h-6q-30 -91 -149 -314 l-541 -940l-5 -1q-4 -1 -11.5 -3t-18 -4t-25.5 -3t-32 -1q-28 0 -50 3t-30 6z" />
<glyph unicode="&#x419;" horiz-adv-x="1409" d="M197 12v1450q24 13 75 13q23 0 42 -3.5t26 -6.5l8 -3v-858q0 -108 -3 -209.5t-6 -149.5l-3 -48h6q28 97 160 335l534 930q27 13 88 13q27 0 49 -3.5t31 -6.5l8 -3v-1450q-24 -12 -75 -12q-24 0 -43 3t-26 6l-7 3v850q0 129 3 230t6 138l3 36h-6q-30 -91 -149 -314 l-541 -940l-5 -1q-4 -1 -11.5 -3t-18 -4t-25.5 -3t-32 -1q-28 0 -50 3t-30 6zM403 1792q9 27 28.5 49t43.5 29q4 -3 12 -8t34 -18.5t53 -23.5t67.5 -18t79.5 -8q64 0 125.5 19t91.5 38l29 19q25 -7 44 -29t27 -49l-13.5 -13.5t-39 -30t-64.5 -38t-88.5 -30t-111.5 -13.5 t-110.5 13t-89.5 31.5t-64 36.5t-41 31z" />
<glyph unicode="&#x41a;" horiz-adv-x="1255" d="M197 12v1450q26 13 77 13q22 0 40.5 -3.5t25.5 -6.5l8 -3v-633h209l442 633q35 13 78 13q47 0 82 -13l-475 -680l535 -770q-30 -12 -89 -12q-24 0 -46.5 3t-33.5 6l-10 3l-481 690h-211v-690q-23 -12 -76 -12q-22 0 -40.5 3t-26.5 6z" />
<glyph unicode="&#x41b;" horiz-adv-x="1359" d="M39 57q0 32 12 60h58q19 1 35 6t38.5 22t40.5 45t39 80.5t37 123.5t31.5 178.5t25.5 240.5l52 662h755v-1463q-27 -12 -76 -12q-11 0 -21 0.5t-17.5 1.5t-14 2.5t-10.5 3t-7 2.5t-4 2h-1v1340h-469l-41 -543q-12 -156 -32 -281.5t-43 -209.5t-53.5 -146.5t-58.5 -97 t-62.5 -54.5t-61 -26t-58.5 -6q-47 0 -82 14q-12 24 -12 55z" />
<glyph unicode="&#x41c;" horiz-adv-x="1714" d="M195 12v1450q35 13 92 13q22 0 45 -3.5t35 -6.5l12 -3l356 -651q87 -168 107 -231h8q10 44 70 151q172 310 401 731q50 13 98 13q27 0 52.5 -3.5t36.5 -6.5l12 -3v-1450q-27 -12 -76 -12q-22 0 -41 3t-27 6l-8 3v869q0 319 10 409h-6q-27 -88 -139 -301l-342 -606 q-20 -8 -51 -8q-13 0 -24.5 2t-17.5 4l-5 2q-40 74 -153.5 281t-174.5 321q-117 215 -141 305h-7q17 -84 17 -399v-879q-23 -12 -70 -12q-20 0 -37 3t-25 6z" />
<glyph unicode="&#x41d;" horiz-adv-x="1388" d="M197 12v1450q26 13 75 13q22 0 41 -3.5t27 -6.5l8 -3v-639h692v639q27 13 76 13q22 0 41 -3.5t27 -6.5l8 -3v-1450q-25 -12 -76 -12q-24 0 -43 3t-26 6l-7 3v676h-692v-676q-27 -12 -76 -12q-24 0 -43 3t-25 6z" />
<glyph unicode="&#x41e;" horiz-adv-x="1388" d="M131 737q0 385 147 571.5t416 186.5q270 0 416.5 -186t146.5 -572q0 -387 -146 -572t-417 -185t-417 185t-146 572zM291 737q0 -174 28 -297.5t82 -196t125.5 -105t167.5 -32.5t167.5 32.5t126 105t82.5 196t28 297.5t-28 297.5t-82.5 196t-126 105t-167.5 32.5 t-167.5 -32.5t-125.5 -105t-82 -196t-28 -297.5z" />
<glyph unicode="&#x41f;" horiz-adv-x="1363" d="M197 12v1463h970v-1463q-26 -12 -73 -12q-24 0 -43.5 3t-26.5 6l-8 3v1329h-668v-1329q-27 -12 -76 -12q-24 0 -42.5 3t-25.5 6z" />
<glyph unicode="&#x420;" horiz-adv-x="1232" d="M197 12v1463h518q195 0 309.5 -120.5t114.5 -318.5q0 -197 -114.5 -317.5t-309.5 -120.5h-367v-586q-25 -12 -74 -12q-24 0 -43.5 3t-26.5 6zM348 729h352q132 0 205.5 81.5t73.5 223.5q0 147 -73 229.5t-206 82.5h-352v-617z" />
<glyph unicode="&#x421;" horiz-adv-x="1146" d="M133 737q0 376 144.5 567t429.5 191q99 0 185 -17t122 -34l37 -17q3 -64 -47 -114q-13 6 -37 14.5t-97.5 22.5t-146.5 14q-80 0 -143.5 -18t-118 -62.5t-91 -115.5t-57 -180t-20.5 -253t20.5 -252t56.5 -177.5t91.5 -112.5t118.5 -60.5t143 -17.5t155.5 12.5t111.5 25.5 l36 13q44 -41 47 -117q-5 -3 -15 -7.5t-44.5 -16.5t-74 -21t-102.5 -16.5t-130 -7.5q-574 0 -574 757z" />
<glyph unicode="&#x422;" horiz-adv-x="1103" d="M59 1409q0 17 3.5 33.5t6.5 24.5l3 8h960q12 -25 12 -66q0 -17 -3 -34t-6 -25l-3 -9h-399v-1329q-27 -12 -76 -12q-24 0 -43 3t-26 6l-7 3v1329h-409q-13 27 -13 68z" />
<glyph unicode="&#x423;" horiz-adv-x="1247" d="M43 1462q27 13 84 13q26 0 47 -3.5t29 -6.5l8 -3l399 -833q39 -86 56 -144h6q2 5 9 26.5t18.5 56t25.5 67.5l324 827q24 13 75 13q20 0 39 -3.5t28 -6.5l9 -3l-414 -1067q-39 -101 -81 -174t-81 -115t-84.5 -66.5t-84.5 -32t-88 -7.5q-31 0 -60.5 4t-42.5 8l-14 4 q-10 30 -10 64q0 43 8 59q49 -6 90 -6q43 0 73.5 6.5t66 27.5t68 66.5t64.5 116.5h-35z" />
<glyph unicode="&#x424;" horiz-adv-x="1632" d="M100 770q0 128 32 226.5t88 162t138 103.5t175 56.5t206 16.5v152q25 12 74 12q23 0 42.5 -3t27.5 -6l8 -3v-152q113 0 206 -16.5t175.5 -56.5t138.5 -103.5t88.5 -162t32.5 -226.5t-32.5 -226.5t-88.5 -162.5t-138.5 -104.5t-175.5 -57t-206 -16.5v-191q-29 -12 -76 -12 q-24 0 -43 3t-26 6l-7 3v191q-113 0 -206 16.5t-175 57t-138 104.5t-88 162.5t-32 226.5zM254 770q0 -105 24 -183.5t65.5 -128t104 -80t132.5 -42.5t159 -12v890q-89 0 -159 -12t-132.5 -42t-104 -79.5t-65.5 -128t-24 -182.5zM891 324q88 0 158 12t133 42.5t104.5 80.5 t65.5 128.5t24 182.5q0 130 -35.5 219.5t-104 137.5t-151 67.5t-194.5 19.5v-890z" />
<glyph unicode="&#x425;" horiz-adv-x="1251" d="M47 10l475 752l-442 700q31 13 90 13q24 0 45.5 -3.5t30.5 -6.5l10 -3l373 -585l379 585q35 13 82 13q49 0 84 -13l-451 -694l477 -754q-31 -14 -88 -14q-25 0 -47 3t-31 6l-10 3l-406 639l-403 -641q-35 -10 -80 -10q-43 0 -88 10z" />
<glyph unicode="&#x426;" horiz-adv-x="1431" d="M197 0v1462q22 13 75 13q22 0 41 -3.5t27 -6.5l8 -3v-1329h680v1329q23 13 76 13q22 0 41 -3.5t27 -6.5l8 -3v-1329h157v-416q-30 -12 -69 -12q-36 0 -70 12v283h-1001z" />
<glyph unicode="&#x427;" horiz-adv-x="1300" d="M121 1065v397q27 13 76 13q22 0 40.5 -3.5t26.5 -6.5l8 -3v-397q0 -188 79 -263t253 -75q85 0 169 17t119 30t60 25v663q27 13 76 13q22 0 41 -3.5t27 -6.5l8 -3v-1450q-27 -12 -76 -12q-24 0 -43 3t-26 6l-7 3v652q-25 -11 -64 -24t-128.5 -29.5t-179.5 -16.5 q-108 0 -189 23t-143.5 76t-94.5 146t-32 226z" />
<glyph unicode="&#x428;" horiz-adv-x="1953" d="M197 0v1462q22 13 75 13q23 0 42 -3.5t26 -6.5l8 -3v-1329h553v1329q19 13 76 13q24 0 43 -3.5t26 -6.5l7 -3v-1329h553v1329q20 13 75 13q23 0 42 -3.5t27 -6.5l7 -3v-1462h-1560z" />
<glyph unicode="&#x429;" horiz-adv-x="2009" d="M197 0v1462q22 13 75 13q22 0 41 -3.5t27 -6.5l8 -3v-1329h553v1329q23 13 76 13q23 0 42 -3.5t27 -6.5l7 -3v-1329h553v1329q22 13 75 13q22 0 41 -3.5t27 -6.5l8 -3v-1329h158v-416q-24 -12 -70 -12q-35 0 -69 12v283h-1579z" />
<glyph unicode="&#x42a;" horiz-adv-x="1441" d="M53 1407q0 18 3.5 35t6.5 25l3 8h466v-625h388q195 0 311.5 -115.5t116.5 -306.5q0 -194 -116.5 -311t-311.5 -117h-539v1341h-315q-13 25 -13 66zM532 129h367q138 0 213.5 79.5t75.5 217.5t-75.5 216.5t-213.5 78.5h-367v-592z" />
<glyph unicode="&#x42b;" horiz-adv-x="1771" d="M197 0v1462q22 13 77 13q22 0 40.5 -3.5t25.5 -6.5l8 -3v-612h387q195 0 311.5 -115.5t116.5 -306.5q0 -194 -116.5 -311t-311.5 -117h-538zM348 129h367q138 0 213.5 79.5t75.5 217.5t-75.5 216.5t-213.5 78.5h-367v-592zM1423 12v1450q25 13 76 13q23 0 42 -3.5 t27 -6.5l7 -3v-1450q-25 -12 -76 -12q-24 0 -43 3t-26 6z" />
<glyph unicode="&#x42c;" horiz-adv-x="1257" d="M197 0v1462q22 13 77 13q22 0 40.5 -3.5t25.5 -6.5l8 -3v-612h387q195 0 311.5 -115.5t116.5 -306.5q0 -194 -116.5 -311t-311.5 -117h-538zM348 129h367q138 0 213.5 79.5t75.5 217.5t-75.5 216.5t-213.5 78.5h-367v-592z" />
<glyph unicode="&#x42d;" horiz-adv-x="1191" d="M80 49q3 74 47 115q15 -6 42.5 -14.5t112.5 -22.5t169 -14q102 0 178.5 27t138 90.5t95.5 177.5t38 278h-559q-12 25 -12 64q0 18 3 34t6 22l3 7h557q-7 155 -42 264.5t-96 171t-136.5 88.5t-173.5 27q-77 0 -152.5 -12t-112.5 -24l-36 -13q-48 42 -48 112q15 8 43 19 t123.5 30t200.5 19q293 0 442.5 -191.5t149.5 -566.5q0 -378 -149.5 -567.5t-442.5 -189.5q-70 0 -136 7t-109.5 17t-77.5 20.5t-50 17.5z" />
<glyph unicode="&#x42e;" horiz-adv-x="1943" d="M197 12v1450q24 13 73 13q23 0 42.5 -3.5t27.5 -6.5l8 -3v-661h338q12 353 156.5 523.5t404.5 170.5q272 0 417.5 -185.5t145.5 -572.5t-145.5 -572t-417.5 -185q-538 0 -561 694h-338v-662q-29 -12 -76 -12q-24 0 -42.5 3t-25.5 6zM844 737q0 -174 27.5 -297.5 t81.5 -196t126 -105t168 -32.5q97 0 169 32.5t126 105t81.5 196t27.5 297.5t-27.5 297.5t-81.5 196t-126 105t-169 32.5q-96 0 -168 -32.5t-126 -105t-81.5 -196t-27.5 -297.5z" />
<glyph unicode="&#x42f;" horiz-adv-x="1275" d="M94 12l342 621q-141 35 -219 144.5t-78 269.5q0 194 114.5 311t309.5 117h516v-1463q-20 -12 -75 -12q-23 0 -42 3t-26 6l-8 3v604h-330l-330 -604q-33 -12 -88 -12q-24 0 -45.5 3t-30.5 6zM297 1047q0 -142 73.5 -220.5t204.5 -78.5h353v598h-353q-131 0 -204.5 -79 t-73.5 -220z" />
<glyph unicode="&#x430;" horiz-adv-x="1054" d="M94 307q0 158 97 239t290 81q125 0 269 -17v115q0 128 -57.5 187t-184.5 59q-68 0 -140 -12.5t-110 -25.5l-37 -13q-3 2 -8 6t-13.5 15t-13.5 24q-10 26 -10 63q17 8 48.5 19.5t123 31t178.5 19.5q109 0 181.5 -25.5t114 -80t58.5 -128t17 -180.5v-674q-18 -10 -59 -10 q-16 0 -31 2.5t-22 5.5l-7 2l-22 154q-43 -89 -132 -136.5t-212 -47.5q-146 0 -232 85t-86 242zM248 307q0 -106 55.5 -157.5t155.5 -51.5q132 0 211.5 91.5t79.5 232.5v82q-188 16 -248 16q-128 0 -191 -52.5t-63 -160.5z" />
<glyph unicode="&#x431;" horiz-adv-x="1167" d="M143 719q0 114 8.5 204t30 160.5t46 122t69.5 91.5t87 66t112 48.5t130 36t156 31.5q58 11 80 23t45 48q74 -7 101 -53q-19 -69 -60.5 -101.5t-130.5 -47.5q-100 -19 -153 -31t-121.5 -32.5t-102 -42.5t-73 -57.5t-57.5 -82t-33 -110t-21 -148.5h8q41 96 131 152.5 t228 56.5q203 0 315.5 -130.5t112.5 -406.5q0 -536 -445 -536q-86 0 -151.5 17.5t-126.5 66t-100 129.5t-62 213.5t-23 312.5zM315 516q0 -121 21 -205t62 -130t91 -65.5t117 -19.5t117 19.5t91 65.5t62 130t21 205t-21 205t-62 130t-91 65.5t-117 19.5t-116.5 -18.5 t-90.5 -64t-62.5 -130t-21.5 -207.5z" />
<glyph unicode="&#x432;" horiz-adv-x="1054" d="M164 0v1077h442q138 0 217.5 -74t79.5 -206q0 -174 -133 -242q84 -31 129 -98.5t45 -161.5q0 -141 -85.5 -218t-240.5 -77h-454zM311 113h279q98 0 149.5 46.5t51.5 137.5q0 92 -49.5 142t-151.5 50h-279v-376zM311 600h260q90 0 138.5 48.5t48.5 135.5q0 88 -48 134.5 t-139 46.5h-260v-365z" />
<glyph unicode="&#x433;" horiz-adv-x="825" d="M164 10v1067h600q12 -24 12 -63q0 -16 -3 -31.5t-6 -22.5l-3 -8h-453v-942q-22 -10 -73 -10q-23 0 -41.5 2.5t-25.5 5.5z" />
<glyph unicode="&#x434;" horiz-adv-x="1175" d="M53 115h84q46 46 76.5 153.5t46.5 321.5l39 487h664v-962h129v-367q-30 -10 -64 -10t-74 10v252h-766v-252q-30 -10 -67 -10q-43 0 -68 10v367zM299 115h516v843h-391l-29 -376q-23 -318 -96 -467z" />
<glyph unicode="&#x435;" horiz-adv-x="1048" d="M115 545q0 280 117.5 416.5t322.5 136.5q185 0 287 -105.5t102 -292.5q0 -56 -5.5 -108t-10.5 -76l-6 -24h-654q10 -206 87 -293.5t231 -87.5q69 0 132.5 16.5t92.5 33.5l29 17q46 -36 49 -108q-5 -4 -13.5 -10t-40 -21.5t-67 -27.5t-93 -21.5t-118.5 -9.5 q-220 0 -331 143t-111 422zM268 602h518q9 45 9 117q0 114 -58 186t-182 72q-128 0 -203 -91t-84 -284z" />
<glyph unicode="&#x436;" horiz-adv-x="1568" d="M41 12l354 561l-305 494q29 10 78 10q23 0 42.5 -2.5t27.5 -4.5l8 -3l274 -446h193v446q24 10 73 10q20 0 38.5 -2.5t27.5 -4.5l8 -3v-446h193l274 446q29 10 80 10q21 0 39.5 -2.5t26.5 -4.5l8 -3l-303 -494l352 -561q-27 -12 -84 -12q-24 0 -45 3t-30 6l-9 3l-311 492 h-191v-494q-27 -10 -74 -10q-22 0 -40 2.5t-26 5.5l-7 2v494h-193l-311 -492q-31 -12 -84 -12q-26 0 -47 3t-29 6z" />
<glyph unicode="&#x437;" horiz-adv-x="935" d="M76 39q0 64 43 104q11 -5 32 -11.5t90 -18t142 -11.5q149 0 218 49t69 150q0 188 -267 188h-129q-10 25 -10 60q0 15 2.5 28.5t5.5 20.5l2 6h129q238 0 238 187q0 97 -61.5 142.5t-190.5 45.5q-64 0 -125.5 -8.5t-91.5 -17.5l-29 -9q-39 33 -39 105q11 5 34 13.5t104 22 t176 13.5q375 0 375 -297q0 -191 -150 -250v-4q88 -29 133 -94.5t45 -159.5q0 -70 -21.5 -124.5t-69.5 -98t-134 -67t-207 -23.5q-89 0 -167.5 15t-111.5 29z" />
<glyph unicode="&#x438;" horiz-adv-x="1181" d="M164 10v1057q27 10 74 10q22 0 40 -2.5t26 -4.5l7 -3v-592q0 -64 -1.5 -131t-3.5 -105.5t-3 -39.5h4q35 75 92 163l463 705q27 10 78 10q23 0 42.5 -2.5t27.5 -4.5l8 -3v-1057q-27 -10 -74 -10q-20 0 -39 2.5t-28 5.5l-9 2v584q0 78 2 147t4 103t3 35h-7 q4 -1 -39.5 -79.5t-97.5 -164.5l-414 -625q-28 -10 -79 -10q-22 0 -41 2.5t-27 5.5z" />
<glyph unicode="&#x439;" horiz-adv-x="1181" d="M164 10v1057q27 10 74 10q22 0 40 -2.5t26 -4.5l7 -3v-592q0 -65 -1.5 -132t-3.5 -105.5t-3 -38.5h4q35 75 92 163l463 705q27 10 78 10q23 0 42.5 -2.5t27.5 -4.5l8 -3v-1057q-27 -10 -74 -10q-20 0 -39 2.5t-28 5.5l-9 2v584q0 78 2 147t4 102.5t3 35.5h-7 q-37 -82 -94 -172l-457 -697q-28 -10 -79 -10q-22 0 -41 2.5t-27 5.5zM301 1393q17 55 68 73q4 -3 10.5 -8t28.5 -18t46.5 -23t62 -18t75.5 -8q61 0 116.5 18.5t81.5 37.5l25 19q52 -18 68 -73q-4 -5 -11.5 -13.5t-34.5 -29.5t-58 -37t-81.5 -29.5t-105.5 -13.5 q-54 0 -104 12.5t-82.5 31t-57 36.5t-36.5 30z" />
<glyph unicode="&#x43a;" horiz-adv-x="1021" d="M164 10v1057q27 10 76 10q20 0 38 -2.5t26 -4.5l7 -3v-446h172l301 446q31 10 80 10q20 0 38.5 -2.5t27.5 -4.5l8 -3l-332 -494l379 -561q-29 -12 -86 -12q-24 0 -44.5 3t-28.5 6l-9 3l-336 492h-170v-494q-26 -10 -71 -10q-22 0 -41 2.5t-27 5.5z" />
<glyph unicode="&#x43b;" horiz-adv-x="1130" d="M41 51q0 14 2.5 27.5t4.5 20.5l3 7q3 -1 8.5 -1.5t22.5 -1.5t31 1q64 5 106.5 120t63.5 378l36 475h648v-1067q-31 -10 -72 -10q-22 0 -41 2.5t-27 5.5l-8 2v948h-373l-28 -364q-14 -156 -36 -267t-47 -176t-60.5 -102.5t-69 -49t-78.5 -11.5q-18 0 -37 3t-29 6l-10 3 q-10 18 -10 51z" />
<glyph unicode="&#x43c;" horiz-adv-x="1370" d="M164 10v1057q33 10 82 10q23 0 43 -2.5t29 -4.5l8 -3l286 -512q37 -69 64 -131h6q36 85 63 131l297 512q33 10 84 10q20 0 40 -2.5t30 -4.5l10 -3v-1057q-22 -10 -69 -10q-22 0 -40.5 2.5t-26.5 5.5l-7 2v625q0 124 12 244h-6q-44 -99 -78 -160l-276 -471q-14 -8 -39 -8 q-11 0 -21 2t-14 4l-4 2l-262 461q-50 91 -82 170h-6q14 -70 14 -246v-623q-27 -10 -70 -10q-18 0 -35 2.5t-24 5.5z" />
<glyph unicode="&#x43d;" horiz-adv-x="1146" d="M164 10v1057q25 10 74 10q22 0 40 -2.5t26 -4.5l7 -3v-451h525v451q26 10 73 10q22 0 40.5 -2.5t26.5 -4.5l7 -3v-1057q-25 -10 -76 -10q-21 0 -38.5 2.5t-24.5 5.5l-8 2v484h-525v-484q-24 -10 -73 -10q-22 0 -40.5 2.5t-25.5 5.5z" />
<glyph unicode="&#x43e;" horiz-adv-x="1110" d="M117 539q0 294 112 426.5t326 132.5t326 -132.5t112 -426.5t-112 -426.5t-326 -132.5t-326 132.5t-112 426.5zM268 539q0 -126 19.5 -213.5t58.5 -137t89.5 -71t119.5 -21.5t119.5 21.5t89.5 71t58.5 137t19.5 213.5t-19.5 213t-58.5 136.5t-89.5 71t-119.5 21.5 t-119.5 -21.5t-89.5 -71t-58.5 -136.5t-19.5 -213z" />
<glyph unicode="&#x43f;" horiz-adv-x="1124" d="M164 10v1067h797v-1067q-25 -10 -74 -10q-20 0 -38.5 2.5t-26.5 5.5l-9 2v942h-502v-942q-26 -10 -73 -10q-21 0 -39.5 2.5t-26.5 5.5z" />
<glyph unicode="&#x440;" d="M164 -479v1546q23 10 74 10q23 0 41 -2.5t25 -4.5l7 -3v-129q94 160 316 160q93 0 163 -29t123 -93t80 -173.5t27 -263.5t-27 -263.5t-80 -173.5t-123 -93t-163 -29q-222 0 -316 159v-618q-22 -10 -73 -10q-23 0 -41.5 2.5t-25.5 4.5zM311 410q0 -78 29.5 -146.5t92 -114 t145.5 -45.5q153 0 220.5 98t67.5 337t-67 336.5t-221 97.5q-123 0 -194 -88.5t-73 -210.5v-264z" />
<glyph unicode="&#x441;" horiz-adv-x="913" d="M115 539q0 274 112.5 416.5t327.5 142.5q79 0 143.5 -12t89.5 -24l25 -13q0 -72 -45 -111q-71 35 -186 35q-163 0 -238.5 -107t-75.5 -327t78 -324t244 -104q53 0 102.5 9.5t72.5 19.5l23 10q45 -35 48 -109q-11 -7 -31.5 -17t-93.5 -27t-156 -17q-215 0 -327.5 142.5 t-112.5 416.5z" />
<glyph unicode="&#x442;" horiz-adv-x="911" d="M49 1014q0 18 3.5 34t7.5 22l3 7h787q12 -22 12 -63q0 -18 -3 -34t-6 -23l-3 -7h-320v-940q-24 -10 -73 -10q-24 0 -42.5 2.5t-24.5 5.5l-7 2v940h-320q-14 23 -14 64z" />
<glyph unicode="&#x443;" horiz-adv-x="1071" d="M51 1067q27 10 78 10q23 0 42.5 -2.5t27.5 -4.5l8 -3l276 -702q22 -56 40.5 -111t26.5 -82l7 -27h6q23 91 66 220l241 702q23 10 74 10q21 0 39.5 -2.5t26.5 -4.5l8 -3l-434 -1266q-21 -64 -40.5 -108.5t-46.5 -86t-58.5 -65.5t-75 -38.5t-97.5 -14.5q-27 0 -53 4t-39 8 l-12 4q-12 24 -12 58q0 21 5 39t9 22q39 -10 88 -10q69 0 111.5 44t85.5 173l61 172q-22 0 -49 10z" />
<glyph unicode="&#x444;" horiz-adv-x="1591" d="M119 539q0 281 89 420t288 139q59 0 116 -11t84 -21l27 -11v471q21 10 74 10q22 0 40 -2.5t25 -5.5l8 -2v-471q10 5 29.5 12.5t78.5 19.5t118 11q201 -1 289 -139.5t88 -419.5q0 -282 -88.5 -420.5t-288.5 -138.5q-62 0 -118.5 12t-81.5 24l-26 13v-531q-24 -10 -73 -10 q-24 0 -42.5 2.5t-24.5 5.5l-7 2v531q-10 -5 -28.5 -13.5t-77.5 -22t-121 -13.5q-199 0 -288 139t-89 420zM268 539q0 -231 58.5 -335t193.5 -104q55 0 106.5 13.5t75.5 26.5l25 14v780l-9 4q-9 4 -27 11t-41 13.5t-58 11.5t-72 5q-135 0 -193.5 -104.5t-58.5 -335.5z M864 154q10 -6 27.5 -15t72 -24t109.5 -15q135 0 193.5 104t58.5 335t-58.5 335.5t-193.5 104.5q-37 0 -72 -5t-58.5 -11.5t-42 -13.5t-27.5 -11l-9 -4v-780z" />
<glyph unicode="&#x445;" horiz-adv-x="1011" d="M47 10l371 539l-355 518q29 10 82 10q24 0 45 -2.5t30 -4.5l9 -3l285 -410l281 410q22 10 73 10q23 0 43 -2.5t29 -4.5l8 -3l-356 -514l373 -543q-27 -10 -82 -10q-24 0 -45 2.5t-30 5.5l-9 2l-301 434l-297 -434q-25 -10 -78 -10q-22 0 -41 2.5t-27 5.5z" />
<glyph unicode="&#x446;" horiz-adv-x="1175" d="M164 0v1067q25 10 72 10q24 0 42.5 -2.5t25.5 -4.5l7 -3v-942h504v942q27 10 74 10q21 0 39.5 -2.5t26.5 -4.5l8 -3v-942h129v-377q-30 -10 -66 -10q-40 0 -70 10v252h-792z" />
<glyph unicode="&#x447;" horiz-adv-x="1069" d="M106 739v328q25 10 74 10q21 0 39.5 -2.5t26.5 -4.5l8 -3v-330q0 -110 58.5 -161.5t187.5 -51.5q148 0 258 64v479q22 10 71 10q23 0 42 -2.5t27 -4.5l7 -3v-1057q-25 -10 -76 -10q-22 0 -39.5 2.5t-24.5 5.5l-7 2v451q-112 -58 -275 -58q-377 0 -377 336z" />
<glyph unicode="&#x448;" horiz-adv-x="1589" d="M164 0v1067q21 10 74 10q23 0 41 -2.5t25 -4.5l7 -3v-942h410v942q21 10 72 10q23 0 41.5 -2.5t25.5 -4.5l8 -3v-942h410v942q21 10 74 10q22 0 40 -2.5t26 -4.5l7 -3v-1067h-1261z" />
<glyph unicode="&#x449;" horiz-adv-x="1638" d="M164 0v1067q21 10 74 10q23 0 41 -2.5t25 -4.5l7 -3v-942h410v942q21 10 72 10q23 0 41.5 -2.5t25.5 -4.5l8 -3v-942h410v942q21 10 74 10q22 0 40 -2.5t26 -4.5l7 -3v-942h129v-377q-30 -10 -67 -10q-38 0 -68 10v252h-1255z" />
<glyph unicode="&#x44a;" horiz-adv-x="1173" d="M51 1016q0 38 15 61h387v-448h313q149 0 234 -86.5t85 -229.5q0 -142 -85 -227.5t-234 -85.5h-461v950h-239q-15 26 -15 66zM453 113h286q96 0 145.5 52t49.5 148q0 95 -50 149t-145 54h-286v-403z" />
<glyph unicode="&#x44b;" horiz-adv-x="1468" d="M164 0v1067q40 10 74 10q38 0 73 -10v-438h314q149 0 234 -86.5t85 -229.5q0 -142 -85 -227.5t-234 -85.5h-461zM311 113h287q96 0 145.5 52t49.5 148q0 95 -50 149t-145 54h-287v-403zM1157 10v1057q40 10 74 10q39 0 74 -10v-1057q-35 -10 -74 -10q-34 0 -74 10z" />
<glyph unicode="&#x44c;" horiz-adv-x="1032" d="M164 0v1067q40 10 74 10q38 0 73 -10v-438h314q149 0 234 -86.5t85 -229.5q0 -142 -85 -227.5t-234 -85.5h-461zM311 113h287q96 0 145.5 52t49.5 148q0 95 -50 149t-145 54h-287v-403z" />
<glyph unicode="&#x44d;" horiz-adv-x="931" d="M78 41q3 66 45 102q92 -39 213 -39q313 0 328 381h-416q-10 30 -10 60q0 27 10 57h414q-18 377 -318 377q-53 0 -103.5 -8.5t-74.5 -16.5l-25 -8q-41 38 -41 103q10 5 30.5 13.5t91.5 22t151 13.5q217 0 330.5 -142.5t113.5 -416.5q0 -273 -115 -416t-331 -143 q-83 0 -156 15t-105 31z" />
<glyph unicode="&#x44e;" horiz-adv-x="1595" d="M164 10v1057q40 10 74 10q38 0 73 -10v-473h283q10 263 123 383.5t317 120.5q218 0 331.5 -132.5t113.5 -426.5t-114.5 -426.5t-330.5 -132.5q-202 0 -314.5 116t-125.5 371h-283v-457q-35 -10 -73 -10q-34 0 -74 10zM743 539q0 -125 20 -213t60 -137.5t91 -71t120 -21.5 q70 0 121 21.5t90.5 71t59.5 137t20 213.5t-20 213t-59.5 136.5t-90.5 71t-121 21.5q-69 0 -120 -21.5t-91 -71t-60 -137t-20 -212.5z" />
<glyph unicode="&#x44f;" horiz-adv-x="1067" d="M84 10l250 445q-98 32 -150.5 110t-52.5 189q0 147 90 235t250 88h432v-1067q-40 -10 -74 -10q-38 0 -73 10v422h-273l-231 -422q-40 -10 -88 -10q-40 0 -80 10zM283 754q0 -96 55 -152.5t160 -56.5h258v420h-258q-107 0 -161 -55.5t-54 -155.5z" />
<glyph unicode="&#x451;" horiz-adv-x="1046" d="M115 545q0 280 117.5 416.5t322.5 136.5q185 0 287 -105.5t102 -292.5q0 -56 -5.5 -108t-10.5 -76l-6 -24h-654q10 -207 87.5 -297.5t230.5 -90.5q69 0 132.5 17t92.5 34l29 17q42 -31 49 -102q-5 -4 -13.5 -10t-39.5 -21.5t-66.5 -27.5t-93 -21.5t-119.5 -9.5 q-220 0 -331 143t-111 422zM268 602h518q9 45 9 117q0 114 -58 186t-182 72q-128 0 -203 -91t-84 -284zM313 1300v136q25 10 76 10q22 0 41 -2.5t27 -5.5l8 -2v-136q-27 -8 -76 -8q-23 0 -42 2t-27 4zM637 1300v136q25 10 76 10q22 0 40.5 -2.5t26.5 -5.5l8 -2v-136 q-26 -8 -75 -8q-23 0 -42 2t-27 4z" />
<glyph unicode="&#x1e80;" horiz-adv-x="1959" d="M57 1462q25 13 76 13q24 0 43.5 -3.5t27.5 -6.5l7 -3l305 -1046q16 -56 29 -115.5t19 -90.5l5 -32h6q13 111 46 236l292 1048q23 13 76 13q24 0 43.5 -3.5t27.5 -6.5l7 -3l291 -1046q15 -58 25.5 -117.5t14.5 -90.5l3 -30h6q12 103 51 236l297 1048q25 13 70 13 q20 0 38 -3.5t25 -6.5l8 -3l-409 -1450q-31 -12 -82 -12q-22 0 -43.5 3t-31.5 6l-11 3l-285 1037q-18 72 -29.5 134t-13.5 87l-2 26h-6q-6 -85 -45 -247l-287 -1037q-36 -12 -90 -12q-52 0 -84 12zM745 1829q17 27 56.5 44.5t75.5 14.5l202 -284q-24 -43 -88 -50z" />
<glyph unicode="&#x1e81;" horiz-adv-x="1626" d="M59 1067q25 10 74 10q23 0 40 -2.5t23 -4.5l5 -3l225 -717q26 -87 41 -186h6q13 90 45 186l225 717q33 10 78 10q22 0 40.5 -2.5t26.5 -4.5l7 -3l221 -713q24 -76 41 -190h6q10 70 47 188l224 715q24 10 67 10q21 0 37.5 -2.5t22.5 -4.5l6 -3l-328 -1057q-57 -10 -80 -10 t-80 10l-198 629q-58 194 -62 272h-6q-10 -96 -68 -272l-198 -629q-45 -10 -78 -10q-32 0 -82 10zM551 1528q17 27 56 44.5t75 14.5l213 -295q-26 -43 -88 -49z" />
<glyph unicode="&#x1e82;" horiz-adv-x="1959" d="M57 1462q25 13 76 13q24 0 43.5 -3.5t27.5 -6.5l7 -3l305 -1046q16 -56 29 -115.5t19 -90.5l5 -32h6q13 111 46 236l292 1048q23 13 76 13q24 0 43.5 -3.5t27.5 -6.5l7 -3l291 -1046q15 -58 25.5 -117.5t14.5 -90.5l3 -30h6q12 103 51 236l297 1048q25 13 70 13 q20 0 38 -3.5t25 -6.5l8 -3l-409 -1450q-31 -12 -82 -12q-22 0 -43.5 3t-31.5 6l-11 3l-285 1037q-18 72 -29.5 134t-13.5 87l-2 26h-6q-6 -85 -45 -247l-287 -1037q-36 -12 -90 -12q-52 0 -84 12zM834 1606l204 286q39 3 76.5 -13.5t54.5 -45.5l-247 -277q-64 10 -88 50z " />
<glyph unicode="&#x1e83;" horiz-adv-x="1626" d="M59 1067q25 10 74 10q23 0 40 -2.5t23 -4.5l5 -3l225 -717q26 -87 41 -186h6q13 90 45 186l225 717q33 10 78 10q22 0 40.5 -2.5t26.5 -4.5l7 -3l221 -713q24 -76 41 -190h6q10 70 47 188l224 715q24 10 67 10q21 0 37.5 -2.5t22.5 -4.5l6 -3l-328 -1057q-57 -10 -80 -10 t-80 10l-198 629q-58 194 -62 272h-6q-10 -96 -68 -272l-198 -629q-45 -10 -78 -10q-32 0 -82 10zM643 1292l213 295q39 3 76.5 -13.5t54.5 -45.5l-256 -285q-65 7 -88 49z" />
<glyph unicode="&#x1e84;" horiz-adv-x="1959" d="M57 1462q25 13 76 13q24 0 43.5 -3.5t27.5 -6.5l7 -3l305 -1046q16 -56 29 -115.5t19 -90.5l5 -32h6q13 111 46 236l292 1048q23 13 76 13q24 0 43.5 -3.5t27.5 -6.5l7 -3l291 -1046q15 -58 25.5 -117.5t14.5 -90.5l3 -30h6q12 103 51 236l297 1048q25 13 70 13 q20 0 38 -3.5t25 -6.5l8 -3l-409 -1450q-31 -12 -82 -12q-22 0 -43.5 3t-31.5 6l-11 3l-285 1037q-18 72 -29.5 134t-13.5 87l-2 26h-6q-6 -85 -45 -247l-287 -1037q-36 -12 -90 -12q-52 0 -84 12zM752 1610v135q24 8 75 8q22 0 40.5 -2t26.5 -4l7 -2v-135q-25 -8 -74 -8 q-23 0 -41.5 2t-25.5 4zM1075 1610v135q25 8 76 8q22 0 40.5 -2t26.5 -4l7 -2v-135q-25 -8 -74 -8q-23 0 -42 2t-27 4z" />
<glyph unicode="&#x1e85;" horiz-adv-x="1626" d="M59 1067q25 10 74 10q23 0 40 -2.5t23 -4.5l5 -3l225 -717q26 -87 41 -186h6q13 90 45 186l225 717q33 10 78 10q22 0 40.5 -2.5t26.5 -4.5l7 -3l221 -713q24 -76 41 -190h6q10 70 47 188l224 715q24 10 67 10q21 0 37.5 -2.5t22.5 -4.5l6 -3l-328 -1057q-57 -10 -80 -10 t-80 10l-198 629q-58 194 -62 272h-6q-10 -96 -68 -272l-198 -629q-45 -10 -78 -10q-32 0 -82 10zM584 1300v136q24 10 75 10q22 0 41 -2.5t27 -5.5l8 -2v-136q-27 -8 -76 -8q-23 0 -41.5 2t-25.5 4zM907 1300v136q25 10 76 10q22 0 41 -2.5t27 -5.5l8 -2v-136 q-27 -8 -76 -8q-23 0 -42 2t-27 4z" />
<glyph unicode="&#x1ef2;" horiz-adv-x="1286" d="M49 1462q31 13 92 13q25 0 46.5 -3.5t30.5 -6.5l9 -3l422 -686l432 686q25 13 80 13q24 0 45.5 -3.5t31.5 -6.5l9 -3l-530 -841v-609q-25 -12 -74 -12q-24 0 -43.5 3t-27.5 6l-7 3v604zM406 1829q17 27 56 44.5t75 14.5l213 -295q-26 -43 -88 -49z" />
<glyph unicode="&#x1ef3;" horiz-adv-x="1071" d="M51 1067q27 10 78 10q23 0 42.5 -2.5t27.5 -4.5l8 -3l276 -702q22 -56 40.5 -111t26.5 -82l7 -27h6q23 91 66 220l241 702q23 10 74 10q21 0 39.5 -2.5t26.5 -4.5l8 -3l-434 -1266q-21 -64 -40.5 -108.5t-46.5 -86t-58.5 -65.5t-75 -38.5t-97.5 -14.5q-27 0 -53 4t-39 8 l-12 4q-12 24 -12 58q0 21 5 39t9 22q39 -10 88 -10q69 0 111.5 44t85.5 173l61 172q-22 0 -49 10zM260 1528q17 27 56 44.5t75 14.5l213 -295q-26 -43 -88 -49z" />
<glyph unicode="&#x2000;" horiz-adv-x="1078" />
<glyph unicode="&#x2001;" horiz-adv-x="2157" />
<glyph unicode="&#x2002;" horiz-adv-x="1078" />
<glyph unicode="&#x2003;" horiz-adv-x="2157" />
<glyph unicode="&#x2004;" horiz-adv-x="719" />
<glyph unicode="&#x2005;" horiz-adv-x="539" />
<glyph unicode="&#x2006;" horiz-adv-x="359" />
<glyph unicode="&#x2007;" horiz-adv-x="359" />
<glyph unicode="&#x2008;" horiz-adv-x="269" />
<glyph unicode="&#x2009;" horiz-adv-x="431" />
<glyph unicode="&#x200a;" horiz-adv-x="119" />
<glyph unicode="&#x2010;" horiz-adv-x="729" d="M154 594q0 16 2.5 30.5t5.5 20.5l2 6h401q10 -20 10 -57q0 -16 -2.5 -30.5t-4.5 -20.5l-3 -6h-401q-10 20 -10 57z" />
<glyph unicode="&#x2011;" horiz-adv-x="729" d="M154 594q0 16 2.5 30.5t5.5 20.5l2 6h401q10 -20 10 -57q0 -16 -2.5 -30.5t-4.5 -20.5l-3 -6h-401q-10 20 -10 57z" />
<glyph unicode="&#x2012;" horiz-adv-x="729" d="M154 594q0 16 2.5 30.5t5.5 20.5l2 6h401q10 -20 10 -57q0 -16 -2.5 -30.5t-4.5 -20.5l-3 -6h-401q-10 20 -10 57z" />
<glyph unicode="&#x2013;" horiz-adv-x="1196" d="M180 594q0 16 2.5 30.5t5.5 20.5l2 6h814q8 -20 8 -57q0 -16 -2 -30.5t-4 -20.5l-2 -6h-814q-10 20 -10 57z" />
<glyph unicode="&#x2014;" horiz-adv-x="1708" d="M180 594q0 16 2.5 30.5t5.5 20.5l2 6h1326q8 -20 8 -57q0 -16 -2 -30.5t-4 -20.5l-2 -6h-1326q-10 20 -10 57z" />
<glyph unicode="&#x2018;" horiz-adv-x="446" d="M135 1085v103q0 53 13 101.5t31.5 81t36.5 57t31 36.5l13 11l57 -41q-3 -3 -7 -8t-15.5 -23t-20.5 -38.5t-18 -53.5t-12 -68q17 -1 31.5 -3t20.5 -4l5 -1v-150q-27 -12 -84 -12q-24 0 -44.5 3t-28.5 6z" />
<glyph unicode="&#x2019;" horiz-adv-x="428" d="M127 1114q7 7 17.5 21.5t30.5 64t24 105.5q-17 1 -31 3.5t-20 4.5l-5 2v149q27 11 82 11q24 0 45 -2.5t30 -5.5l9 -3v-102q0 -53 -13 -102.5t-31.5 -82t-36.5 -57t-31 -36.5l-13 -11z" />
<glyph unicode="&#x201a;" horiz-adv-x="460" d="M129 -190q7 8 18 22.5t30.5 63.5t23.5 104q-16 1 -29.5 3.5t-19.5 4.5l-5 2v150q25 10 82 10q24 0 45 -2.5t30 -5.5l9 -2v-103q0 -53 -13 -102t-31.5 -81t-37.5 -56.5t-32 -35.5l-13 -11z" />
<glyph unicode="&#x201c;" horiz-adv-x="669" d="M127 1083v103q0 53 13 102.5t31.5 82t36.5 57t31 36.5l13 11l57 -41q-2 -3 -6.5 -8t-15.5 -23t-20 -38.5t-17.5 -53.5t-11.5 -68q16 -1 30 -3.5t20 -4.5l5 -2v-150q-27 -10 -84 -10q-24 0 -44.5 2.5t-28.5 4.5zM383 1083v103q0 53 13 102.5t31.5 82t37.5 57t32 36.5 l13 11l57 -41q-3 -3 -7 -8t-15.5 -23t-20.5 -38.5t-18 -53.5t-12 -68q17 -1 31 -3.5t19 -4.5l5 -2v-150q-25 -10 -82 -10q-24 0 -45 2.5t-30 4.5z" />
<glyph unicode="&#x201d;" horiz-adv-x="688" d="M129 1114q7 7 18 21.5t31.5 64t24.5 105.5q-17 1 -31 3.5t-20 4.5l-5 2v149q25 11 82 11q24 0 45 -2.5t30 -5.5l9 -3v-102q0 -53 -13 -102.5t-31.5 -82t-37.5 -57t-32 -36.5l-13 -11zM387 1114q7 7 17.5 21.5t30.5 64t24 105.5q-16 1 -30 3.5t-20 4.5l-6 2v149 q27 11 84 11q24 0 44.5 -2.5t28.5 -5.5l9 -3v-102q0 -53 -13 -102.5t-31.5 -82t-36.5 -57t-31 -36.5l-13 -11z" />
<glyph unicode="&#x201e;" horiz-adv-x="720" d="M131 -190q7 8 17.5 22.5t30.5 63.5t24 104q-16 1 -30 3.5t-20 4.5l-6 2v150q27 10 84 10q24 0 44.5 -2.5t28.5 -5.5l9 -2v-103q0 -53 -13 -102t-31.5 -81t-36.5 -56.5t-31 -35.5l-13 -11zM391 -190q7 8 18 22.5t30.5 63.5t23.5 104q-16 1 -30 3.5t-19 4.5l-6 2v150 q27 10 84 10q24 0 44 -2.5t28 -5.5l9 -2v-103q0 -53 -13 -102t-31 -81t-36 -56.5t-31 -35.5l-13 -11z" />
<glyph unicode="&#x2020;" horiz-adv-x="1167" d="M61 928q0 17 2.5 32t4.5 21l2 6l469 -12l-15 452q27 9 66 9q17 0 33 -2t23 -4l7 -3l-14 -452l461 12q8 -22 8 -59q0 -16 -2 -31.5t-4 -22.5l-2 -8l-461 15l14 -1100l-63 -41l-66 41l15 1100l-469 -15q-9 25 -9 62z" />
<glyph unicode="&#x2021;" horiz-adv-x="1284" d="M115 928q0 18 2 33t4 21l2 5l469 -12l-14 452q24 9 65 9q18 0 34 -2t23 -4l7 -3l-15 -452l467 12q8 -22 8 -59q0 -17 -2 -32.5t-4 -22.5l-2 -7l-467 15l15 -289l-15 -287l469 14q8 -22 8 -61q0 -18 -2 -33t-4 -21l-2 -5l-469 14l15 -455q-25 -8 -66 -8q-18 0 -34 2t-23 4 l-6 2l14 455l-467 -14q-8 22 -8 59q0 17 2 32.5t4 21.5l2 7l467 -14l-14 287l14 289l-469 -15q-8 23 -8 62z" />
<glyph unicode="&#x2022;" horiz-adv-x="651" d="M199 578q0 57 36 92t91 35q56 0 91.5 -34.5t35.5 -92.5q0 -56 -35.5 -90.5t-91.5 -34.5q-55 0 -91 34.5t-36 90.5z" />
<glyph unicode="&#x2026;" horiz-adv-x="1204" d="M147 10v150q27 10 84 10q24 0 45 -2.5t30 -5.5l9 -2v-150q-29 -10 -84 -10q-25 0 -46 2.5t-29 5.5zM520 10v150q27 10 84 10q24 0 44.5 -2.5t29.5 -5.5l8 -2v-150q-29 -10 -82 -10q-25 0 -46 2.5t-30 5.5zM891 10v150q25 10 82 10q24 0 45 -2.5t30 -5.5l9 -2v-150 q-29 -10 -84 -10q-25 0 -45.5 2.5t-28.5 5.5z" />
<glyph unicode="&#x202f;" horiz-adv-x="431" />
<glyph unicode="&#x2030;" horiz-adv-x="2203" d="M96 1061q0 354 273 354q272 0 272 -354t-272 -354q-134 0 -203.5 84t-69.5 270zM215 1061q0 -99 19.5 -156.5t51.5 -78.5t83 -21q75 0 113 56t38 200q0 143 -38.5 200.5t-112.5 57.5q-77 0 -115.5 -57.5t-38.5 -200.5zM315 -10l795 1437q19 11 64 11q19 0 35 -3t22 -5 l6 -3l-793 -1437q-22 -10 -65 -10q-18 0 -34 2.5t-23 5.5zM903 334q0 354 273 354q272 0 272 -354t-272 -354q-133 0 -203 84t-70 270zM1022 334q0 -144 39 -200t115 -56t113.5 56t37.5 200q0 143 -38.5 200.5t-112.5 57.5q-76 0 -115 -57.5t-39 -200.5zM1569 334 q0 354 270 354q275 0 275 -354t-275 -354q-132 0 -201 84t-69 270zM1688 334q0 -144 37.5 -200t113.5 -56t114 56t38 200q0 143 -39 200.5t-113 57.5q-75 0 -113 -57.5t-38 -200.5z" />
<glyph unicode="&#x2039;" horiz-adv-x="696" d="M100 549q0 18 3 34.5t7 23.5l3 7l417 428q41 -28 52 -92l-353 -397l353 -399q-11 -65 -52 -93l-417 426q-13 23 -13 62z" />
<glyph unicode="&#x203a;" horiz-adv-x="696" d="M115 154l352 399l-352 397q11 64 51 92l418 -428q12 -24 12 -65q0 -17 -3 -32.5t-6 -22.5l-3 -7l-418 -426q-40 27 -51 93z" />
<glyph unicode="&#x2044;" horiz-adv-x="268" d="M-326 -10l793 1437q20 11 61 11q18 0 33.5 -3t22.5 -5l6 -3l-795 -1437q-22 -10 -61 -10q-16 0 -31 2.5t-22 5.5z" />
<glyph unicode="&#x205f;" horiz-adv-x="539" />
<glyph unicode="&#x2080;" horiz-adv-x="702" d="M82 156q0 184 66.5 272t201.5 88t203 -87t68 -273q0 -363 -271 -363q-135 0 -201.5 88t-66.5 275zM186 156q0 -151 38 -213t126 -62q87 0 125.5 62t38.5 213q0 148 -39 211t-125 63q-87 0 -125.5 -62.5t-38.5 -211.5z" />
<glyph unicode="&#x2081;" horiz-adv-x="497" d="M53 365q134 36 223 135q21 6 52 6q29 0 47 -6v-690q-21 -7 -47 -7q-33 0 -56 7v483q0 59 2 84q-84 -71 -196 -94q-32 32 -25 82z" />
<glyph unicode="&#x2082;" horiz-adv-x="612" d="M66 -113q0 57 20 101.5t52.5 73.5t71.5 52.5t78 43t71.5 40.5t52.5 50.5t20 66.5q0 52 -39 83.5t-117 31.5q-41 0 -85 -7.5t-56 -12.5q-29 38 -24 77q75 29 184 29q117 0 178.5 -51.5t61.5 -142.5q0 -50 -19 -89.5t-50 -65t-68.5 -47.5t-75.5 -42.5t-71 -44t-55.5 -59 t-27.5 -80.5h350q10 -23 10 -46q0 -22 -10 -45h-444q-8 37 -8 84z" />
<glyph unicode="&#x2083;" horiz-adv-x="612" d="M68 -172q0 50 28 72q68 -21 154 -21q100 0 139 33t39 92q0 125 -147 125h-93q-16 42 0 84h93q125 0 125 106q0 111 -142 111q-38 0 -76.5 -4.5t-57.5 -9.5l-19 -4q-28 28 -25 73q73 31 184 31q115 0 177.5 -48t62.5 -136q0 -58 -21.5 -96t-70.5 -62q56 -23 85 -65 t29 -113q0 -203 -278 -203q-50 0 -96.5 8.5t-67.5 17.5z" />
<glyph unicode="&#x2084;" horiz-adv-x="663" d="M53 18q0 9 6 33l353 447q20 8 49 8t49 -8v-432h82q8 -20 8 -41q0 -23 -8 -39h-82v-176q-42 -7 -45 -7q-10 0 -45 7v176h-361q-6 24 -6 32zM174 66h246v311z" />
<glyph unicode="&#x2085;" horiz-adv-x="604" d="M68 -172q-4 47 26 74q68 -23 150 -23q184 0 184 131q0 79 -51.5 108t-173.5 29h-86v359h377q18 -43 0 -90h-279v-180q159 0 238 -52t79 -172q0 -219 -278 -219q-51 0 -97.5 8.5t-67.5 17.5z" />
<glyph unicode="&#x2086;" horiz-adv-x="632" d="M80 90q0 183 103.5 293.5t303.5 128.5q20 -38 0 -82q-119 -14 -194.5 -73t-95.5 -162q77 34 145 34q102 0 163.5 -56.5t61.5 -158.5q0 -108 -67 -164.5t-172 -56.5q-119 0 -183.5 75t-64.5 222zM184 104q0 -229 144 -229q62 0 98.5 37t36.5 102q0 60 -35.5 95.5 t-97.5 35.5q-78 0 -146 -41z" />
<glyph unicode="&#x2087;" horiz-adv-x="565" d="M63 414q-19 46 0 92h441q6 -27 6 -60q0 -55 -15.5 -103t-39.5 -84t-53.5 -70.5t-59 -71.5t-53.5 -78.5t-38 -100.5t-13 -128q-50 -12 -103 0q1 99 24.5 176t59 126.5t71.5 91.5t68.5 95.5t44.5 114.5h-340z" />
<glyph unicode="&#x2088;" horiz-adv-x="659" d="M80 -16q0 119 125 192q-105 62 -105 164q0 80 60 128t170 48q105 0 165 -45.5t60 -128.5q0 -110 -104 -176q61 -31 95 -72.5t34 -105.5q0 -92 -66 -143.5t-184 -51.5q-116 0 -183 49t-67 142zM178 -10q0 -115 156 -115q64 0 104.5 27.5t40.5 79.5q0 22 -9.5 41t-22 32 t-36 26.5t-40.5 21t-46.5 20t-43.5 18.5q-13 -7 -27 -18t-33 -30t-31 -46t-12 -57zM201 344q0 -27 11.5 -47.5t37.5 -37t47.5 -26.5t59.5 -25q12 -5 18 -7q84 57 84 135q0 102 -131 102q-59 0 -93 -25.5t-34 -68.5z" />
<glyph unicode="&#x2089;" horiz-adv-x="630" d="M66 295q0 108 66.5 164.5t170.5 56.5q120 0 184 -75t64 -222q0 -183 -102.5 -293.5t-301.5 -128.5q-11 15 -12 39t8 43q120 14 196 73t97 163q-68 -33 -147 -33q-102 0 -162.5 55.5t-60.5 157.5zM170 295q0 -61 34.5 -96t98.5 -35q16 0 31 1.5t28.5 5t23 6t21 7.5 t16.5 7.5t15 8t11 5.5q-3 229 -146 229q-62 0 -97.5 -36.5t-35.5 -102.5z" />
<glyph unicode="&#x20ac;" horiz-adv-x="1204" d="M106 475q-7 53 19 100h143q-4 70 -4 111q0 76 4 115h-162q-7 56 19 100h154q71 492 497 492q91 0 167 -16t106 -32l30 -16q-3 -70 -45 -104q-11 5 -31 12.5t-82.5 20t-125.5 12.5q-151 0 -243.5 -84.5t-121.5 -284.5h528q10 -54 -18 -100h-524q-2 -37 -2 -117 q0 -76 2 -109h458q10 -54 -18 -100h-428q15 -105 47.5 -178.5t81 -115t106 -59.5t132.5 -18q69 0 134 11.5t95 22.5l31 12q41 -33 45 -105q-12 -7 -36 -18t-108 -29t-180 -18q-430 0 -497 495h-173z" />
<glyph unicode="&#x2113;" horiz-adv-x="944" d="M61 463q82 36 183 104v518q0 111 15 190.5t51 140t100 90.5t157 30q146 0 220.5 -82t74.5 -223q0 -185 -126.5 -368.5t-344.5 -338.5v-229q0 -103 38.5 -146t115.5 -43q37 0 75 11.5t66.5 28t52 33.5t35.5 29l12 11q28 -6 48 -26t24 -48q-5 -7 -15 -18t-44 -39.5t-72 -50 t-98 -39.5t-123 -18q-138 0 -200 85.5t-62 288.5v80q-69 -40 -140 -74q-46 36 -43 103zM391 680q153 133 241.5 274t88.5 275q0 198 -150 198q-92 0 -136 -62t-44 -220v-465z" />
<glyph unicode="&#x2117;" horiz-adv-x="1646" d="M125 696q0 190 93 351t254 254.5t351 93.5t351 -93.5t254.5 -254.5t93.5 -351t-93.5 -351t-254.5 -254t-351 -93q-143 0 -272 55t-222.5 148.5t-148.5 222.5t-55 272zM227 696q0 -161 80 -298.5t217.5 -217.5t298.5 -80q121 0 231.5 47.5t189.5 127.5t126 190t47 231 q0 161 -79 298t-216 216.5t-299 79.5q-161 0 -298.5 -79.5t-217.5 -216.5t-80 -298zM606 295v776h293q121 0 193.5 -72t72.5 -190q0 -120 -72.5 -192t-193.5 -72h-184v-250q-25 -12 -55.5 -12t-53.5 12zM715 641h174q77 0 120.5 43t43.5 125q0 81 -44 124.5t-120 43.5h-174 v-336z" />
<glyph unicode="&#x2122;" horiz-adv-x="1284" d="M82 1444q0 16 6 31h416q6 -12 6 -29q0 -16 -6 -31h-172v-524q-10 -6 -35 -6q-11 0 -19.5 1.5t-11.5 3.5l-2 1v524h-176q-6 24 -6 29zM606 891v577q12 7 41 7q12 0 25 -3.5t14 -3.5l102 -200q43 -84 70 -154q18 47 70 146l104 208q20 7 43 7q12 0 22.5 -1.5t15.5 -3.5 l5 -2v-577q-13 -6 -33 -6q-10 0 -18.5 1.5t-12.5 3.5l-3 1v254q0 161 2 233q-31 -66 -62 -127l-104 -202q-11 -7 -31 -7q-9 0 -16.5 2t-11.5 4l-3 1l-100 200q-5 11 -27.5 57.5t-33.5 71.5q4 -61 4 -233v-254q-13 -6 -31 -6q-9 0 -16.5 1.5t-10.5 3.5z" />
<glyph unicode="&#x2126;" horiz-adv-x="1474" d="M117 66q0 39 14 67h301q-76 87 -112 140q-162 236 -162 505q0 365 153.5 541t425.5 176q274 0 427 -176t153 -541q0 -95 -22 -187.5t-51 -157t-70 -128t-67.5 -96t-54.5 -63.5q-9 -9 -12 -13h303q15 -43 15 -65q0 -30 -15 -68h-481q-31 70 0 137q36 31 70.5 66.5t77 96.5 t73.5 127.5t52.5 159t21.5 191.5q0 590 -420 590t-420 -590q0 -99 21.5 -191.5t52.5 -159t73.5 -127.5t77 -96.5t70.5 -66.5q27 -65 0 -137h-481q-14 35 -14 66z" />
<glyph unicode="&#x212e;" horiz-adv-x="1654" d="M123 700q0 146 57.5 279.5t154 230t230 154t279.5 57.5t279.5 -57.5t230 -154t154 -230t57.5 -279.5v-49h-1114v-446q184 -137 393 -137q202 0 383 127h137q-203 -215 -520 -215q-146 0 -279.5 57t-230 153.5t-154 230t-57.5 279.5zM451 741h786v453q-175 139 -393 139 q-213 0 -393 -137v-455z" />
<glyph unicode="&#x2153;" horiz-adv-x="1464" d="M72 1270q136 36 223 133q19 8 51 8q19 0 47 -8v-688q-21 -6 -47 -6q-37 0 -55 6v483q0 57 2 82q-84 -71 -197 -94q-31 28 -24 84zM227 -12l795 1439q16 11 55 11q17 0 31 -3t20 -5l5 -3l-793 -1439q-20 -8 -57 -8q-15 0 -29 2t-20 4zM905 25q-4 46 27 71q69 -20 155 -20 q179 0 179 125t-148 125h-94q-16 42 0 84h94q62 0 93.5 28t31.5 78q0 111 -141 111q-38 0 -77 -4.5t-59 -9.5l-20 -5q-27 27 -24 74q75 31 186 31q114 0 176 -48.5t62 -136.5q0 -57 -22 -94.5t-71 -62.5q56 -23 85.5 -65t29.5 -113q0 -203 -276 -203q-51 0 -98 8.5t-68 17.5 z" />
<glyph unicode="&#x2154;" horiz-adv-x="1593" d="M96 793q0 77 38 132.5t92 86.5t107.5 58t91.5 64t38 87t-38 81.5t-114 32.5q-85 0 -145 -20q-28 36 -25 78q78 28 187 28q115 0 177 -51.5t62 -142.5q0 -50 -19 -89.5t-50 -65t-68.5 -47.5t-76 -42.5t-71.5 -44t-55.5 -59t-27.5 -80.5h352q8 -19 8 -45t-8 -45h-447 q-8 37 -8 84zM356 -12l795 1439q16 11 55 11q17 0 31 -3t19 -5l6 -3l-793 -1439q-20 -8 -57 -8q-15 0 -29 2t-21 4zM1034 25q-4 46 27 71q70 -20 156 -20q99 0 138.5 33t39.5 92q0 125 -148 125h-94q-16 42 0 84h94q62 0 93.5 28t31.5 78q0 111 -141 111q-38 0 -77 -4.5 t-59 -9.5l-20 -5q-27 27 -24 74q75 31 186 31q114 0 176 -48.5t62 -136.5q0 -57 -22 -94.5t-71 -62.5q56 -23 85.5 -65t29.5 -113q0 -203 -276 -203q-51 0 -98 8.5t-68 17.5z" />
<glyph unicode="&#x215b;" horiz-adv-x="1462" d="M72 1270q136 36 223 133q19 8 51 8q19 0 47 -8v-688q-21 -6 -47 -6q-37 0 -55 6v483q0 57 2 82q-84 -71 -197 -94q-31 28 -24 84zM227 -12l795 1439q16 11 55 11q17 0 31 -3t20 -5l5 -3l-793 -1439q-20 -8 -57 -8q-15 0 -29 2t-20 4zM868 180q0 120 125 193 q-104 62 -104 164q0 80 59.5 128t169.5 48q105 0 165 -45.5t60 -128.5q0 -111 -104 -177q61 -31 95 -72.5t34 -105.5q0 -92 -65.5 -143t-184.5 -51q-116 0 -183 48.5t-67 141.5zM967 186q0 -114 155 -114q65 0 105.5 27t40.5 79q0 22 -9.5 41.5t-22 32t-36.5 26.5 t-40.5 21.5t-46.5 20t-44 18.5q-19 -11 -38.5 -26.5t-41.5 -51t-22 -74.5zM989 541q0 -27 11.5 -48t39 -38t47 -26t61.5 -26q3 -1 5 -2t5 -2t5 -2q84 57 84 135q0 50 -33.5 76.5t-97.5 26.5q-59 0 -93 -25.5t-34 -68.5z" />
<glyph unicode="&#x215c;" horiz-adv-x="1556" d="M104 733q-4 47 27 72q70 -21 156 -21q99 0 138.5 33t39.5 92q0 125 -148 125h-94q-16 42 0 84h94q62 0 93.5 28t31.5 79q0 110 -141 110q-38 0 -77 -4.5t-59 -8.5l-20 -5q-27 27 -24 74q75 30 186 30q114 0 176 -48t62 -136q0 -58 -21.5 -96t-70.5 -62q56 -23 85 -65 t29 -113q0 -203 -276 -203q-51 0 -98 8.5t-68 17.5zM322 -12l794 1439q16 11 55 11q17 0 31 -3t20 -5l5 -3l-793 -1439q-20 -8 -57 -8q-15 0 -28.5 2t-20.5 4zM963 180q0 120 124 193q-104 62 -104 164q0 80 59.5 128t169.5 48q105 0 165.5 -45.5t60.5 -128.5 q0 -110 -105 -177q61 -31 95 -72.5t34 -105.5q0 -92 -65.5 -143t-184.5 -51q-116 0 -182.5 48.5t-66.5 141.5zM1061 186q0 -114 156 -114q65 0 105 27t40 79q0 22 -9.5 41.5t-22 32t-36.5 26.5t-40.5 21.5t-46.5 20t-44 18.5q-19 -11 -38.5 -26.5t-41.5 -51t-22 -74.5z M1083 541q0 -27 11.5 -48t39 -38t47 -26t61.5 -26q3 -1 5 -2t5 -2t5 -2q84 57 84 135q0 50 -33.5 76.5t-97.5 26.5q-59 0 -93 -25.5t-34 -68.5z" />
<glyph unicode="&#x215d;" horiz-adv-x="1548" d="M100 733q-3 46 25 74q69 -23 149 -23q96 0 140.5 32.5t44.5 98.5q0 79 -51.5 108.5t-171.5 29.5h-89v358h379q16 -47 0 -90h-280v-180q159 0 239 -51.5t80 -171.5q0 -220 -278 -220q-51 0 -98 8.5t-68 17.5zM313 -12l795 1439q16 11 55 11q17 0 31 -3t20 -5l5 -3 l-793 -1439q-20 -8 -57 -8q-15 0 -29 2t-20 4zM954 180q0 120 125 193q-104 62 -104 164q0 80 59.5 128t169.5 48q105 0 165.5 -45.5t60.5 -128.5q0 -110 -105 -177q61 -31 95 -72.5t34 -105.5q0 -92 -65.5 -143t-184.5 -51q-116 0 -183 48.5t-67 141.5zM1053 186 q0 -114 155 -114q65 0 105.5 27t40.5 79q0 22 -9.5 41.5t-22 32t-36.5 26.5t-40.5 21.5t-46.5 20t-44 18.5q-19 -11 -38.5 -26.5t-41.5 -51t-22 -74.5zM1075 541q0 -27 11.5 -48t39 -38t47 -26t61.5 -26q3 -1 5 -2t5 -2t5 -2q84 57 84 135q0 50 -33.5 76.5t-97.5 26.5 q-59 0 -93 -25.5t-34 -68.5z" />
<glyph unicode="&#x215e;" horiz-adv-x="1378" d="M106 1319q-16 46 0 92h443q6 -26 6 -57q0 -56 -15 -104t-38.5 -84t-52 -71t-56.5 -72.5t-51.5 -79t-38 -100.5t-14.5 -128q-51 -12 -101 0q1 98 23.5 174.5t56.5 126.5t68.5 92.5t66 96t43.5 114.5h-340zM143 -12l795 1439q16 11 55 11q17 0 31 -3t20 -5l5 -3l-793 -1439 q-20 -8 -57 -8q-15 0 -29 2t-20 4zM784 180q0 120 125 193q-104 62 -104 164q0 80 59.5 128t169.5 48q105 0 165.5 -45.5t60.5 -128.5q0 -110 -105 -177q61 -31 95 -72.5t34 -105.5q0 -92 -65.5 -143t-184.5 -51q-116 0 -183 48.5t-67 141.5zM883 186q0 -114 155 -114 q65 0 105.5 27t40.5 79q0 22 -9.5 41.5t-22 32t-36.5 26.5t-40.5 21.5t-46.5 20t-44 18.5q-19 -11 -38.5 -26.5t-41.5 -51t-22 -74.5zM905 541q0 -27 11.5 -48t39 -38t47 -26t61.5 -26q3 -1 5 -2t5 -2t5 -2q84 57 84 135q0 50 -33.5 76.5t-97.5 26.5q-59 0 -93 -25.5 t-34 -68.5z" />
<glyph unicode="&#x2190;" horiz-adv-x="1273" d="M84 717l440 440q50 -17 68 -67l-320 -320h895q9 -22 9 -53t-9 -53h-895l320 -320q-9 -25 -27.5 -43.5t-40.5 -24.5z" />
<glyph unicode="&#x2191;" horiz-adv-x="1017" d="M70 823l438 439l440 -439q-13 -49 -65 -69l-320 319v-893q-20 -10 -55 -10q-23 0 -53 10v893l-318 -319q-54 19 -67 69z" />
<glyph unicode="&#x2192;" horiz-adv-x="1273" d="M98 717q0 35 11 53h892l-319 320q18 50 70 67l438 -440l-438 -441q-23 6 -42 24.5t-28 43.5l319 320h-892q-11 28 -11 53z" />
<glyph unicode="&#x2193;" horiz-adv-x="1017" d="M70 610q14 50 67 68l318 -320v895q27 9 53 9q28 0 55 -9v-895l320 320q23 -9 41 -27.5t24 -40.5l-440 -440z" />
<glyph unicode="&#x2196;" horiz-adv-x="1050" d="M152 479v623h622q10 -23 10 -47q0 -22 -10 -49h-450l632 -631q-9 -25 -30 -46t-47 -32l-633 635l2 -453q-19 -8 -47 -8q-30 0 -49 8z" />
<glyph unicode="&#x2197;" horiz-adv-x="1050" d="M94 375l633 631h-451q-10 27 -10 49q0 24 10 47h623v-623q-19 -8 -49 -8q-28 0 -47 8v451l-631 -633q-59 24 -78 78z" />
<glyph unicode="&#x2198;" horiz-adv-x="1042" d="M80 1010q18 53 78 77l630 -632v450q19 8 48 8q30 0 49 -8v-622h-623q-10 23 -10 47q0 22 10 49h451z" />
<glyph unicode="&#x2199;" horiz-adv-x="1042" d="M158 285v620q17 10 49 10q29 0 47 -10v-450l631 632q60 -24 78 -77l-633 -631h450q11 -26 11 -47q0 -25 -11 -47h-622z" />
<glyph unicode="&#x2202;" horiz-adv-x="1140" d="M117 516q0 279 111.5 408t312.5 129q179 0 288 -121q-48 192 -182.5 316t-361.5 161q-17 79 20 127q357 -47 531 -268.5t174 -626.5q0 -149 -20 -261.5t-57.5 -188t-94 -123t-124.5 -68t-155 -20.5q-442 0 -442 536zM270 516q0 -119 20.5 -202.5t60 -130t90 -67 t118.5 -20.5q297 0 297 420q0 176 -6 260q-43 76 -123.5 117t-175.5 41q-68 0 -117 -19.5t-87.5 -66t-57.5 -129.5t-19 -203z" />
<glyph unicode="&#x2206;" horiz-adv-x="1310" d="M53 80l531 1384q44 11 78 11q33 0 77 -11l518 -1382q-12 -50 -51 -82h-1102q-41 31 -51 80zM221 127h862l-362 952q-33 83 -64 203h-6q-14 -75 -63 -205z" />
<glyph unicode="&#x220f;" horiz-adv-x="1452" d="M205 -412v1831h1042v-1831q-22 -12 -71 -12q-20 0 -37 3t-24 6l-7 3v1700h-764v-1700q-21 -12 -72 -12q-19 0 -36 3t-24 6z" />
<glyph unicode="&#x2211;" horiz-adv-x="1196" d="M74 -346l465 881l-430 819v67h981q10 -22 10 -63q0 -17 -2.5 -33t-5.5 -23l-2 -8h-793l399 -762l-432 -827h838q10 -22 10 -65q0 -17 -2.5 -33t-5.5 -23l-2 -8h-1028v78z" />
<glyph unicode="&#x2212;" horiz-adv-x="950" d="M162 676q0 17 2.5 32t5.5 21l2 6h608q8 -20 8 -59q0 -17 -2 -32t-4 -22l-2 -6h-608q-10 21 -10 60z" />
<glyph unicode="&#x2215;" horiz-adv-x="972" d="M27 -10l792 1437q21 11 62 11q18 0 33.5 -3t21.5 -5l6 -3l-795 -1437q-22 -10 -61 -10q-16 0 -31 2.5t-21 5.5z" />
<glyph unicode="&#x2219;" horiz-adv-x="487" d="M154 688q0 42 27 66t63 24t63 -24t27 -66t-27 -66t-63 -24t-63 24t-27 66z" />
<glyph unicode="&#x221a;" horiz-adv-x="1300" d="M61 739l328 144l305 -731l453 1343q71 10 108 -29l-501 -1497h-115l-320 762l-217 -94q-21 16 -33 44t-8 58z" />
<glyph unicode="&#x221e;" horiz-adv-x="1671" d="M123 666q0 66 22 125.5t64 109t112 78.5t158 29q51 0 98.5 -13.5t82 -35.5t64.5 -48t50 -52t34.5 -48t21.5 -35l6 -14q5 10 14.5 26.5t42.5 59t71 75t99.5 59t128.5 26.5q88 0 158 -29t112 -78.5t64 -109t22 -125.5t-22 -125.5t-64 -109t-112 -78.5t-158 -29 q-70 0 -132.5 25t-101.5 60.5t-68 71.5t-42 61l-12 25q-4 -10 -13 -26.5t-41 -58t-69.5 -73.5t-100.5 -58.5t-133 -26.5q-88 0 -158 29t-112 78.5t-64 109t-22 125.5zM244 666q0 -91 57 -158.5t174 -67.5q56 0 106 23.5t81 56.5t54 66t32 56l10 24q-3 9 -10 24t-32 54 t-54.5 68.5t-80 54t-106.5 24.5q-117 0 -174 -67t-57 -158zM913 666q3 -9 10 -24.5t32 -54.5t54.5 -68.5t80 -54t106.5 -24.5q117 0 174 67.5t57 158.5t-57 158t-174 67q-56 0 -106 -23t-81 -56.5t-54 -66.5t-33 -56z" />
<glyph unicode="&#x222b;" horiz-adv-x="1019" d="M31 -311q6 60 53 90q100 -67 201 -62q157 11 157 222v1206q0 158 75 245t220 87q123 0 252 -80q-10 -62 -53 -90q-103 63 -205 57q-168 -7 -168 -217v-1208q0 -168 -77 -249t-216 -81q-106 0 -239 80z" />
<glyph unicode="&#x2248;" horiz-adv-x="1095" d="M160 408q3 5 8 13t25.5 28t44 35.5t64.5 28.5t87 13q45 0 89 -16t74 -36t73 -36t86 -16q44 0 81.5 18.5t53.5 37.5l16 18q61 -16 74 -76q-3 -5 -8 -13t-25 -28.5t-44 -36t-65.5 -28.5t-88.5 -13q-45 0 -89 16.5t-74 36t-73 36t-86 16.5q-27 0 -53 -8t-43 -19t-30.5 -22 t-19.5 -19l-6 -8q-61 18 -71 78zM160 752q3 5 8 12.5t25.5 27.5t44 35.5t64.5 28t87 12.5q45 0 89 -16t74 -36t73 -36t86 -16q44 0 81.5 19t53.5 38l16 19q62 -19 74 -76q-3 -5 -8 -13t-25 -28.5t-44 -36t-65.5 -28.5t-88.5 -13q-45 0 -89 16.5t-74 36t-73 36t-86 16.5 q-27 0 -53 -8t-43 -19t-30.5 -22t-19.5 -19l-6 -8q-61 15 -71 78z" />
<glyph unicode="&#x2260;" horiz-adv-x="991" d="M129 414q0 29 10 59h223l134 242h-357q-10 30 -10 59q0 30 10 55h420l96 172q33 11 58 11t53 -11l-96 -172h178q10 -25 10 -55q0 -29 -10 -59h-242l-133 -242h375q10 -30 10 -57q0 -25 -10 -60h-440l-103 -188q-30 -10 -59 -10q-26 0 -51 10l104 188h-160q-10 35 -10 58z " />
<glyph unicode="&#x2264;" horiz-adv-x="958" d="M156 281q0 16 2.5 30.5t5.5 20.5l2 6h618q11 -20 11 -57q0 -17 -2.5 -32t-5.5 -21l-3 -7h-618q-10 21 -10 60zM156 758q0 18 2.5 34.5t5.5 23.5l2 7l618 238q11 -19 11 -60q0 -18 -2.5 -33.5t-5.5 -21.5l-3 -6l-483 -184l483 -181q11 -20 11 -61q0 -17 -2.5 -32t-5.5 -21 l-3 -6l-618 235q-10 29 -10 68z" />
<glyph unicode="&#x2265;" horiz-adv-x="958" d="M164 281q0 16 2.5 30.5t5.5 20.5l2 6h619q10 -20 10 -57q0 -17 -2.5 -32t-4.5 -21l-3 -7h-619q-10 21 -10 60zM164 514q0 18 2.5 33.5t5.5 21.5l2 6l483 181l-483 184q-10 20 -10 61q0 18 2.5 33t5.5 21l2 6l619 -238q10 -24 10 -65q0 -17 -2.5 -34t-4.5 -26l-3 -8 l-619 -235q-10 20 -10 59z" />
<glyph unicode="&#x25ca;" horiz-adv-x="1124" d="M94 721l434 704h66l438 -704l-438 -707h-66zM242 719l319 -537l328 537l-328 536z" />
<glyph unicode="&#x25fc;" horiz-adv-x="1075" d="M0 0v1075h1075v-1075h-1075z" />
<glyph unicode="&#xf6c3;" horiz-adv-x="0" d="M84 -190q7 8 18 22.5t30.5 63.5t23.5 104q-16 1 -29.5 3.5t-18.5 4.5l-6 2v150q25 10 82 10q24 0 45 -2.5t30 -5.5l9 -2v-103q0 -53 -13 -102t-32 -81t-37.5 -56.5t-31.5 -35.5l-13 -11z" />
<glyph horiz-adv-x="659" />
<glyph horiz-adv-x="0" />
<glyph horiz-adv-x="1323" d="M59 80l531 1384q44 11 78 11q33 0 77 -11l519 -1382q-11 -49 -52 -82h-1101q-43 32 -52 80zM227 127h863l-363 952q-30 76 -63 203h-7q-14 -75 -63 -205z" />
<glyph horiz-adv-x="1433" d="M94 66q0 37 15 67h301q-75 86 -109 135q-166 238 -166 510q0 185 41.5 324t118.5 224t182 127t238 42q273 0 426 -176t153 -541q0 -69 -12.5 -138t-27 -119.5t-44.5 -109.5t-46.5 -88.5t-53 -78t-43.5 -56t-38 -42.5q-8 -9 -11 -13h303q14 -40 14 -65q0 -33 -14 -68h-481 q-31 70 0 137q36 31 70.5 66.5t77 96.5t73.5 127.5t52.5 159t21.5 191.5q0 590 -420 590t-420 -590q0 -99 21.5 -191.5t52.5 -159t73.5 -127.5t77 -96.5t70.5 -66.5q27 -65 0 -137h-481q-15 38 -15 66z" />
<glyph horiz-adv-x="0" d="M82 1085v103q0 53 13 101.5t31 81t36.5 57t31.5 36.5l13 11l57 -41q-7 -7 -18 -21.5t-31.5 -64t-24.5 -105.5q17 -1 31.5 -3t20.5 -4l6 -1v-150q-27 -12 -84 -12q-24 0 -44.5 3t-29.5 6z" />
<glyph horiz-adv-x="659" d="M80 180q0 120 125 193q-105 62 -105 164q0 80 60 128t170 48q105 0 165 -45.5t60 -128.5q0 -111 -104 -177q61 -31 95 -72.5t34 -105.5q0 -92 -65.5 -143t-184.5 -51q-116 0 -183 48.5t-67 141.5zM178 186q0 -114 156 -114q65 0 105 27t40 79q0 22 -9.5 41.5t-22 32 t-36 26.5t-40 21.5t-46.5 20t-44 18.5q-13 -7 -27 -18t-33 -30t-31 -46.5t-12 -57.5zM201 541q0 -27 11.5 -48t39 -38t47 -26t61.5 -26q3 -1 5 -2t5 -2t5 -2q84 57 84 135q0 50 -33.5 76.5t-97.5 26.5q-59 0 -93 -25.5t-34 -68.5z" />
<glyph horiz-adv-x="659" d="M80 889q0 119 125 192q-105 62 -105 164q0 80 60 128t170 48q105 0 165 -45.5t60 -128.5q0 -110 -104 -176q61 -31 95 -72.5t34 -105.5q0 -92 -66 -143.5t-184 -51.5q-116 0 -183 49t-67 142zM178 895q0 -115 156 -115q64 0 104.5 27.5t40.5 79.5q0 22 -9.5 41.5t-22 32 t-36 26.5t-40 21.5t-46.5 20t-44 18.5q-13 -7 -27 -18t-33 -30t-31 -46.5t-12 -57.5zM201 1249q0 -27 11.5 -47.5t37.5 -37t47.5 -26.5t59.5 -25q12 -5 18 -7q84 57 84 135q0 102 -131 102q-59 0 -93 -25.5t-34 -68.5z" />
<glyph horiz-adv-x="604" d="M68 25q-3 47 26 73q68 -22 150 -22q184 0 184 131q0 79 -51.5 108t-173.5 29h-86v358h377q18 -43 0 -90h-279v-180q159 0 238 -51.5t79 -171.5q0 -219 -278 -219q-51 0 -97.5 8.5t-67.5 17.5z" />
<glyph horiz-adv-x="606" d="M68 733q-4 47 26 74q68 -23 150 -23q184 0 184 131q0 79 -52 108.5t-173 29.5h-86v358h377q18 -43 0 -90h-279v-180q159 0 238 -51.5t79 -171.5q0 -220 -278 -220q-51 0 -97.5 8.5t-67.5 17.5z" />
<glyph horiz-adv-x="663" d="M53 215q0 9 6 33l353 446q20 8 49 8t49 -8v-432h82q8 -20 8 -41q0 -23 -8 -39h-82v-176q-36 -6 -45 -6q-15 0 -45 6v176h-361q-6 24 -6 33zM174 262h246v311z" />
<glyph horiz-adv-x="661" d="M53 924q0 8 6 32l353 447q20 8 49 8t49 -8v-432h82q8 -20 8 -41q0 -23 -8 -39h-82v-176q-36 -6 -45 -6q-15 0 -45 6v176h-361q-6 24 -6 33zM174 971h246v311z" />
<glyph horiz-adv-x="1138" d="M119 539q0 154 27 263.5t80 173.5t123 93t163 29q215 0 315 -162v131q23 10 74 10q23 0 41.5 -2.5t25.5 -4.5l7 -3v-1014q0 -148 -22.5 -250.5t-76 -175t-143 -106t-221.5 -33.5q-84 0 -159.5 16t-108.5 32l-33 15q0 68 43 105q113 -43 244 -43q90 0 148 18.5t101 67 t61.5 134.5t18.5 220v86q-100 -159 -315 -159q-93 0 -163 29t-123 93t-80 173.5t-27 263.5zM272 539q0 -161 31.5 -257t93.5 -137t164 -41q66 0 118 28t83 72.5t47 94.5t18 100v275q-1 51 -16.5 101.5t-46 96t-83.5 73.5t-120 28q-153 0 -221 -98t-68 -336z" />
<glyph d="M117 539q0 154 27 263.5t80 173.5t123 93t163 29q215 0 315 -162v131q23 10 74 10q23 0 41.5 -2.5t25.5 -4.5l7 -3v-1014q0 -148 -22.5 -250.5t-76 -175t-143 -106t-221.5 -33.5q-84 0 -159.5 16t-108.5 32l-33 15q0 68 43 105q113 -43 244 -43q90 0 148 18.5t101 67 t61.5 134.5t18.5 220v86q-100 -159 -315 -159q-93 0 -163 29t-123 93t-80 173.5t-27 263.5zM270 539q0 -161 31.5 -257t93.5 -137t164 -41q66 0 118 28t83 72.5t47 94.5t18 100v275q-1 51 -16.5 101.5t-46 96t-83.5 73.5t-120 28q-153 0 -221 -98t-68 -336zM295 1393 q17 56 67 73q10 -8 28 -20.5t76.5 -33.5t119.5 -21t116.5 18.5t81.5 37.5l25 19q52 -18 68 -73q-4 -5 -11.5 -13.5t-34.5 -29.5t-58 -37t-81.5 -29.5t-105.5 -13.5q-54 0 -104 12.5t-82.5 31t-57 36.5t-36.5 30z" />
<glyph d="M117 539q0 154 27 263.5t80 173.5t123 93t163 29q215 0 315 -162v131q23 10 74 10q23 0 41.5 -2.5t25.5 -4.5l7 -3v-1014q0 -148 -22.5 -250.5t-76 -175t-143 -106t-221.5 -33.5q-84 0 -159.5 16t-108.5 32l-33 15q0 68 43 105q113 -43 244 -43q90 0 148 18.5t101 67 t61.5 134.5t18.5 220v86q-100 -159 -315 -159q-93 0 -163 29t-123 93t-80 173.5t-27 263.5zM268 1315l264 217h52l266 -217q-24 -56 -70 -70l-221 158l-221 -158q-47 16 -70 70zM270 539q0 -161 31.5 -257t93.5 -137t164 -41q66 0 118 28t83 72.5t47 94.5t18 100v275 q-1 51 -16.5 101.5t-46 96t-83.5 73.5t-120 28q-153 0 -221 -98t-68 -336z" />
<glyph d="M117 539q0 154 27 263.5t80 173.5t123 93t163 29q215 0 315 -162v131q23 10 74 10q23 0 41.5 -2.5t25.5 -4.5l7 -3v-1014q0 -148 -22.5 -250.5t-76 -175t-143 -106t-221.5 -33.5q-84 0 -159.5 16t-108.5 32l-33 15q0 68 43 105q113 -43 244 -43q90 0 148 18.5t101 67 t61.5 134.5t18.5 220v86q-100 -159 -315 -159q-93 0 -163 29t-123 93t-80 173.5t-27 263.5zM270 539q0 -161 31.5 -257t93.5 -137t164 -41q66 0 118 28t83 72.5t47 94.5t18 100v275q-1 51 -16.5 101.5t-46 96t-83.5 73.5t-120 28q-153 0 -221 -98t-68 -336zM473 1239v94 q0 49 13 95t31.5 76t37.5 53.5t32 34.5l13 10l55 -39q-7 -7 -17.5 -20.5t-30 -59.5t-23.5 -97q16 -1 30 -3.5t20 -4.5l5 -2v-137q-29 -8 -82 -8q-24 0 -45 2t-30 4z" />
<glyph d="M117 539q0 154 27 263.5t80 173.5t123 93t163 29q215 0 315 -162v131q23 10 74 10q23 0 41.5 -2.5t25.5 -4.5l7 -3v-1014q0 -148 -22.5 -250.5t-76 -175t-143 -106t-221.5 -33.5q-84 0 -159.5 16t-108.5 32l-33 15q0 68 43 105q113 -43 244 -43q90 0 148 18.5t101 67 t61.5 134.5t18.5 220v86q-100 -159 -315 -159q-93 0 -163 29t-123 93t-80 173.5t-27 263.5zM270 539q0 -161 31.5 -257t93.5 -137t164 -41q66 0 118 28t83 72.5t47 94.5t18 100v275q-1 51 -16.5 101.5t-46 96t-83.5 73.5t-120 28q-153 0 -221 -98t-68 -336zM500 1313v139 q25 8 78 8q23 0 42 -2t27 -4l8 -2v-139q-26 -10 -77 -10q-24 0 -43.5 2.5t-26.5 4.5z" />
<glyph horiz-adv-x="630" d="M66 492q0 108 66.5 164.5t170.5 56.5q120 0 184 -75t64 -222q0 -183 -102.5 -293.5t-301.5 -128.5q-11 15 -12 39t8 43q119 12 195.5 71.5t97.5 163.5q-66 -32 -147 -32q-102 0 -162.5 55.5t-60.5 157.5zM170 492q0 -61 34.5 -96.5t98.5 -35.5q16 0 31 1.5t28.5 5t23 6 t21 7.5t16.5 7.5t15 8t11 5.5q-3 230 -146 230q-62 0 -97.5 -36.5t-35.5 -102.5z" />
<glyph horiz-adv-x="630" d="M66 1200q0 108 66.5 164.5t170.5 56.5q120 0 184 -75t64 -222q0 -183 -102.5 -293.5t-301.5 -128.5q-11 15 -12 39t8 43q119 12 195.5 72t97.5 164q-68 -33 -147 -33q-102 0 -162.5 55.5t-60.5 157.5zM170 1200q0 -61 34.5 -96t98.5 -35q16 0 31 1.5t28.5 5t23 6t21 7.5 t16.5 7.5t15 8t11 5.5q-3 229 -146 229q-62 0 -97.5 -36.5t-35.5 -102.5z" />
<glyph horiz-adv-x="0" />
<glyph horiz-adv-x="497" d="M53 561q134 36 223 135q21 6 52 6q29 0 47 -6v-690q-18 -6 -47 -6q-30 0 -54 6v483q0 59 2 84q-88 -71 -198 -94q-32 32 -25 82z" />
<glyph horiz-adv-x="528" d="M53 1270q134 36 223 135q21 6 52 6q29 0 47 -6v-690q-18 -6 -47 -6q-36 0 -54 6v483q0 59 2 84q-88 -71 -198 -94q-32 32 -25 82z" />
<glyph horiz-adv-x="563" d="M55 655q0 23 8 47h441q6 -26 6 -57q0 -56 -14.5 -104t-38 -84t-51.5 -71t-56 -72.5t-51.5 -79t-38 -100.5t-14.5 -128q-24 -6 -51 -6q-32 0 -50 6q1 98 23 174.5t56 126.5t69 92.5t66.5 96t43.5 114.5h-340q-8 20 -8 45z" />
<glyph horiz-adv-x="567" d="M63 1319q-19 46 0 92h441q6 -24 6 -57q0 -56 -14.5 -104t-38 -84t-51.5 -71t-56 -72.5t-51.5 -79t-38 -100.5t-14.5 -128q-51 -12 -101 0q1 98 23 174.5t56 126.5t69 92.5t66.5 96t43.5 114.5h-340z" />
<glyph horiz-adv-x="632" d="M80 287q0 183 103.5 293.5t303.5 128.5q9 -17 9 -40t-9 -42q-119 -14 -194.5 -73.5t-95.5 -162.5q79 35 145 35q102 0 163.5 -56.5t61.5 -158.5q0 -108 -67 -164.5t-172 -56.5q-119 0 -183.5 75t-64.5 222zM184 301q0 -229 144 -229q62 0 98.5 37t36.5 102q0 61 -35.5 96 t-97.5 35q-78 0 -146 -41z" />
<glyph horiz-adv-x="632" d="M80 997q0 183 103.5 293.5t303.5 128.5q9 -17 9 -40t-9 -42q-119 -14 -194.5 -73t-95.5 -162q79 35 145 35q102 0 163.5 -56.5t61.5 -158.5q0 -108 -67 -165t-172 -57q-119 0 -183.5 75t-64.5 222zM184 1012q0 -230 144 -230q62 0 98.5 37.5t36.5 102.5q0 60 -35.5 95.5 t-97.5 35.5q-78 0 -146 -41z" />
<glyph horiz-adv-x="612" d="M68 25q0 49 28 71q68 -20 154 -20q100 0 139 33t39 92q0 125 -147 125h-93q-16 42 0 84h93q125 0 125 106q0 111 -142 111q-38 0 -76.5 -4.5t-57.5 -9.5l-19 -5q-28 28 -25 74q73 31 184 31q115 0 177.5 -48.5t62.5 -136.5q0 -58 -21.5 -95.5t-70.5 -61.5q56 -23 85 -65 t29 -113q0 -203 -278 -203q-50 0 -96.5 8.5t-67.5 17.5z" />
<glyph horiz-adv-x="614" d="M70 733q0 50 28 72q68 -21 154 -21q100 0 139 33t39 92q0 125 -147 125h-93q-16 42 0 84h93q125 0 125 107q0 110 -142 110q-38 0 -76.5 -4.5t-57.5 -8.5l-19 -5q-28 28 -25 74q73 30 184 30q115 0 177.5 -48t62.5 -136q0 -58 -21.5 -96t-70.5 -62q56 -23 85.5 -65 t29.5 -113q0 -203 -279 -203q-50 0 -96.5 8.5t-67.5 17.5z" />
<glyph horiz-adv-x="612" d="M66 84q0 57 20 101.5t52.5 73.5t71.5 52.5t78 43t71.5 40.5t52.5 50.5t20 66.5q0 112 -153 115q-43 0 -87 -8t-57 -13q-30 38 -24 78q75 29 184 29q116 0 178 -52t62 -143q0 -50 -19 -89.5t-50 -65t-68.5 -47.5t-75.5 -42.5t-71 -44t-55.5 -59t-27.5 -80.5h350 q10 -23 10 -45t-10 -45h-444q-8 37 -8 84z" />
<glyph horiz-adv-x="612" d="M66 793q0 57 20 101.5t52.5 73.5t71.5 52.5t78 43t71.5 40.5t52.5 50.5t20 66.5q0 51 -37.5 82.5t-115.5 31.5q-84 0 -144 -20q-30 38 -24 78q75 28 184 28q117 0 178.5 -51.5t61.5 -142.5q0 -50 -19 -89.5t-50 -65t-68.5 -47.5t-75.5 -42.5t-71 -44t-55.5 -59 t-27.5 -80.5h350q10 -23 10 -45t-10 -45h-444q-8 37 -8 84z" />
<glyph horiz-adv-x="704" d="M82 352q0 184 66.5 272.5t201.5 88.5q273 0 273 -361q0 -362 -273 -362q-135 0 -201.5 87.5t-66.5 274.5zM186 352q0 -150 38 -212t126 -62q86 0 125 62t39 212q0 149 -39 212t-125 63q-87 0 -125.5 -63t-38.5 -212z" />
<glyph horiz-adv-x="704" d="M82 1061q0 184 66.5 272t201.5 88q273 0 273 -360q0 -363 -273 -363q-135 0 -201.5 88t-66.5 275zM186 1061q0 -150 38.5 -212.5t125.5 -62.5q86 0 125 62.5t39 212.5q0 148 -39 211t-125 63q-87 0 -125.5 -62.5t-38.5 -211.5z" />
</font>
</defs>
</svg>
